<svg xmlns="http://www.w3.org/2000/svg" width="1132" height="342" viewBox="0 0 1132 342">
  <defs>
    <linearGradient id="geowave-logo-light-a" x1="68.092%" x2="36.303%" y1="90.999%" y2="3.331%">
      <stop offset="0%" stop-color="#AE15FF"/>
      <stop offset="43.957%" stop-color="#6795FF"/>
      <stop offset="100%" stop-color="#2BC3C3"/>
    </linearGradient>
  </defs>
  <g fill="none" fill-rule="evenodd">
    <path fill="#FFF" fill-rule="nonzero" d="M465.982256,226.711864 C470.321429,226.711864 474.607685,226.583081 478.841025,226.325513 C483.074365,226.067945 486.884371,225.784621 490.271042,225.47554 C493.657714,225.166459 496.435843,224.883135 498.60543,224.625567 C500.775016,224.368 502.01856,224.187702 502.33606,224.084675 L502.33606,224.084675 L502.33606,175.095324 C502.33606,167.059216 498.049804,163.041162 489.477291,163.041162 L489.477291,163.041162 L459.790996,163.041162 C459.367662,163.659324 458.812036,164.895649 458.124119,166.750135 C457.436201,168.604622 457.092242,170.716676 457.092242,173.086297 C457.092242,176.177108 457.885993,178.54673 459.473496,180.195162 C461.060998,181.843595 463.865586,182.667811 467.887259,182.667811 L467.887259,182.667811 L479.793526,182.667811 L479.793526,206.776135 C479.052692,206.982189 477.676857,207.188243 475.66602,207.394297 C473.655184,207.600351 470.691846,207.703378 466.776007,207.703378 C460.955165,207.703378 455.689948,206.930675 450.980358,205.38527 C446.270768,203.839865 442.249095,201.547513 438.91534,198.508216 C435.581585,195.468919 433.015123,191.656919 431.215953,187.072216 C429.416784,182.487513 428.517199,177.155865 428.517199,171.07727 C428.517199,165.20473 429.390325,159.924595 431.136578,155.236865 C432.882831,150.549135 435.343459,146.582595 438.518464,143.337243 C441.693469,140.091892 445.477016,137.619244 449.869106,135.919298 C454.261196,134.219352 459.155995,133.369379 464.553503,133.369379 C468.786843,133.369379 472.570391,133.833 475.904146,134.760244 C479.237901,135.687487 482.095405,136.795027 484.476659,138.082865 C486.857912,139.370703 488.815832,140.710054 490.350417,142.100919 C491.885003,143.491784 493.07563,144.599325 493.922298,145.423541 C494.557299,145.11446 495.377508,144.625081 496.382927,143.955406 C497.388345,143.28573 498.367304,142.41 499.319806,141.328216 C500.272307,140.246433 501.092517,139.010108 501.780435,137.619244 C502.468352,136.228379 502.812311,134.657217 502.812311,132.905757 C502.812311,131.257325 502.283144,129.583135 501.224809,127.88319 C500.166474,126.183244 498.631888,124.612081 496.621052,123.169703 C495.35105,122.345487 493.790006,121.469757 491.93792,120.542514 C490.085834,119.615271 487.836872,118.765298 485.191035,117.992595 C482.545197,117.219892 479.528943,116.575973 476.142271,116.060838 C472.755599,115.545703 468.892677,115.288136 464.553503,115.288136 C455.769324,115.288136 447.725978,116.575973 440.423467,119.151649 C433.120956,121.727325 426.823863,125.436298 421.532189,130.278568 C416.240514,135.120838 412.113008,140.967622 409.14967,147.818919 C406.186332,154.670216 404.704663,162.423 404.704663,171.07727 C404.704663,180.349703 406.239249,188.463081 409.30842,195.417405 C412.377591,202.371729 416.63739,208.167 422.087814,212.803216 C427.538239,217.439432 433.994082,220.916594 441.455344,223.234702 C448.916605,225.55281 457.092242,226.711864 465.982256,226.711864 Z M564.857731,226.711864 C569.409734,226.711864 573.538295,226.428505 577.243414,225.861786 C580.948533,225.295067 584.150814,224.676828 586.850258,224.007069 C589.549701,223.337311 591.693377,222.693312 593.281286,222.075073 C594.869194,221.456834 595.769008,221.044675 595.980729,220.838595 L595.980729,220.838595 L589.946679,205.537184 C589.099794,205.949343 586.850258,206.644862 583.198069,207.62374 C579.545881,208.602618 574.332249,209.092057 567.557174,209.092057 C560.7821,209.092057 555.330282,207.62374 551.201721,204.687106 C547.07316,201.750471 544.532507,198.169838 543.579762,193.945206 L543.579762,193.945206 L575.337924,193.945206 C580.101648,193.945206 584.097884,193.455767 587.32663,192.476889 C590.555377,191.49801 593.14896,190.106973 595.10738,188.303776 C597.0658,186.50058 598.494917,184.310984 599.394732,181.734989 C600.294546,179.158993 600.744454,176.273879 600.744454,173.079645 C600.744454,168.958053 599.9505,165.04254 598.362591,161.333107 C596.774683,157.623674 594.419286,154.37792 591.2964,151.595845 C588.173514,148.81377 584.309605,146.624174 579.704671,145.027057 C575.099738,143.42994 569.780246,142.631382 563.746195,142.631382 C557.288702,142.631382 551.413442,143.66178 546.120415,145.722576 C540.827388,147.783372 536.30185,150.694247 532.543801,154.4552 C528.785752,158.216153 525.874587,162.724144 523.810306,167.979174 C521.746026,173.234205 520.713886,179.107474 520.713886,185.598981 C520.713886,192.605688 521.825421,198.685037 524.048493,203.837027 C526.271564,208.989018 529.367985,213.26517 533.337755,216.665483 C537.307525,220.065797 541.965389,222.590272 547.311346,224.238909 C552.657303,225.887546 558.506098,226.711864 564.857731,226.711864 Z M571.439552,179.71566 L543.003101,179.71566 C543.003101,177.333483 543.426735,174.847733 544.274004,172.258411 C545.121272,169.669088 546.392175,167.286911 548.086712,165.11188 C549.781249,162.93685 551.899421,161.124324 554.441226,159.674303 C556.983032,158.224282 559.948472,157.499272 563.337546,157.499272 C566.408895,157.499272 569.003655,157.939457 571.121826,158.819827 C573.239998,159.700196 574.934535,160.813605 576.205438,162.160053 C577.476341,163.5065 578.403041,165.008308 578.985538,166.665474 C579.568035,168.32264 579.859283,169.876234 579.859283,171.326255 C579.859283,174.122723 579.329741,176.220074 578.270655,177.618308 C577.211569,179.016543 574.934535,179.71566 571.439552,179.71566 L571.439552,179.71566 Z M658.047042,226.711864 C664.713088,226.711864 670.744273,225.604186 676.140596,223.388831 C681.536919,221.173475 686.166117,218.18532 690.028192,214.424367 C693.890266,210.663414 696.852953,206.232703 698.916253,201.132232 C700.979553,196.031762 702.011203,190.544892 702.011203,184.671623 C702.011203,178.798354 700.979553,173.311484 698.916253,168.211014 C696.852953,163.110544 693.890266,158.679832 690.028192,154.918879 C686.166117,151.157926 681.536919,148.169772 676.140596,145.954416 C670.744273,143.73906 664.713088,142.631382 658.047042,142.631382 C651.380996,142.631382 645.349812,143.73906 639.953489,145.954416 C634.557166,148.169772 629.927967,151.157926 626.065893,154.918879 C622.203819,158.679832 619.241131,163.110544 617.177831,168.211014 C615.114532,173.311484 614.082882,178.798354 614.082882,184.671623 C614.082882,190.544892 615.114532,196.031762 617.177831,201.132232 C619.241131,206.232703 622.203819,210.663414 626.065893,214.424367 C629.927967,218.18532 634.557166,221.173475 639.953489,223.388831 C645.349812,225.604186 651.380996,226.711864 658.047042,226.711864 Z M657.959289,209.622335 C654.469977,209.622335 651.403612,208.978824 648.760194,207.691802 C646.116776,206.40478 643.869871,204.654431 642.019478,202.440753 C640.169085,200.227075 638.794508,197.60155 637.895746,194.564178 C636.996983,191.526806 636.547602,188.257771 636.547602,184.757071 C636.547602,181.256371 636.996983,177.987335 637.895746,174.949963 C638.794508,171.912591 640.169085,169.287067 642.019478,167.073389 C643.869871,164.859711 646.116776,163.109361 648.760194,161.822339 C651.403612,160.535317 654.469977,159.891806 657.959289,159.891806 C661.448601,159.891806 664.514966,160.535317 667.158385,161.822339 C669.801803,163.109361 672.048708,164.859711 673.899101,167.073389 C675.749494,169.287067 677.124071,171.912591 678.022833,174.949963 C678.921595,177.987335 679.370976,181.256371 679.370976,184.757071 C679.370976,188.257771 678.921595,191.526806 678.022833,194.564178 C677.124071,197.60155 675.749494,200.227075 673.899101,202.440753 C672.048708,204.654431 669.801803,206.40478 667.158385,207.691802 C664.514966,208.978824 661.448601,209.622335 657.959289,209.622335 Z M768.62926,224.148435 C770.005083,220.337992 771.539655,215.652178 773.232976,210.090992 C774.926296,204.529805 776.646075,198.659664 778.392312,192.480568 C780.138549,186.301472 781.805412,180.045137 783.3929,173.711563 C784.980388,167.37799 786.409127,161.585087 787.679118,156.332856 C788.737443,161.276133 790.139724,167.17202 791.885961,174.020518 C793.632198,180.869016 795.404893,187.666022 797.204046,194.411535 C799.0032,201.157048 800.69652,207.258906 802.284008,212.717107 C803.871496,218.175309 805.088571,221.985751 805.935231,224.148435 L805.935231,224.148435 L831.811287,224.148435 C839.325398,205.817117 846.151597,188.000723 852.289884,170.699254 C858.428172,153.397785 863.56105,137.280643 867.688519,122.347827 C867.582686,122.244843 867.212273,121.961634 866.577277,121.498202 C865.942282,121.03477 865.069164,120.545591 863.957922,120.030666 C862.84668,119.515742 861.550232,119.05231 860.068576,118.64037 C858.58692,118.22843 856.946516,118.02246 855.147363,118.02246 C850.914061,118.02246 847.818459,118.897832 845.860557,120.648576 C843.902655,122.39932 842.394542,124.870958 841.336216,128.063491 C840.912886,129.196326 840.277891,131.281771 839.43123,134.319826 C838.58457,137.357882 837.579161,140.962354 836.415003,145.133244 C835.250845,149.304134 833.954396,153.886964 832.525657,158.881733 C831.096918,163.876502 829.64172,168.871272 828.160065,173.866041 C826.678409,178.86081 825.196754,183.701102 823.715098,188.386917 C822.233451,193.072731 820.857619,197.217875 819.587629,200.822347 C818.740969,197.938769 817.762018,194.334297 816.650776,190.008929 C815.539534,185.683562 814.348918,181.023494 813.078928,176.028724 C811.808937,171.033955 810.538947,165.884708 809.268956,160.580984 C807.998966,155.27726 806.755433,150.128014 805.538359,145.133244 C804.321285,140.138475 803.210043,135.529899 802.204634,131.307517 C801.199225,127.085134 800.379023,123.532154 799.744027,120.648576 C799.109032,120.236636 797.944874,119.695965 796.251553,119.026563 C794.558233,118.357161 792.018252,118.02246 788.63161,118.02246 C784.609974,118.02246 781.567288,118.84634 779.503554,120.494099 C777.439819,122.141858 775.878789,125.025436 774.820464,129.144833 C773.762138,133.4702 772.518606,138.619447 771.089867,144.592573 C769.661127,150.565699 768.126556,156.822034 766.486151,163.361578 C764.845747,169.901121 763.152426,176.414918 761.406189,182.902969 C759.659952,189.39102 757.940173,195.312653 756.246853,200.66787 C755.188527,197.990262 753.971453,194.540266 752.59563,190.317884 C751.219807,186.095502 749.76461,181.538418 748.230038,176.646634 C746.695466,171.75485 745.107978,166.631349 743.467573,161.276133 C741.827169,155.920916 740.266139,150.720177 738.784483,145.673915 C737.302828,140.627653 735.927005,135.890346 734.657014,131.461994 C733.387024,127.033642 732.328698,123.223199 731.482038,120.030666 C731.376205,119.927682 730.423713,119.567234 728.624559,118.949325 C726.825406,118.331415 724.338341,118.02246 721.163365,118.02246 C718.940882,118.02246 717.11527,118.305669 715.686531,118.872086 C714.257792,119.438503 713.093634,120.185144 712.194057,121.112008 C711.294481,122.038873 710.659485,123.068722 710.289072,124.201556 C709.918658,125.334391 709.733451,126.518717 709.733451,127.754537 C709.733451,130.12319 710.103865,132.646321 710.844692,135.323929 C711.58552,138.001537 712.538013,141.091086 713.702171,144.592573 C714.231334,146.137347 715.077994,148.634732 716.242152,152.084727 C717.40631,155.534723 718.808591,159.576881 720.448996,164.211203 C722.0894,168.845525 723.888553,173.866041 725.846455,179.27275 L725.846455,179.27275 L731.720161,195.492877 C733.678063,200.899586 735.635965,206.074579 737.593867,211.017856 C739.551769,215.961133 741.324464,220.337992 742.911952,224.148435 L742.911952,224.148435 L768.62926,224.148435 Z M906.609325,226.199179 C912.012881,226.199179 916.992628,226.070531 921.548567,225.813235 C926.104505,225.555939 930.05122,225.272913 933.38871,224.964158 C936.7262,224.655403 939.401489,224.346648 941.414579,224.037893 C943.427668,223.729138 944.593141,223.523301 944.910997,223.420383 L944.910997,223.420383 L944.910997,177.261502 C944.910997,170.674727 943.851476,165.194325 941.732435,160.820295 C939.613394,156.446265 936.620248,152.947041 932.752997,150.322623 C928.885747,147.698205 924.276832,145.845675 918.926253,144.765032 C913.575674,143.684389 907.668846,143.144068 901.20577,143.144068 C897.815304,143.144068 894.504302,143.349905 891.272764,143.761578 C888.041226,144.173251 885.18052,144.86795 882.690647,145.845675 C880.200773,146.823399 878.214172,148.109878 876.730843,149.705113 C875.247514,151.300347 874.50585,153.230066 874.50585,155.49427 C874.50585,157.758474 875.088586,159.791111 876.254059,161.592183 C877.419531,163.393254 878.743932,164.705463 880.227261,165.52881 C880.968926,165.117136 881.948982,164.525356 883.167431,163.753468 C884.38588,162.98158 885.869209,162.209693 887.617418,161.437805 C889.365627,160.665917 891.45818,159.996948 893.895078,159.430897 C896.331975,158.864846 899.139705,158.581821 902.318267,158.581821 C909.417055,158.581821 914.661682,159.8683 918.052148,162.441259 C921.442614,165.014218 923.137848,168.719278 923.137848,173.556441 L923.137848,173.556441 L923.137848,176.026482 C922.608087,175.923563 920.753926,175.743456 917.575364,175.48616 C914.396802,175.228864 910.4236,175.100216 905.655757,175.100216 C898.768873,175.100216 892.915021,175.614808 888.094202,176.643992 C883.273383,177.673175 879.326669,179.24268 876.254059,181.352506 C873.181449,183.462333 870.956455,186.163939 869.579079,189.457327 C868.201702,192.750714 867.513013,196.610152 867.513013,201.035641 C867.513013,204.637784 868.069262,207.9569 869.181758,210.992992 C870.294255,214.029083 872.333832,216.679231 875.30049,218.943435 C878.267148,221.207638 882.266838,222.98298 887.299562,224.269459 C892.332285,225.555939 898.768873,226.199179 906.609325,226.199179 Z M907.723021,212.01487 L907.5624,212.01487 C903.74952,212.01487 900.651554,211.6787 898.268504,211.006362 C895.885453,210.334024 894.03197,209.454813 892.708053,208.368729 C891.384136,207.282644 890.510351,206.067264 890.086697,204.722588 C889.663044,203.377912 889.451217,201.981517 889.451217,200.533404 C889.451217,198.878418 889.689522,197.30101 890.166132,195.801179 C890.642743,194.301348 891.543006,193.00839 892.866923,191.922306 C894.19084,190.836221 896.070802,189.982869 898.506809,189.362249 C900.942816,188.741629 904.120216,188.43132 908.03901,188.43132 C909.733624,188.43132 911.401759,188.457179 913.043416,188.508897 C914.685073,188.560615 916.194338,188.638193 917.571212,188.741629 C918.948086,188.845066 920.113132,188.948503 921.066353,189.051939 C922.019573,189.155376 922.655053,189.258813 922.972793,189.362249 L922.972793,189.362249 L922.972793,210.618475 C922.019573,210.825348 920.219046,211.109799 917.571212,211.471827 C914.923378,211.833855 911.587108,212.01487 907.5624,212.01487 L907.723021,212.01487 Z M1010.20659,225.686493 C1011.68725,223.318059 1013.48519,220.074335 1015.60042,215.955321 C1017.71565,211.836306 1019.98952,207.30539 1022.42203,202.362572 C1024.85454,197.419754 1027.28705,192.270986 1029.71957,186.916267 C1032.15208,181.561548 1034.42595,176.464267 1036.54118,171.624425 C1038.6564,166.784583 1040.45435,162.433874 1041.93501,158.572297 C1043.41567,154.710721 1044.4204,151.801667 1044.94921,149.845135 C1044.52616,149.330258 1043.30991,148.454968 1041.30044,147.219263 C1039.29097,145.983559 1036.59406,145.365707 1033.20969,145.365707 C1029.19076,145.365707 1026.25588,146.292485 1024.40505,148.146041 C1022.55423,149.999598 1020.94137,152.779933 1019.56647,156.487046 C1017.87429,161.017962 1015.99702,165.883548 1013.93468,171.083804 C1011.87233,176.28406 1009.8893,181.201134 1007.9856,185.835026 C1006.08189,190.468917 1004.36327,194.5107 1002.82973,197.960375 C1001.29619,201.41005 1000.26502,203.649764 999.736208,204.679518 C998.255548,201.590257 996.457605,197.52273 994.342377,192.476937 C992.227149,187.431144 990.05904,182.1794 987.83805,176.721706 C985.617061,171.264011 983.501833,165.909292 981.492366,160.657549 C979.4829,155.405805 977.843598,150.977864 976.574461,147.373726 C976.4687,147.270751 975.649049,146.910337 974.115509,146.292485 C972.581968,145.674633 970.228777,145.365707 967.055935,145.365707 C964.834946,145.365707 963.010562,145.648889 961.582783,146.215253 C960.155004,146.781618 959.018069,147.528189 958.171978,148.454968 C957.325886,149.381746 956.717758,150.4115 956.347593,151.544229 C955.977428,152.676958 955.792346,153.861174 955.792346,155.096879 C955.792346,156.84746 956.030309,158.443578 956.506235,159.885233 C956.982162,161.326888 957.59029,162.871519 958.33062,164.519125 C958.753665,165.651854 959.943481,168.406445 961.900067,172.782898 C963.856653,177.159351 966.236284,182.333863 969.038961,188.306435 C971.841639,194.279006 974.908719,200.586247 978.240203,207.228158 C981.571687,213.870069 984.823851,220.022847 987.996693,225.686493 L987.996693,225.686493 L1010.20659,225.686493 Z M1096.11328,226.711864 C1100.66528,226.711864 1104.79384,226.428505 1108.49896,225.861786 C1112.20408,225.295067 1115.40636,224.676828 1118.1058,224.007069 C1120.80525,223.337311 1122.94892,222.693312 1124.53683,222.075073 C1126.12474,221.456834 1127.02455,221.044675 1127.23628,220.838595 L1127.23628,220.838595 L1121.20222,205.537184 C1120.35534,205.949343 1118.1058,206.644862 1114.45362,207.62374 C1110.80143,208.602618 1105.5878,209.092057 1098.81272,209.092057 C1092.03765,209.092057 1086.58583,207.62374 1082.45727,204.687106 C1078.32871,201.750471 1075.78805,198.169838 1074.83531,193.945206 L1074.83531,193.945206 L1106.59347,193.945206 C1111.35719,193.945206 1115.35343,193.455767 1118.58218,192.476889 C1121.81092,191.49801 1124.40451,190.106973 1126.36293,188.303776 C1128.32135,186.50058 1129.75046,184.310984 1130.65028,181.734989 C1131.55009,179.158993 1132,176.273879 1132,173.079645 C1132,168.958053 1131.20605,165.04254 1129.61814,161.333107 C1128.03023,157.623674 1125.67483,154.37792 1122.55195,151.595845 C1119.42906,148.81377 1115.56515,146.624174 1110.96022,145.027057 C1106.35528,143.42994 1101.03579,142.631382 1095.00174,142.631382 C1088.54425,142.631382 1082.66899,143.66178 1077.37596,145.722576 C1072.08293,147.783372 1067.5574,150.694247 1063.79935,154.4552 C1060.0413,158.216153 1057.13013,162.724144 1055.06585,167.979174 C1053.00157,173.234205 1051.96943,179.107474 1051.96943,185.598981 C1051.96943,192.605688 1053.08097,198.685037 1055.30404,203.837027 C1057.52711,208.989018 1060.62353,213.26517 1064.5933,216.665483 C1068.56307,220.065797 1073.22094,222.590272 1078.56689,224.238909 C1083.91285,225.887546 1089.76164,226.711864 1096.11328,226.711864 Z M1102.6951,179.71566 L1074.25865,179.71566 C1074.25865,177.333483 1074.68228,174.847733 1075.52955,172.258411 C1076.37682,169.669088 1077.64772,167.286911 1079.34226,165.11188 C1081.0368,162.93685 1083.15497,161.124324 1085.69677,159.674303 C1088.23858,158.224282 1091.20402,157.499272 1094.59309,157.499272 C1097.66444,157.499272 1100.2592,157.939457 1102.37737,158.819827 C1104.49554,159.700196 1106.19008,160.813605 1107.46098,162.160053 C1108.73189,163.5065 1109.65859,165.008308 1110.24108,166.665474 C1110.82358,168.32264 1111.11483,169.876234 1111.11483,171.326255 C1111.11483,174.122723 1110.58529,176.220074 1109.5262,177.618308 C1108.46712,179.016543 1106.19008,179.71566 1102.6951,179.71566 L1102.6951,179.71566 Z"/>
    <path fill="url(#geowave-logo-light-a)" d="M148.387313,318.630364 L173.6033,324.506394 L179.792141,334.304785 L161.521456,341.067797 L134.597673,336.373537 L129.698477,324.506394 L148.387313,318.630364 Z M229.460386,305.669077 L239.954283,316.446189 L224.628206,329.154116 L200.579331,329.154116 L193.841813,316.446189 L208.202992,306.510195 L229.460386,305.669077 Z M59.122133,288.151197 L79.7969054,294.906777 L92.7820636,308.900858 L88.9286292,317.411596 L69.7831277,312.474962 L56.7280132,300.419438 L59.122133,288.151197 Z M113.121392,271.259375 L141.050534,274.226888 L152.674392,298.142005 L134.569354,309.987564 L109.654697,305.669077 L97.591604,285.825469 L113.121392,271.259375 Z M288.824722,273.290557 L293.76947,285.825469 L276.426556,302.145278 L254.978594,305.669077 L249.180241,290.62347 L266.346238,275.143843 L288.824722,273.290557 Z M181.199822,251.760757 L210.275144,255.268363 L219.696891,277.464417 L203.706238,298.526928 L172.699458,293.542991 L158.9314,273.290557 L181.199822,251.760757 Z M25.4097985,224.313723 L40.9723086,231.16 L52.1663241,253.698621 L44.3165292,267.401536 L20.6977625,258.966767 L15.4175178,238.411578 L25.4097985,224.313723 Z M252.457787,218.754005 L276.426556,221.759015 L281.036623,245.49526 L263.521586,261.246134 L242.485299,258.966767 L236.322395,238.411578 L252.457787,218.754005 Z M77.1989272,205.648956 L104.183267,212.710987 L114.85238,235.63172 L97.591604,255.268363 L72.8828113,249.729575 L62.0567173,223.527069 L77.1989272,205.648956 Z M148.387313,182.118854 L183.51826,188.060909 L196.28335,220.441776 L173.6033,245.857629 L140.727393,240.000069 L128.868431,207.538694 L148.387313,182.118854 Z M318.172377,201.434472 L324.401687,205.648956 L323.094782,225.508496 L309.262221,242.083558 L299.065332,238.411578 L303.943004,215.501254 L318.172377,201.434472 Z M9.30860318,172.48921 L25.4097985,176.758279 L30.8350355,199.873516 L20.6977625,215.375057 L5.48061449,212.710987 L0,186.335148 L9.30860318,172.48921 Z M234.127526,147.867603 L263.521586,152.889712 L267.86875,182.118854 L249.180241,205.648956 L221.813722,199.873516 L217.101849,168.042331 L234.127526,147.867603 Z M62.4025576,143.10213 L86.5120903,147.867603 L92.7820636,173.680578 L75.6301407,193.735275 L52.1663241,189.672359 L46.7841919,160.961588 L62.4025576,143.10213 Z M128.868431,106.963964 L161.521456,116.90182 L170.51098,148.562567 L146.616996,174.871946 L114.85238,168.042331 L104.183267,133.934746 L128.868431,106.963964 Z M309.388164,126.212216 L323.094782,132.393682 L328.455959,156.295488 L318.172377,171.297842 L302.888128,168.042331 L295.977677,140.829647 L309.388164,126.212216 Z M15.7553612,102.121935 L29.5784353,106.963964 L23.1485982,133.934746 L12.2258427,144.293498 L1.93228711,137.258338 L5.48061449,116.90182 L15.7553612,102.121935 Z M60.8578403,79.729598 L81.383081,84.0876706 L84.6125132,106.169719 L65.2696756,123.207717 L44.3165292,121.161101 L40.9723086,98.0287037 L60.8578403,79.729598 Z M117.908418,49.3811729 L146.616996,53.4917758 L152.667972,78.5031326 L131.091743,99.8157559 L104.183267,95.5160979 L97.591604,70.2988064 L117.908418,49.3811729 Z M79.7969054,31.8950596 L82.3612601,42.8920076 L61.1605849,68.7135238 L44.3165292,70.2988064 L44.3165292,58.1307187 L62.9528497,34.020049 L79.7969054,31.8950596 Z M227.538842,20.5348377 L247.467028,22.7170573 L263.521586,37.2189993 L258.679561,49.241797 L239.954283,44.2287579 L224.628206,31.8950596 L227.538842,20.5348377 Z M118.865392,9.0781634 L138.849035,10.1967677 L138.849035,22.0789872 L119.566652,37.2189993 L100.555405,35.256586 L100.555405,22.0789872 L118.865392,9.0781634 Z M182.923038,0.93220339 L205.515064,7.09909428 L205.515064,22.0789872 L183.789878,28.6773709 L162.186098,23.575178 L161.862792,8.18982435 L182.923038,0.93220339 Z"/>
  </g>
</svg>
