<svg xmlns="http://www.w3.org/2000/svg" xmlns:xlink="http://www.w3.org/1999/xlink" width="76" height="78" viewBox="0 0 76 78">
  <defs>
    <path id="icon-scalable-a" d="M60.6521586,10.2317905 C42.6521586,-7.54863177 27.3200407,0.537677283 24.6521586,14.0838212 C21.9842765,27.6299652 -2.79876327,30.3346666 0.261187502,46.3346666 C3.32113827,62.3346666 36.6521586,52.8346666 36.6521586,67.3346666 C36.6521586,81.8346666 75.1895892,81.3346666 75.1895892,62.3346666 C75.1895892,43.3346666 78.6521586,28.0122127 60.6521586,10.2317905 Z"/>
  </defs>
  <g fill="none" fill-rule="evenodd">
    <mask id="icon-scalable-b" fill="#fff">
      <use xlink:href="#icon-scalable-a"/>
    </mask>
    <use fill="#FFF" fill-opacity=".2" xlink:href="#icon-scalable-a"/>
    <g fill="#56A1EE" mask="url(#icon-scalable-b)" opacity=".2">
      <rect width="76" height="78"/>
    </g>
    <g stroke-linecap="round" stroke-linejoin="round" transform="translate(10 11)">
      <path stroke="#333" stroke-width="3" d="M40 8C40 12.418 43.582 16 48 16 52.418 16 56 12.418 56 8 56 3.582 52.418 0 48 0 43.582 0 40 3.582 40 8zM40 48C40 52.418 43.582 56 48 56 52.418 56 56 52.418 56 48 56 43.582 52.418 40 48 40 43.582 40 40 43.582 40 48zM0 28C0 34.076 4.926 39 11 39 17.074 39 22 34.076 22 28 22 21.924 17.074 17 11 17 4.926 17 0 21.924 0 28z"/>
      <path stroke="#6A44FF" stroke-width="3" d="M6,28 C6,25.244 8.244,23 11,23"/>
      <line x1="21" x2="41.008" y1="33" y2="44.116" stroke="#333" stroke-width="3"/>
      <line x1="41.008" x2="21" y1="11.885" y2="23.001" stroke="#333" stroke-width="3"/>
    </g>
  </g>
</svg>
