<svg xmlns="http://www.w3.org/2000/svg" width="24" height="29" viewBox="0 0 24 29">
  <path fill="#FFF" d="M22.9646111,24.0175417 C22.2618333,23.478625 22.5352778,22.2884167 21.8056667,21.7011667 C22.5122778,17.635125 20.5317222,14.0512083 18.1703889,11.7541667 C16.1885556,9.826875 16.8274444,7.95154167 16.8274444,6.32875 C16.8274444,3.73566667 15.7017222,1 12.2913333,1 C8.64583333,1 7.64661111,3.87583333 7.61083333,5.51675 C7.52394444,9.45833333 8.45288889,10.483 6.01361111,13.3515833 C3.14372222,16.7264583 2.72077778,20.092875 3.36861111,21.8787917 C3.06577778,22.2122917 2.65688889,22.5820417 1.89277778,22.88775 C-0.218111111,23.75775 1.32927778,25.2137917 0.745333333,26.2469167 C0.579222222,26.5405417 0.5,26.8474583 0.5,27.1410833 C0.5,28.0473333 1.26155556,28.8315417 2.64538889,28.7143333 C4.51222222,28.55725 6.23466667,29.807875 7.34888889,29.807875 C8.33277778,29.807875 9.14033333,29.278625 9.516,28.55 C11.2755,28.140375 13.4477222,28.1923333 15.2059444,28.6212917 C15.5215556,29.45625 16.3776667,30 17.3296111,30 C19.4136667,30 19.8148889,27.7657917 22.2056111,27.009375 C23.0668333,26.7375 23.5,25.94725 23.5,25.211375 C23.5,24.740125 23.3223889,24.2918333 22.9646111,24.0175417 Z M10.0341169,10.2827992 C9.31142392,9.82726621 9.01046945,9.75067516 9.01868187,9.27190072 C9.01868187,8.94303381 9.27224008,8.7084139 9.94292103,8.34700893 C10.6628765,7.96003832 10.8675687,7.62857143 11.5765743,7.62857143 C12.3020047,7.62857143 12.3521384,7.88748906 13.3376288,8.24889404 C14.3066943,8.60565072 14.9814815,8.74509959 14.9814815,9.14717715 C14.9814815,9.55971338 14.0431464,9.79356607 13.4723833,10.0945432 C12.6333477,10.5338071 12.2021957,10.9428571 11.4028535,10.9428571 C10.9662265,10.9428571 10.60488,10.6430421 10.0341169,10.2827992 Z M13.8485555,4.33014273 C14.9338148,4.50051773 15.0556296,6.3734344 14.5363786,7.29539273 L14.0995679,7.1201844 C14.3259712,6.4640594 14.3222798,5.3838094 13.564321,5.3149344 C13.083214,5.2714344 12.7731399,5.8949344 12.7066954,6.42901773 C12.5184362,6.3516844 12.3129506,6.29610107 12.0631687,6.2755594 C12.1394568,5.16026773 12.8728066,4.1766844 13.8485555,4.33014273 L13.8485555,4.33014273 Z M9.66132507,4.73010107 C10.4931111,4.52710107 10.9840617,5.47685107 10.9877531,6.4640594 L10.6063127,6.69364273 C10.5546337,6.2791844 10.3663745,5.60976773 9.89388063,5.75235107 C9.38816458,5.90701773 9.47060491,7.06097607 9.75237857,7.2978094 L9.37586005,7.50322607 C8.85906993,6.6489344 8.86030038,4.92585107 9.66132507,4.73010107 L9.66132507,4.73010107 Z M2.48572115,28.1986677 C1.45717449,28.1986677 1.1209443,27.5360021 1.50747664,26.9088159 C1.83576438,26.3766234 1.73383633,25.8192518 1.65308814,25.3717522 C1.52865649,24.6861966 1.5061529,24.463019 2.28583627,24.167738 C3.36468509,23.7717409 3.84387929,23.2624383 4.20128932,22.8813198 C5.20468491,21.8089231 6.21734668,23.4959164 7.04733221,24.9986451 C7.58609474,25.9726148 8.64641118,26.4658944 8.97337518,27.5451581 C9.27386436,28.5420177 8.03351916,29.6064029 6.46356248,28.9883728 C3.86505914,27.9663341 2.98212398,28.1986677 2.48572115,28.1986677 Z M21.6513006,26.9104369 C20.5128896,27.2966226 19.7443178,28.116759 19.2161414,28.6259144 C18.1990839,29.6076391 16.8537942,29.1371023 16.7104816,28.2183869 C16.5590787,27.2366622 17.1265506,26.7010836 17.3715689,25.6024869 C17.5946281,24.5994204 17.3449868,23.0556939 17.869696,22.8910568 C18.6353552,22.8910568 19.0858805,22.5401572 19.6666667,22.5428571 C20.3063128,22.545897 20.4796709,23.6924192 20.7243914,23.4378144 C21.4837172,23.4378144 21.5472833,23.6634282 21.7171782,24.2884393 C21.8235069,24.6797063 21.9702868,25.0089805 22.3852,25.3961824 C22.8683023,25.8504588 22.7203667,26.5476256 21.6513006,26.9104369 Z" transform="translate(0 -1)"/>
</svg>
