<svg xmlns="http://www.w3.org/2000/svg" xmlns:xlink="http://www.w3.org/1999/xlink" width="74" height="79" viewBox="0 0 74 79">
  <defs>
    <path id="icon-analytics-a" d="M60.6521586,10.2317905 C42.6521586,-7.54863177 27.3200407,0.537677283 24.6521586,14.0838212 C21.9842765,27.6299652 -2.79876327,30.3346666 0.261187502,46.3346666 C3.32113827,62.3346666 36.6521586,52.8346666 36.6521586,67.3346666 C36.6521586,81.8346666 75.1895892,81.3346666 75.1895892,62.3346666 C75.1895892,43.3346666 78.6521586,28.0122127 60.6521586,10.2317905 Z"/>
  </defs>
  <g fill="none" fill-rule="evenodd" transform="translate(-9 -4)">
    <g transform="rotate(-105 46.07 39.163)">
      <mask id="icon-analytics-b" fill="#fff">
        <use xlink:href="#icon-analytics-a"/>
      </mask>
      <use fill="#FFF" fill-opacity=".2" xlink:href="#icon-analytics-a"/>
      <g fill="#56A1EE" mask="url(#icon-analytics-b)" opacity=".2">
        <rect width="76" height="78"/>
      </g>
    </g>
    <g fill-rule="nonzero" transform="translate(14.5 16)">
      <path fill="#52565C" d="M62.7895623,46.8157182 L56.526936,46.8157182 L56.526936,19.6476965 L62.9242424,19.6476965 C63.530303,19.6476965 64.0690236,19.3089431 64.3383838,18.7669377 C64.6077441,18.2249322 64.540404,17.5474255 64.1363636,17.0731707 L51.476431,0.609756098 C50.8703704,-0.203252033 49.5909091,-0.203252033 48.9848485,0.609756098 L36.3249158,17.0054201 C35.9208754,17.4796748 35.9208754,18.1571816 36.1228956,18.699187 C36.3922559,19.2411924 36.9309764,19.5799458 37.537037,19.5799458 L43.9343434,19.5799458 L43.9343434,46.7479675 L38.6818182,46.7479675 L38.6818182,26.4227642 C38.6818182,25.5420054 37.9410774,24.796748 37.0656566,24.796748 L27.7727273,24.796748 C26.8973064,24.796748 26.1565657,25.5420054 26.1565657,26.4227642 L26.1565657,46.7479675 L20.9040404,46.7479675 L20.9040404,35.0271003 C20.9040404,34.1463415 20.1632997,33.401084 19.2878788,33.401084 L9.99494949,33.401084 C9.11952862,33.401084 8.37878788,34.1463415 8.37878788,35.0271003 L8.37878788,46.7479675 L2.11616162,46.7479675 C1.24074074,46.7479675 0.5,47.4932249 0.5,48.3739837 C0.5,49.2547425 1.24074074,50 2.11616162,50 L62.7895623,50 C63.6649832,50 64.4057239,49.2547425 64.4057239,48.3739837 C64.4057239,47.4932249 63.6649832,46.8157182 62.7895623,46.8157182 Z M45.5505051,16.395664 L40.8367003,16.395664 L50.2643098,4.20054201 L59.6919192,16.395664 L54.9781145,16.395664 C54.1026936,16.395664 53.3619529,17.1409214 53.3619529,18.0216802 L53.3619529,46.8157182 L47.1666667,46.8157182 L47.1666667,18.0216802 C47.1666667,17.1409214 46.4259259,16.395664 45.5505051,16.395664 Z M29.3215488,28.1165312 L35.516835,28.1165312 L35.516835,46.8157182 L29.3215488,46.8157182 L29.3215488,28.1165312 Z M11.543771,36.6531165 L17.7390572,36.6531165 L17.7390572,46.8157182 L11.543771,46.8157182 L11.543771,36.6531165 Z"/>
      <path fill="#6A44FF" d="M56.526936,46.8157182 L56.526936,19.6476965 L62.9242424,19.6476965 C63.530303,19.6476965 64.0690236,19.3089431 64.3383838,18.7669377 C64.6077441,18.2249322 64.540404,17.5474255 64.1363636,17.0731707 L51.476431,0.609756098 C50.8703704,-0.203252033 49.5909091,-0.203252033 48.9848485,0.609756098 L36.3249158,17.0054201 C35.9208754,17.4796748 35.9208754,18.1571816 36.1228956,18.699187 C36.3922559,19.2411924 36.9309764,19.5799458 37.537037,19.5799458 L43.9343434,19.5799458 L43.9343434,46.7479675 L56.526936,46.8157182 Z M45.5505051,16.395664 L40.8367003,16.395664 L50.2643098,4.20054201 L59.6919192,16.395664 L54.9781145,16.395664 C54.1026936,16.395664 53.3619529,17.1409214 53.3619529,18.0216802 L53.3619529,46.8157182 L47.1666667,46.8157182 L47.1666667,18.0216802 C47.1666667,17.1409214 46.4259259,16.395664 45.5505051,16.395664 Z"/>
    </g>
  </g>
</svg>
