<svg xmlns="http://www.w3.org/2000/svg" xmlns:xlink="http://www.w3.org/1999/xlink" width="76" height="78" viewBox="0 0 76 78">
  <defs>
    <path id="icon-tetris-a" d="M60.6521586,10.2317905 C42.6521586,-7.54863177 27.3200407,0.537677283 24.6521586,14.0838212 C21.9842765,27.6299652 -2.79876327,30.3346666 0.261187502,46.3346666 C3.32113827,62.3346666 36.6521586,52.8346666 36.6521586,67.3346666 C36.6521586,81.8346666 75.1895892,81.3346666 75.1895892,62.3346666 C75.1895892,43.3346666 78.6521586,28.0122127 60.6521586,10.2317905 Z"/>
  </defs>
  <g fill="none" fill-rule="evenodd">
    <mask id="icon-tetris-b" fill="#fff">
      <use xlink:href="#icon-tetris-a"/>
    </mask>
    <use fill="#FFF" fill-opacity=".2" xlink:href="#icon-tetris-a"/>
    <g fill="#56A1EE" mask="url(#icon-tetris-b)" opacity=".2">
      <rect width="76" height="78"/>
    </g>
    <path fill="#52565C" fill-rule="nonzero" d="M67.2985123,27.1710934 L54.2977643,27.1710934 C53.3579812,27.1710934 52.5961633,27.9305273 52.5961633,28.8673695 L52.5961633,40.212917 L40.7324219,40.212917 L40.7324219,14.6962761 C40.7324219,13.7594339 39.970604,13 39.0308209,13 L31.4872939,13 C30.5475108,13 29.7856929,13.7594339 29.7856929,14.6962761 L29.7856929,21.4578918 L20.961746,21.4578918 C20.0219629,21.4578918 19.260145,22.2173257 19.260145,23.1541679 L19.260145,40.212917 L12.701601,40.212917 C11.7618179,40.212917 11,40.972351 11,41.9091932 L11.0410079,61.3037239 C11.0410079,62.2405661 11.8028258,63 12.7426089,63 L67.298399,63 C68.2381821,63 69,62.2405661 69,61.3037239 L69,28.8673695 C69,27.9305273 68.2382954,27.1710934 67.2985123,27.1710934 Z M40.7324219,43 L66.4328613,43 L66.4328613,50 L40.7324219,50 L40.7324219,43 Z M22,24.5217886 L31.0297638,24.5217886 C31.9914795,24.5217886 32.7711926,23.7566276 32.7711926,22.8127204 L32.7711926,16 L38,16 L38,40 L31.9547312,40 L31.9547312,33.6015242 C31.9547312,32.6576171 31.175134,31.8924561 30.2134183,31.8924561 L22,31.8924561 L22,24.5217886 Z M14,43.2495117 L20.5872113,43.2495117 C21.5312322,43.2496218 22.2963932,42.5090415 22.2963932,41.595593 L22.2963932,35 L28.6485379,35 L28.6485379,41.595593 C28.6485379,42.5090415 29.4136989,43.2495117 30.3576061,43.2495117 L38,43.2495117 L38,50 L14,50 L14,43.2495117 Z M24,60 L14,60 L14,53 L24,53 L24,60 Z M53,60 L26.4748535,60 L26.4748535,53 L53,53 L53,60 Z M55.5371094,60 L55.5371094,53 L66.4328613,53 L66.4328613,60 L55.5371094,60 Z M66.4328613,40 L55.1345215,40 L55.1345215,30 L66.4328613,30 L66.4328613,40 Z"/>
    <path fill="#6A44FF" fill-rule="nonzero" d="M40.7324219,43.1318359 L40.7324219,14.6962761 C40.7324219,13.7594339 39.970604,13 39.0308209,13 L31.2271489,13 C30.2873658,13 29.5255479,13.7594339 29.5255479,14.6962761 L29.5255479,21.4578918 L20.701601,21.4578918 C19.7618179,21.4578918 19.3183594,22.1392007 19.3183594,23.0760429 L19.2847991,34.5135516 C19.2839888,34.7896928 19.5071887,35.0142063 19.7833298,35.0150165 C19.7841013,35.0150188 19.7848727,35.0150193 19.7856442,35.015018 L28.6485379,35 L28.6485379,35 L28.6445313,41.6009521 C28.7856445,42.6915283 29.2722982,43.2368164 30.1044922,43.2368164 C30.9366862,43.2368164 34.4793294,43.2018229 40.7324219,43.1318359 Z M22,24.5217886 L31.0297638,24.5217886 C31.9914795,24.5217886 32.7711926,23.7566276 32.7711926,22.8127204 L32.7711926,16 L37.739855,16 L37.739855,40 L32.0921983,40 L32.0921983,33.6015242 C32.0921983,32.6576171 31.3126011,31.8924561 30.3508855,31.8924561 L22,31.8924561 L22,24.5217886 Z"/>
  </g>
</svg>
