<svg xmlns="http://www.w3.org/2000/svg" width="32" height="27" viewBox="0 0 32 27">
  <path fill="#FFF" fill-rule="evenodd" d="M6.69128858 1.69330891C6.69128858 1.69330891 12.7932235-1.57130571 18.0135135 2.36185691L15.0923092 12.234375C15.0923092 12.234375 11.8228374 10.0196039 9.3951979 10.2583711 6.96755839 10.4969553 3.77027027 11.6402931 3.77027027 11.6402931L6.69128858 1.69330891M3.32190683 13.5427327C3.32190683 13.5427327 6.59341309 12.062237 9.30944717 12.2510057 12.0256671 12.4397743 14.1944059 13.8620482 14.6621622 14.1887771L11.7136437 24.046875C11.7136437 24.046875 8.43656232 21.9720474 6.10837382 22.1608161 3.78037116 22.3495847 1.76234761 22.6945756.418918919 23.371539L3.32190683 13.5427327M15.8919665 14.765625C15.8919665 14.765625 19.0063093 16.7453666 21.0447206 16.6979095 23.0531881 16.6511798 24.4426927 16.4960806 27.1675799 15.4520251 27.1889683 15.4440247 27.2442063 15.4052954 27.2261656 15.4165687 27.1675799 15.4520251 24.3061787 25.2410908 24.3061787 25.2410908 24.3061787 25.2410908 21.093449 26.7106234 18.1809015 26.5684341 15.268726 26.4260629 13.5197096 24.7977945 12.9864865 24.5916017L15.8919665 14.765625M19.2648068 2.953125L16.3378378 12.6735703C16.3378378 12.6735703 18.7158955 14.9435949 22.064403 14.7544262 25.4127245 14.5652575 27.2327595 13.5367885 27.67531 13.3918316L30.5810811 3.58549935C30.5810811 3.58549935 26.7230828 5.15465747 24.1994298 4.8709044 21.6761487 4.58733252 20.1043509 3.54164989 19.2648068 2.953125" transform="translate(.5)"/>
</svg>
