<svg xmlns="http://www.w3.org/2000/svg" width="25" height="29" viewBox="0 0 25 29">
  <path fill="#FFF" d="M55.3926982,0 C58.2912071,1.04661497 60.5500481,2.09323326 60.2279909,6.62857143 C57.3294819,5.9308248 54.7485837,4.1864632 55.3926982,0 Z M65.9571429,6.62857143 C69.0428571,6.62857143 73.5,9.38197675 73.5,14.5446221 C73.5,21.772311 68.7,29 65.9571429,29 C63.9,29 62.1857143,27.6232973 60.8142857,27.6232973 C59.4428571,27.6232973 58.0714286,29 56.0142857,29 C53.2714286,29 50.1857143,24.869892 49.5,21.0839597 C51.9,19.3630814 53.6142857,18.3305544 53.6142857,15.2329734 C53.6142857,13.167916 51.9,11.102862 49.8428571,9.38197675 C50.8714286,8.00527409 52.9285714,6.62857143 54.9857143,6.62857143 C57.0428571,6.62857143 59.2549989,8.26241117 60.8142857,8.34944976 C62.1857143,8.34944976 63.9,6.62857143 65.9571429,6.62857143 Z" transform="matrix(-1 0 0 1 74 0)"/>
</svg>
