<svg xmlns="http://www.w3.org/2000/svg" xmlns:xlink="http://www.w3.org/1999/xlink" width="76" height="78" viewBox="0 0 76 78">
  <defs>
    <path id="icon-globe-a" d="M60.6521586,10.2317905 C42.6521586,-7.54863177 27.3200407,0.537677283 24.6521586,14.0838212 C21.9842765,27.6299652 -2.79876327,30.3346666 0.261187502,46.3346666 C3.32113827,62.3346666 36.6521586,52.8346666 36.6521586,67.3346666 C36.6521586,81.8346666 75.1895892,81.3346666 75.1895892,62.3346666 C75.1895892,43.3346666 78.6521586,28.0122127 60.6521586,10.2317905 Z"/>
  </defs>
  <g fill="none" fill-rule="evenodd">
    <mask id="icon-globe-b" fill="#fff">
      <use xlink:href="#icon-globe-a"/>
    </mask>
    <use fill="#FFF" fill-opacity=".2" xlink:href="#icon-globe-a"/>
    <g fill="#56A1EE" mask="url(#icon-globe-b)" opacity=".2">
      <rect width="76" height="78"/>
    </g>
    <g fill-rule="nonzero" transform="translate(14 12)">
      <path fill="#52565C" d="M54.1988189,29.6976378 C52.7480315,28.8929134 51.351378,28.0440945 49.976378,27.1622047 C50.0088583,26.5889764 50.0413386,26.0267717 50.0413386,25.4645669 C50.0413386,11.4204724 38.8248031,-3.13310183e-15 25.0314961,-3.13310183e-15 C11.2273622,-3.13310183e-15 0,11.4314961 0,25.4755906 C0,39.519685 11.2273622,50.9401575 25.0206693,50.9401575 C27.6515748,50.9401575 30.2283465,50.5212598 32.6860236,49.7165354 C35.4468504,52.1968504 39.0413386,54.511811 41.0984252,55.7685039 C41.6072835,56.0661417 42.1269685,56.0661417 42.6574803,55.7685039 C46.3818898,53.5417323 55,47.919685 55,44.0503937 L55,31.0645669 C55,30.5023622 54.6968504,29.9732283 54.1988189,29.6976378 Z M17.1604331,4.60787402 C15.7746063,6.41574803 14.5944882,8.70866142 13.6742126,11.3543307 L8.00098425,11.3543307 C10.4045276,8.35590551 13.5551181,6.01889764 17.1604331,4.60787402 Z M5.91141732,14.4629921 L12.7431102,14.4629921 C12.0285433,17.3401575 11.5846457,20.5259843 11.476378,23.9212598 L3.11811024,23.9212598 C3.34547244,20.503937 4.33070866,17.296063 5.91141732,14.4629921 Z M5.91141732,36.4771654 C4.33070866,33.6551181 3.34547244,30.4472441 3.11811024,27.0299213 L11.4872047,27.0299213 C11.5954724,30.4141732 12.0285433,33.6 12.7431102,36.4771654 L5.91141732,36.4771654 Z M8.00098425,39.5858268 L13.6742126,39.5858268 C14.5944882,42.2314961 15.7854331,44.5244094 17.1604331,46.3433071 C13.5551181,44.9322835 10.4045276,42.584252 8.00098425,39.5858268 Z M23.4940945,47.5889764 C20.8956693,46.7401575 18.5679134,43.7858268 16.9438976,39.5968504 L23.4940945,39.5968504 L23.4940945,47.5889764 Z M23.4940945,36.4771654 L15.9261811,36.4771654 C15.1466535,33.6330709 14.6594488,30.4251969 14.5403543,27.0299213 L23.4940945,27.0299213 L23.4940945,36.4771654 Z M23.4940945,23.9212598 L14.5403543,23.9212598 C14.6594488,20.5259843 15.1466535,17.3070866 15.9261811,14.4629921 L23.4940945,14.4629921 L23.4940945,23.9212598 Z M23.4940945,11.3543307 L16.9438976,11.3543307 C18.5787402,7.16535433 20.8956693,4.21102362 23.4940945,3.36220472 L23.4940945,11.3543307 Z M44.1190945,14.4629921 C45.6998031,17.2850394 46.6850394,20.4929134 46.9232283,23.9212598 L45.2667323,23.9212598 C44.4655512,23.3149606 43.6643701,22.6976378 42.8956693,22.0692913 C42.3326772,21.6062992 41.5423228,21.6062992 40.9793307,22.0692913 C40.2106299,22.6976378 39.4202756,23.3149606 38.6082677,23.9212598 L38.5541339,23.9212598 C38.4458661,20.5370079 38.0127953,17.3511811 37.2982283,14.4629921 L44.1190945,14.4629921 Z M42.0295276,11.3543307 L36.367126,11.3543307 C35.4468504,8.70866142 34.2559055,6.41574803 32.8809055,4.59685039 C36.4862205,6.00787402 39.636811,8.35590551 42.0295276,11.3543307 Z M26.5472441,3.36220472 C29.1456693,4.21102362 31.4625984,7.16535433 33.0866142,11.3543307 L26.5472441,11.3543307 L26.5472441,3.36220472 L26.5472441,3.36220472 Z M26.5472441,14.4629921 L34.1043307,14.4629921 C34.8838583,17.3070866 35.371063,20.5149606 35.4901575,23.9212598 L26.5472441,23.9212598 L26.5472441,14.4629921 L26.5472441,14.4629921 Z M26.5472441,47.5779528 L26.5472441,39.5968504 L28.875,39.5968504 L28.875,44.0503937 C28.875,44.5905512 29.0482283,45.1527559 29.3405512,45.7480315 C28.5935039,46.4976378 27.6515748,47.2031496 26.5472441,47.5779528 Z M28.875,31.0645669 L28.875,36.4771654 L26.5472441,36.4771654 L26.5472441,27.0299213 L34.1151575,27.0299213 C32.6751969,27.9559055 31.2027559,28.8598425 29.6761811,29.6976378 C29.1889764,29.9732283 28.875,30.5023622 28.875,31.0645669 Z M51.9468504,44.0503937 C51.8927165,45.3622047 47.2805118,49.2755906 41.8996063,52.6267717 C36.5620079,49.2645669 31.9931102,45.3622047 31.9389764,44.0503937 L31.9389764,31.9905512 C35.5009843,29.9732283 38.8572835,27.7133858 41.9429134,25.2661417 C45.0285433,27.7133858 48.3956693,29.9732283 51.9468504,31.9905512 L51.9468504,44.0503937 L51.9468504,44.0503937 Z"/>
      <path fill="#6A44FF" d="M48.6771654,34.0850394 C48.0816929,33.4787402 47.1181102,33.4787402 46.511811,34.0850394 L40.3622047,40.3464567 L37.363189,37.2929134 C36.7677165,36.6866142 35.8041339,36.6866142 35.1978346,37.2929134 C34.6023622,37.8992126 34.6023622,38.880315 35.1978346,39.4976378 L39.2795276,43.6535433 C39.8858268,44.2488189 40.8169291,44.2708661 41.4448819,43.6535433 L48.6771654,36.2897638 C49.2726378,35.6724409 49.2726378,34.6913386 48.6771654,34.0850394 Z"/>
    </g>
  </g>
</svg>
