<svg xmlns="http://www.w3.org/2000/svg" xmlns:xlink="http://www.w3.org/1999/xlink" width="76" height="78" viewBox="0 0 76 78">
  <defs>
    <path id="icon-plug-backend-a" d="M60.6521586,10.2317905 C42.6521586,-7.54863177 27.3200407,0.537677283 24.6521586,14.0838212 C21.9842765,27.6299652 -2.79876327,30.3346666 0.261187502,46.3346666 C3.32113827,62.3346666 36.6521586,52.8346666 36.6521586,67.3346666 C36.6521586,81.8346666 75.1895892,81.3346666 75.1895892,62.3346666 C75.1895892,43.3346666 78.6521586,28.0122127 60.6521586,10.2317905 Z"/>
  </defs>
  <g fill="none" fill-rule="evenodd">
    <mask id="icon-plug-backend-b" fill="#fff">
      <use xlink:href="#icon-plug-backend-a"/>
    </mask>
    <use fill="#FFF" fill-opacity=".2" xlink:href="#icon-plug-backend-a"/>
    <g fill="#56A1EE" mask="url(#icon-plug-backend-b)" opacity=".2">
      <rect width="76" height="78"/>
    </g>
    <g fill-rule="nonzero" transform="translate(16 11)">
      <path fill="#52565C" d="M54.359375,49.4375 L32.6396875,49.4375 C32.1445469,48.0414375 31.0366875,46.9335781 29.640625,46.4384375 L29.640625,42.65625 L44.40625,42.65625 C47.1201719,42.65625 49.328125,40.4482969 49.328125,37.734375 L49.328125,31.171875 C49.328125,29.9122031 48.8519062,28.762125 48.0708594,27.890625 C48.8520156,27.019125 49.328125,25.8690469 49.328125,24.609375 L49.328125,18.046875 C49.328125,16.7872031 48.8519062,15.637125 48.0708594,14.765625 C48.8520156,13.894125 49.328125,12.7440469 49.328125,11.484375 L49.328125,4.921875 C49.328125,2.20795312 47.1201719,0 44.40625,0 L11.59375,0 C8.87982812,0 6.671875,2.20795312 6.671875,4.921875 L6.671875,11.484375 C6.671875,12.7440469 7.14809375,13.894125 7.92914063,14.765625 C7.14809375,15.637125 6.671875,16.7872031 6.671875,18.046875 L6.671875,24.609375 C6.671875,25.8690469 7.14809375,27.019125 7.92914063,27.890625 C7.14809375,28.762125 6.671875,29.9122031 6.671875,31.171875 L6.671875,37.734375 C6.671875,40.4482969 8.87982812,42.65625 11.59375,42.65625 L26.359375,42.65625 L26.359375,46.4384375 C24.9633125,46.9335781 23.8554531,48.0414375 23.3603125,49.4375 L1.640625,49.4375 C0.7345625,49.4375 0,50.1720625 0,51.078125 C0,51.9841875 0.7345625,52.71875 1.640625,52.71875 L23.3603125,52.71875 C24.0375625,54.6283281 25.8611719,56 28,56 C30.1388281,56 31.9624375,54.6283281 32.6396875,52.71875 L54.359375,52.71875 C55.2654375,52.71875 56,51.9841875 56,51.078125 C56,50.1720625 55.2654375,49.4375 54.359375,49.4375 Z M9,4.36523438 C9,3.53813438 9.73407273,2.86523438 10.6363636,2.86523438 L45.3040661,2.86523438 C46.206357,2.86523438 46.9404297,3.53813438 46.9404297,4.36523438 L46.9404297,11.4404297 C46.9404297,12.2675297 46.206357,12.9404297 45.3040661,12.9404297 L10.6363636,12.9404297 C9.73407273,12.9404297 9,12.2675297 9,11.4404297 L9,4.36523438 Z M9,17.5 C9,16.6729 9.73407273,16 10.6363636,16 L45.3040661,16 C46.206357,16 46.9404297,16.6729 46.9404297,17.5 L46.9404297,24.7998047 C46.9404297,25.6269047 46.206357,26.2998047 45.3040661,26.2998047 L10.6363636,26.2998047 C9.73407273,26.2998047 9,25.6269047 9,24.7998047 L9,17.5 Z M10.6363636,40.0952148 C9.73407273,40.0952148 9,39.4223148 9,38.5952148 L9,30.5 C9,29.6729 9.73407273,29 10.6363636,29 L45.3040661,29 C46.206357,29 46.9404297,29.6729 46.9404297,30.5 L46.9404297,38.5952148 C46.9404297,39.4223148 46.206357,40.0952148 45.3040661,40.0952148 L10.6363636,40.0952148 Z M27.9702148,53 C26.8674148,53 25.9702148,52.1028 25.9702148,51 C25.9702148,49.8972 26.8674148,49 27.9702148,49 C29.0730148,49 29.9702148,49.8972 29.9702148,51 C29.9702148,52.1028 29.0730148,53 27.9702148,53 Z"/>
      <path fill="#52565C" d="M28.2,6 L13.8,6 C12.80592,6 12,6.89546667 12,8 C12,9.10453333 12.80592,10 13.8,10 L28.2,10 C29.19408,10 30,9.10453333 30,8 C30,6.89546667 29.19408,6 28.2,6 Z"/>
      <path fill="#6A44FF" d="M28.2,19 L13.8,19 C12.80592,19 12,19.8954667 12,21 C12,22.1045333 12.80592,23 13.8,23 L28.2,23 C29.19408,23 30,22.1045333 30,21 C30,19.8954667 29.19408,19 28.2,19 Z"/>
      <path fill="#52565C" d="M28.2,33 L13.8,33 C12.80592,33 12,33.8954667 12,35 C12,36.1045333 12.80592,37 13.8,37 L28.2,37 C29.19408,37 30,36.1045333 30,35 C30,33.8954667 29.19408,33 28.2,33 Z"/>
      <circle cx="35" cy="8" r="2" fill="#52565C"/>
      <circle cx="35" cy="21" r="2" fill="#6A44FF"/>
      <circle cx="42" cy="8" r="2" fill="#52565C"/>
      <circle cx="42" cy="21" r="2" fill="#6A44FF"/>
      <circle cx="35" cy="35" r="2" fill="#52565C"/>
      <circle cx="42" cy="35" r="2" fill="#52565C"/>
    </g>
  </g>
</svg>
