<svg xmlns="http://www.w3.org/2000/svg" xmlns:xlink="http://www.w3.org/1999/xlink" width="74" height="81" viewBox="0 0 74 81">
  <defs>
    <path id="icon-search-a" d="M60.6521586,10.2317905 C42.6521586,-7.54863177 27.3200407,0.537677283 24.6521586,14.0838212 C21.9842765,27.6299652 -2.79876327,30.3346666 0.261187502,46.3346666 C3.32113827,62.3346666 36.6521586,52.8346666 36.6521586,67.3346666 C36.6521586,81.8346666 75.1895892,81.3346666 75.1895892,62.3346666 C75.1895892,43.3346666 78.6521586,28.0122127 60.6521586,10.2317905 Z"/>
  </defs>
  <g fill="none" fill-rule="evenodd" transform="translate(-16 -18)">
    <g transform="rotate(30 19.376 73.99)">
      <mask id="icon-search-b" fill="#fff">
        <use xlink:href="#icon-search-a"/>
      </mask>
      <use fill="#FFF" fill-opacity=".2" xlink:href="#icon-search-a"/>
      <g fill="#56A1EE" mask="url(#icon-search-b)" opacity=".2">
        <rect width="76" height="78"/>
      </g>
    </g>
    <g fill-rule="nonzero" transform="translate(29 29)">
      <path fill="#52565C" d="M54.8052632,51.5631579 L42.0105263,38.7684211 C45.3105263,34.7157895 47.3368421,29.5631579 47.3368421,23.9473684 C47.3368421,11.0368421 36.8578947,0.5 23.9473684,0.5 C11.0368421,0.5 0.5,11.0368421 0.5,23.9473684 C0.5,36.8578947 11.0368421,47.3368421 23.9473684,47.3368421 C29.5631579,47.3368421 34.7736842,45.3105263 38.7684211,42.0105263 L51.5631579,54.8052632 C52.0263158,55.2684211 52.6052632,55.5 53.1842105,55.5 C53.7631579,55.5 54.3421053,55.2684211 54.8052632,54.8052632 C55.7315789,53.9368421 55.7315789,52.4315789 54.8052632,51.5631579 Z M3.91842105,23.9492377 C3.91842105,12.9168802 12.9168802,3.91842105 23.9492377,3.91842105 C34.9815952,3.91842105 43.9184211,12.9168802 43.9184211,23.9492377 C43.9184211,34.9815952 34.9815952,43.9184211 23.9492377,43.9184211 C12.9168802,43.9184211 3.91842105,34.9815952 3.91842105,23.9492377 Z"/>
      <path fill="#6A44FF" d="M34.164557,21 L11.778481,21 C10.5253165,21 9.5,22.125 9.5,23.5 C9.5,24.875 10.5253165,26 11.778481,26 L34.221519,26 C35.4746835,26 36.5,24.875 36.5,23.5 C36.5,22.125 35.4177215,21 34.164557,21 Z"/>
      <path fill="#52565C" d="M30.2557756 30L17.7442244 30C16.509901 30 15.5 31.125 15.5 32.5 15.5 33.875 16.509901 35 17.7442244 35L30.2557756 35C31.490099 35 32.5 33.875 32.5 32.5 32.5 31.125 31.490099 30 30.2557756 30zM17.7442244 17L30.2557756 17C31.490099 17 32.5 15.875 32.5 14.5 32.5 13.125 31.490099 12 30.2557756 12L17.7442244 12C16.509901 12 15.5 13.125 15.5 14.5 15.5 15.875 16.509901 17 17.7442244 17z"/>
    </g>
  </g>
</svg>
