<svg version="1.1" viewBox="0.0 0.0 816.0 652.8005249343832" fill="none" stroke="none" stroke-linecap="square" stroke-miterlimit="10" xmlns:xlink="http://www.w3.org/1999/xlink" xmlns="http://www.w3.org/2000/svg"><clipPath id="p.0"><path d="m0 0l816.0 0l0 652.80054l-816.0 0l0 -652.80054z" clip-rule="nonzero"/></clipPath><g clip-path="url(#p.0)"><path fill="#000000" fill-opacity="0.0" d="m0 0l816.0 0l0 652.80054l-816.0 0z" fill-rule="evenodd"/><path fill="#cfe2f3" d="m277.7102 416.19144l0 0c0 -25.947754 21.03479 -46.982544 46.982544 -46.982544l439.67267 0c12.460571 0 24.410767 4.9499207 33.22168 13.760864c8.810974 8.810944 13.760864 20.761139 13.760864 33.22168l0 187.92465c0 25.947754 -21.03479 46.982544 -46.982544 46.982544l-439.67267 0c-25.947754 0 -46.982544 -21.03479 -46.982544 -46.982544z" fill-rule="evenodd"/><path stroke="#000000" stroke-width="1.0" stroke-linejoin="round" stroke-linecap="butt" d="m277.7102 416.19144l0 0c0 -25.947754 21.03479 -46.982544 46.982544 -46.982544l439.67267 0c12.460571 0 24.410767 4.9499207 33.22168 13.760864c8.810974 8.810944 13.760864 20.761139 13.760864 33.22168l0 187.92465c0 25.947754 -21.03479 46.982544 -46.982544 46.982544l-439.67267 0c-25.947754 0 -46.982544 -21.03479 -46.982544 -46.982544z" fill-rule="evenodd"/><path fill="#000000" d="m479.1709 396.07376l0 -13.359375l1.78125 0l0 6.625l6.625 -6.625l2.390625 0l-5.59375 5.421875l5.84375 7.9375l-2.328125 0l-4.765625 -6.765625l-2.171875 2.140625l0 4.625l-1.78125 0zm18.943573 -3.109375l1.6875 0.203125q-0.40625 1.484375 -1.484375 2.3125q-1.078125 0.8125 -2.765625 0.8125q-2.125 0 -3.375 -1.296875q-1.234375 -1.3125 -1.234375 -3.671875q0 -2.453125 1.25 -3.796875q1.265625 -1.34375 3.265625 -1.34375q1.9375 0 3.15625 1.328125q1.234375 1.3125 1.234375 3.703125q0 0.15625 0 0.4375l-7.21875 0q0.09375 1.59375 0.90625 2.453125q0.8125 0.84375 2.015625 0.84375q0.90625 0 1.546875 -0.46875q0.640625 -0.484375 1.015625 -1.515625zm-5.390625 -2.65625l5.40625 0q-0.109375 -1.21875 -0.625 -1.828125q-0.78125 -0.953125 -2.03125 -0.953125q-1.125 0 -1.90625 0.765625q-0.765625 0.75 -0.84375 2.015625zm9.063232 9.484375l-0.1875 -1.53125q0.546875 0.140625 0.9375 0.140625q0.546875 0 0.875 -0.1875q0.328125 -0.171875 0.546875 -0.5q0.15625 -0.25 0.5 -1.21875q0.046875 -0.140625 0.140625 -0.40625l-3.671875 -9.6875l1.765625 0l2.015625 5.59375q0.390625 1.078125 0.703125 2.25q0.28125 -1.125 0.671875 -2.203125l2.078125 -5.640625l1.640625 0l-3.6875 9.828125q-0.59375 1.609375 -0.921875 2.203125q-0.4375 0.8125 -1.0 1.1875q-0.5625 0.375 -1.34375 0.375q-0.484375 0 -1.0625 -0.203125zm8.171875 -3.484375l3.8749695 -13.8125l1.3125 0l-3.8593445 13.8125l-1.328125 0zm10.433319 -0.234375l-5.171875 -13.359375l1.921875 0l3.46875 9.703125q0.421875 1.171875 0.703125 2.1875q0.3125 -1.09375 0.71875 -2.1875l3.609375 -9.703125l1.796875 0l-5.234375 13.359375l-1.8125 0zm13.35498 -1.1875q-0.921875 0.765625 -1.765625 1.09375q-0.828125 0.3125 -1.796875 0.3125q-1.59375 0 -2.453125 -0.78125q-0.859375 -0.78125 -0.859375 -1.984375q0 -0.71875 0.328125 -1.296875q0.328125 -0.59375 0.84375 -0.9375q0.53125 -0.359375 1.1875 -0.546875q0.46875 -0.125 1.453125 -0.25q1.984375 -0.234375 2.921875 -0.5625q0.015625 -0.34375 0.015625 -0.421875q0 -1.0 -0.46875 -1.421875q-0.625 -0.546875 -1.875 -0.546875q-1.15625 0 -1.703125 0.40625q-0.546875 0.40625 -0.8125 1.421875l-1.609375 -0.21875q0.21875 -1.015625 0.71875 -1.640625q0.5 -0.640625 1.453125 -0.984375q0.953125 -0.34375 2.1875 -0.34375q1.25 0 2.015625 0.296875q0.78125 0.28125 1.140625 0.734375q0.375 0.4375 0.515625 1.109375q0.078125 0.421875 0.078125 1.515625l0 2.1875q0 2.28125 0.109375 2.890625q0.109375 0.59375 0.40625 1.15625l-1.703125 0q-0.265625 -0.515625 -0.328125 -1.1875zm-0.140625 -3.671875q-0.890625 0.375 -2.671875 0.625q-1.015625 0.140625 -1.4375 0.328125q-0.421875 0.1875 -0.65625 0.53125q-0.21875 0.34375 -0.21875 0.78125q0 0.65625 0.5 1.09375q0.5 0.4375 1.453125 0.4375q0.9375 0 1.671875 -0.40625q0.75 -0.421875 1.09375 -1.140625q0.265625 -0.5625 0.265625 -1.640625l0 -0.609375zm4.1569824 4.859375l0 -13.359375l1.640625 0l0 13.359375l-1.640625 0zm10.519836 0l0 -1.421875q-1.125 1.640625 -3.0625 1.640625q-0.859375 0 -1.609375 -0.328125q-0.734375 -0.328125 -1.09375 -0.828125q-0.359375 -0.5 -0.5 -1.21875q-0.109375 -0.46875 -0.109375 -1.53125l0 -5.984375l1.640625 0l0 5.359375q0 1.28125 0.109375 1.734375q0.15625 0.640625 0.65625 1.015625q0.5 0.375 1.234375 0.375q0.734375 0 1.375 -0.375q0.65625 -0.390625 0.921875 -1.03125q0.265625 -0.65625 0.265625 -1.890625l0 -5.1875l1.640625 0l0 9.671875l-1.46875 0zm10.672607 -3.109375l1.6875 0.203125q-0.40625 1.484375 -1.484375 2.3125q-1.078125 0.8125 -2.765625 0.8125q-2.125 0 -3.375 -1.296875q-1.234375 -1.3125 -1.234375 -3.671875q0 -2.453125 1.25 -3.796875q1.265625 -1.34375 3.265625 -1.34375q1.9375 0 3.15625 1.328125q1.234375 1.3125 1.234375 3.703125q0 0.15625 0 0.4375l-7.21875 0q0.09375 1.59375 0.90625 2.453125q0.8125 0.84375 2.015625 0.84375q0.90625 0 1.546875 -0.46875q0.640625 -0.484375 1.015625 -1.515625zm-5.390625 -2.65625l5.40625 0q-0.109375 -1.21875 -0.625 -1.828125q-0.78125 -0.953125 -2.03125 -0.953125q-1.125 0 -1.90625 0.765625q-0.765625 0.75 -0.84375 2.015625zm13.934021 1.46875l1.65625 -0.140625q0.125 1.0 0.546875 1.640625q0.4375 0.640625 1.34375 1.046875q0.921875 0.390625 2.0625 0.390625q1.0 0 1.78125 -0.296875q0.78125 -0.296875 1.15625 -0.8125q0.375 -0.53125 0.375 -1.15625q0 -0.625 -0.375 -1.09375q-0.359375 -0.46875 -1.1875 -0.796875q-0.546875 -0.203125 -2.390625 -0.640625q-1.828125 -0.453125 -2.5625 -0.84375q-0.96875 -0.5 -1.4375 -1.234375q-0.46875 -0.75 -0.46875 -1.671875q0 -1.0 0.578125 -1.875q0.578125 -0.890625 1.671875 -1.34375q1.109375 -0.453125 2.453125 -0.453125q1.484375 0 2.609375 0.484375q1.140625 0.46875 1.75 1.40625q0.609375 0.921875 0.65625 2.09375l-1.6875 0.125q-0.140625 -1.265625 -0.9375 -1.90625q-0.78125 -0.65625 -2.3125 -0.65625q-1.609375 0 -2.34375 0.59375q-0.734375 0.59375 -0.734375 1.421875q0 0.71875 0.53125 1.171875q0.5 0.46875 2.65625 0.96875q2.15625 0.484375 2.953125 0.84375q1.171875 0.53125 1.71875 1.359375q0.5625 0.828125 0.5625 1.90625q0 1.0625 -0.609375 2.015625q-0.609375 0.9375 -1.75 1.46875q-1.140625 0.515625 -2.578125 0.515625q-1.8125 0 -3.046875 -0.53125q-1.21875 -0.53125 -1.921875 -1.59375q-0.6875 -1.0625 -0.71875 -2.40625zm16.412292 2.828125l0.234375 1.453125q-0.6875 0.140625 -1.234375 0.140625q-0.890625 0 -1.390625 -0.28125q-0.484375 -0.28125 -0.6875 -0.734375q-0.203125 -0.46875 -0.203125 -1.9375l0 -5.578125l-1.203125 0l0 -1.265625l1.203125 0l0 -2.390625l1.625 -0.984375l0 3.375l1.65625 0l0 1.265625l-1.65625 0l0 5.671875q0 0.6875 0.078125 0.890625q0.09375 0.203125 0.28125 0.328125q0.203125 0.109375 0.578125 0.109375q0.265625 0 0.71875 -0.0625zm0.9958496 -3.375q0 -2.6875 1.484375 -3.96875q1.25 -1.078125 3.046875 -1.078125q2.0 0 3.265625 1.3125q1.265625 1.296875 1.265625 3.609375q0 1.859375 -0.5625 2.9375q-0.5625 1.0625 -1.640625 1.65625q-1.0625 0.59375 -2.328125 0.59375q-2.03125 0 -3.28125 -1.296875q-1.25 -1.3125 -1.25 -3.765625zm1.6875 0q0 1.859375 0.796875 2.796875q0.8125 0.921875 2.046875 0.921875q1.21875 0 2.03125 -0.921875q0.8125 -0.9375 0.8125 -2.84375q0 -1.796875 -0.8125 -2.71875q-0.8125 -0.921875 -2.03125 -0.921875q-1.234375 0 -2.046875 0.921875q-0.796875 0.90625 -0.796875 2.765625zm9.281921 4.84375l0 -9.671875l1.46875 0l0 1.46875q0.5625 -1.03125 1.03125 -1.359375q0.484375 -0.328125 1.0625 -0.328125q0.828125 0 1.6875 0.53125l-0.5625 1.515625q-0.609375 -0.359375 -1.203125 -0.359375q-0.546875 0 -0.96875 0.328125q-0.421875 0.328125 -0.609375 0.890625q-0.28125 0.875 -0.28125 1.921875l0 5.0625l-1.625 0zm12.8533325 -3.109375l1.6875 0.203125q-0.40625 1.484375 -1.484375 2.3125q-1.078125 0.8125 -2.765625 0.8125q-2.125 0 -3.375 -1.296875q-1.234375 -1.3125 -1.234375 -3.671875q0 -2.453125 1.25 -3.796875q1.265625 -1.34375 3.265625 -1.34375q1.9375 0 3.15625 1.328125q1.234375 1.3125 1.234375 3.703125q0 0.15625 0 0.4375l-7.21875 0q0.09375 1.59375 0.90625 2.453125q0.8125 0.84375 2.015625 0.84375q0.90625 0 1.546875 -0.46875q0.640625 -0.484375 1.015625 -1.515625zm-5.390625 -2.65625l5.40625 0q-0.109375 -1.21875 -0.625 -1.828125q-0.78125 -0.953125 -2.03125 -0.953125q-1.125 0 -1.90625 0.765625q-0.765625 0.75 -0.84375 2.015625z" fill-rule="nonzero"/><path fill="#efefef" d="m3.2272532 1.9306654l808.126 0l0 84.062996l-808.126 0z" fill-rule="evenodd"/><path stroke="#000000" stroke-width="1.0" stroke-linejoin="round" stroke-linecap="butt" d="m3.2272532 1.9306654l808.126 0l0 84.062996l-808.126 0z" fill-rule="evenodd"/><path fill="#000000" d="m325.9504 50.882156l0 -13.359375l4.609375 0q1.546875 0 2.375 0.203125q1.140625 0.25 1.953125 0.953125q1.0625 0.890625 1.578125 2.28125q0.53125 1.390625 0.53125 3.171875q0 1.515625 -0.359375 2.703125q-0.359375 1.171875 -0.921875 1.9375q-0.546875 0.765625 -1.203125 1.21875q-0.65625 0.4375 -1.59375 0.671875q-0.9375 0.21875 -2.140625 0.21875l-4.828125 0zm1.765625 -1.578125l2.859375 0q1.3125 0 2.0625 -0.234375q0.75 -0.25 1.203125 -0.703125q0.625 -0.625 0.96875 -1.6875q0.359375 -1.0625 0.359375 -2.578125q0 -2.09375 -0.6875 -3.21875q-0.6875 -1.125 -1.671875 -1.5q-0.703125 -0.28125 -2.28125 -0.28125l-2.8125 0l0 10.203125zm17.816711 0.390625q-0.921875 0.765625 -1.765625 1.09375q-0.828125 0.3125 -1.796875 0.3125q-1.59375 0 -2.453125 -0.78125q-0.859375 -0.78125 -0.859375 -1.984375q0 -0.71875 0.328125 -1.296875q0.328125 -0.59375 0.84375 -0.9375q0.53125 -0.359375 1.1875 -0.546875q0.46875 -0.125 1.453125 -0.25q1.984375 -0.234375 2.921875 -0.5625q0.015625 -0.34375 0.015625 -0.421875q0 -1.0 -0.46875 -1.421875q-0.625 -0.546875 -1.875 -0.546875q-1.15625 0 -1.703125 0.40625q-0.546875 0.40625 -0.8125 1.421875l-1.609375 -0.21875q0.21875 -1.015625 0.71875 -1.640625q0.5 -0.640625 1.453125 -0.984375q0.953125 -0.34375 2.1875 -0.34375q1.25 0 2.015625 0.296875q0.78125 0.28125 1.140625 0.734375q0.375 0.4375 0.515625 1.109375q0.078125 0.421875 0.078125 1.515625l0 2.1875q0 2.28125 0.109375 2.890625q0.109375 0.59375 0.40625 1.15625l-1.703125 0q-0.265625 -0.515625 -0.328125 -1.1875zm-0.140625 -3.671875q-0.890625 0.375 -2.671875 0.625q-1.015625 0.140625 -1.4375 0.328125q-0.421875 0.1875 -0.65625 0.53125q-0.21875 0.34375 -0.21875 0.78125q0 0.65625 0.5 1.09375q0.5 0.4375 1.453125 0.4375q0.9375 0 1.671875 -0.40625q0.75 -0.421875 1.09375 -1.140625q0.265625 -0.5625 0.265625 -1.640625l0 -0.609375zm7.781952 3.390625l0.234375 1.453125q-0.6875 0.140625 -1.234375 0.140625q-0.890625 0 -1.390625 -0.28125q-0.484375 -0.28125 -0.6875 -0.734375q-0.203125 -0.46875 -0.203125 -1.9375l0 -5.578125l-1.203125 0l0 -1.265625l1.203125 0l0 -2.390625l1.625 -0.984375l0 3.375l1.65625 0l0 1.265625l-1.65625 0l0 5.671875q0 0.6875 0.078125 0.890625q0.09375 0.203125 0.28125 0.328125q0.203125 0.109375 0.578125 0.109375q0.265625 0 0.71875 -0.0625zm7.917694 0.28125q-0.921875 0.765625 -1.765625 1.09375q-0.828125 0.3125 -1.796875 0.3125q-1.59375 0 -2.453125 -0.78125q-0.859375 -0.78125 -0.859375 -1.984375q0 -0.71875 0.328125 -1.296875q0.328125 -0.59375 0.84375 -0.9375q0.53125 -0.359375 1.1875 -0.546875q0.46875 -0.125 1.453125 -0.25q1.984375 -0.234375 2.921875 -0.5625q0.015625 -0.34375 0.015625 -0.421875q0 -1.0 -0.46875 -1.421875q-0.625 -0.546875 -1.875 -0.546875q-1.15625 0 -1.703125 0.40625q-0.546875 0.40625 -0.8125 1.421875l-1.609375 -0.21875q0.21875 -1.015625 0.71875 -1.640625q0.5 -0.640625 1.453125 -0.984375q0.953125 -0.34375 2.1875 -0.34375q1.25 0 2.015625 0.296875q0.78125 0.28125 1.140625 0.734375q0.375 0.4375 0.515625 1.109375q0.078125 0.421875 0.078125 1.515625l0 2.1875q0 2.28125 0.109375 2.890625q0.109375 0.59375 0.40625 1.15625l-1.703125 0q-0.265625 -0.515625 -0.328125 -1.1875zm-0.140625 -3.671875q-0.890625 0.375 -2.671875 0.625q-1.015625 0.140625 -1.4375 0.328125q-0.421875 0.1875 -0.65625 0.53125q-0.21875 0.34375 -0.21875 0.78125q0 0.65625 0.5 1.09375q0.5 0.4375 1.453125 0.4375q0.9375 0 1.671875 -0.40625q0.75 -0.421875 1.09375 -1.140625q0.265625 -0.5625 0.265625 -1.640625l0 -0.609375zm9.590271 4.859375l0 -13.359375l4.609375 0q1.546875 0 2.375 0.203125q1.140625 0.25 1.953125 0.953125q1.0625 0.890625 1.578125 2.28125q0.53125 1.390625 0.53125 3.171875q0 1.515625 -0.359375 2.703125q-0.359375 1.171875 -0.921875 1.9375q-0.546875 0.765625 -1.203125 1.21875q-0.65625 0.4375 -1.59375 0.671875q-0.9375 0.21875 -2.140625 0.21875l-4.828125 0zm1.765625 -1.578125l2.859375 0q1.3125 0 2.0625 -0.234375q0.75 -0.25 1.203125 -0.703125q0.625 -0.625 0.96875 -1.6875q0.359375 -1.0625 0.359375 -2.578125q0 -2.09375 -0.6875 -3.21875q-0.6875 -1.125 -1.671875 -1.5q-0.703125 -0.28125 -2.28125 -0.28125l-2.8125 0l0 10.203125zm11.504181 -9.890625l0 -1.890625l1.640625 0l0 1.890625l-1.640625 0zm0 11.46875l0 -9.671875l1.640625 0l0 9.671875l-1.640625 0zm3.488556 -2.890625l1.625 -0.25q0.125 0.96875 0.75 1.5q0.625 0.515625 1.75 0.515625q1.125 0 1.671875 -0.453125q0.546875 -0.46875 0.546875 -1.09375q0 -0.546875 -0.484375 -0.875q-0.328125 -0.21875 -1.671875 -0.546875q-1.8125 -0.46875 -2.515625 -0.796875q-0.6875 -0.328125 -1.046875 -0.90625q-0.359375 -0.59375 -0.359375 -1.3125q0 -0.640625 0.296875 -1.1875q0.296875 -0.5625 0.8125 -0.921875q0.375 -0.28125 1.03125 -0.46875q0.671875 -0.203125 1.421875 -0.203125q1.140625 0 2.0 0.328125q0.859375 0.328125 1.265625 0.890625q0.421875 0.5625 0.578125 1.5l-1.609375 0.21875q-0.109375 -0.75 -0.640625 -1.171875q-0.515625 -0.421875 -1.46875 -0.421875q-1.140625 0 -1.625 0.375q-0.46875 0.375 -0.46875 0.875q0 0.3125 0.1875 0.578125q0.203125 0.265625 0.640625 0.4375q0.234375 0.09375 1.4375 0.421875q1.75 0.453125 2.4375 0.75q0.6875 0.296875 1.078125 0.859375q0.390625 0.5625 0.390625 1.40625q0 0.828125 -0.484375 1.546875q-0.46875 0.71875 -1.375 1.125q-0.90625 0.390625 -2.046875 0.390625q-1.875 0 -2.875 -0.78125q-0.984375 -0.78125 -1.25 -2.328125zm16.296875 -0.65625l1.609375 0.21875q-0.265625 1.65625 -1.359375 2.609375q-1.078125 0.9375 -2.671875 0.9375q-1.984375 0 -3.1875 -1.296875q-1.203125 -1.296875 -1.203125 -3.71875q0 -1.578125 0.515625 -2.75q0.515625 -1.171875 1.578125 -1.75q1.0625 -0.59375 2.3125 -0.59375q1.578125 0 2.578125 0.796875q1.0 0.796875 1.28125 2.265625l-1.59375 0.234375q-0.234375 -0.96875 -0.8125 -1.453125q-0.578125 -0.5 -1.390625 -0.5q-1.234375 0 -2.015625 0.890625q-0.78125 0.890625 -0.78125 2.8125q0 1.953125 0.75 2.84375q0.75 0.875 1.953125 0.875q0.96875 0 1.609375 -0.59375q0.65625 -0.59375 0.828125 -1.828125zm2.40625 -1.296875q0 -2.6875 1.484375 -3.96875q1.25 -1.078125 3.046875 -1.078125q2.0 0 3.265625 1.3125q1.265625 1.296875 1.265625 3.609375q0 1.859375 -0.5625 2.9375q-0.5625 1.0625 -1.640625 1.65625q-1.0625 0.59375 -2.328125 0.59375q-2.03125 0 -3.28125 -1.296875q-1.25 -1.3125 -1.25 -3.765625zm1.6875 0q0 1.859375 0.796875 2.796875q0.8125 0.921875 2.046875 0.921875q1.21875 0 2.03125 -0.921875q0.8125 -0.9375 0.8125 -2.84375q0 -1.796875 -0.8125 -2.71875q-0.8125 -0.921875 -2.03125 -0.921875q-1.234375 0 -2.046875 0.921875q-0.796875 0.90625 -0.796875 2.765625zm11.985107 4.84375l-3.6875 -9.671875l1.734375 0l2.078125 5.796875q0.328125 0.9375 0.625 1.9375q0.203125 -0.765625 0.609375 -1.828125l2.140625 -5.90625l1.6875 0l-3.65625 9.671875l-1.53125 0zm13.265625 -3.109375l1.6875 0.203125q-0.40625 1.484375 -1.484375 2.3125q-1.078125 0.8125 -2.765625 0.8125q-2.125 0 -3.375 -1.296875q-1.234375 -1.3125 -1.234375 -3.671875q0 -2.453125 1.25 -3.796875q1.265625 -1.34375 3.265625 -1.34375q1.9375 0 3.15625 1.328125q1.234375 1.3125 1.234375 3.703125q0 0.15625 0 0.4375l-7.21875 0q0.09375 1.59375 0.90625 2.453125q0.8125 0.84375 2.015625 0.84375q0.90625 0 1.546875 -0.46875q0.640625 -0.484375 1.015625 -1.515625zm-5.390625 -2.65625l5.40625 0q-0.109375 -1.21875 -0.625 -1.828125q-0.78125 -0.953125 -2.03125 -0.953125q-1.125 0 -1.90625 0.765625q-0.765625 0.75 -0.84375 2.015625zm9.125732 5.765625l0 -9.671875l1.46875 0l0 1.46875q0.5625 -1.03125 1.03125 -1.359375q0.484375 -0.328125 1.0625 -0.328125q0.828125 0 1.6875 0.53125l-0.5625 1.515625q-0.609375 -0.359375 -1.203125 -0.359375q-0.546875 0 -0.96875 0.328125q-0.421875 0.328125 -0.609375 0.890625q-0.28125 0.875 -0.28125 1.921875l0 5.0625l-1.625 0zm6.1501465 3.71875l-0.1875 -1.53125q0.546875 0.140625 0.9375 0.140625q0.546875 0 0.875 -0.1875q0.328125 -0.171875 0.546875 -0.5q0.15625 -0.25 0.5 -1.21875q0.046875 -0.140625 0.140625 -0.40625l-3.671875 -9.6875l1.765625 0l2.015625 5.59375q0.390625 1.078125 0.703125 2.25q0.28125 -1.125 0.671875 -2.203125l2.078125 -5.640625l1.640625 0l-3.6875 9.828125q-0.59375 1.609375 -0.921875 2.203125q-0.4375 0.8125 -1.0 1.1875q-0.5625 0.375 -1.34375 0.375q-0.484375 0 -1.0625 -0.203125zm17.861694 -3.71875l0 -11.78125l-4.40625 0l0 -1.578125l10.578125 0l0 1.578125l-4.40625 0l0 11.78125l-1.765625 0zm5.1082153 -4.84375q0 -2.6875 1.484375 -3.96875q1.25 -1.078125 3.046875 -1.078125q2.0 0 3.265625 1.3125q1.265625 1.296875 1.265625 3.609375q0 1.859375 -0.5625 2.9375q-0.5625 1.0625 -1.640625 1.65625q-1.0625 0.59375 -2.328125 0.59375q-2.03125 0 -3.28125 -1.296875q-1.25 -1.3125 -1.25 -3.765625zm1.6875 0q0 1.859375 0.796875 2.796875q0.8125 0.921875 2.046875 0.921875q1.21875 0 2.03125 -0.921875q0.8125 -0.9375 0.8125 -2.84375q0 -1.796875 -0.8125 -2.71875q-0.8125 -0.921875 -2.03125 -0.921875q-1.234375 0 -2.046875 0.921875q-0.796875 0.90625 -0.796875 2.765625zm8.688232 0q0 -2.6875 1.484375 -3.96875q1.25 -1.078125 3.046875 -1.078125q2.0 0 3.265625 1.3125q1.265625 1.296875 1.265625 3.609375q0 1.859375 -0.5625 2.9375q-0.5625 1.0625 -1.640625 1.65625q-1.0625 0.59375 -2.328125 0.59375q-2.03125 0 -3.28125 -1.296875q-1.25 -1.3125 -1.25 -3.765625zm1.6875 0q0 1.859375 0.796875 2.796875q0.8125 0.921875 2.046875 0.921875q1.21875 0 2.03125 -0.921875q0.8125 -0.9375 0.8125 -2.84375q0 -1.796875 -0.8125 -2.71875q-0.8125 -0.921875 -2.03125 -0.921875q-1.234375 0 -2.046875 0.921875q-0.796875 0.90625 -0.796875 2.765625zm9.250732 4.84375l0 -13.359375l1.640625 0l0 13.359375l-1.640625 0z" fill-rule="nonzero"/><path fill="#3c78d8" d="m117.043526 159.02313l0 0c0 -16.45581 13.340065 -29.795883 29.795876 -29.795883l634.70746 0c7.9023438 0 15.481018 3.139206 21.068848 8.72702c5.5878296 5.587799 8.72699 13.166504 8.72699 21.068863l0 119.1799c0 16.45581 -13.340027 29.795868 -29.795837 29.795868l-634.70746 0c-16.45581 0 -29.795876 -13.340057 -29.795876 -29.795868z" fill-rule="evenodd"/><path stroke="#000000" stroke-width="1.0" stroke-linejoin="round" stroke-linecap="butt" d="m117.043526 159.02313l0 0c0 -16.45581 13.340065 -29.795883 29.795876 -29.795883l634.70746 0c7.9023438 0 15.481018 3.139206 21.068848 8.72702c5.5878296 5.587799 8.72699 13.166504 8.72699 21.068863l0 119.1799c0 16.45581 -13.340027 29.795868 -29.795837 29.795868l-634.70746 0c-16.45581 0 -29.795876 -13.340057 -29.795876 -29.795868z" fill-rule="evenodd"/><path fill="#ffffff" d="m440.45096 227.87996q2.109375 1.453125 3.890625 2.125l-0.890625 2.109375q-2.46875 -0.890625 -4.921875 -2.8125q-2.546875 1.421875 -5.625 1.421875q-3.109375 0 -5.640625 -1.5q-2.53125 -1.5 -3.90625 -4.21875q-1.359375 -2.71875 -1.359375 -6.125q0 -3.390625 1.375 -6.171875q1.375 -2.78125 3.90625 -4.234375q2.546875 -1.453125 5.6875 -1.453125q3.171875 0 5.71875 1.515625q2.546875 1.5 3.875 4.21875q1.34375 2.703125 1.34375 6.109375q0 2.828125 -0.859375 5.09375q-0.859375 2.25 -2.59375 3.921875zm-6.671875 -3.875q2.625 0.734375 4.328125 2.1875q2.671875 -2.4375 2.671875 -7.328125q0 -2.78125 -0.953125 -4.859375q-0.9375 -2.078125 -2.765625 -3.21875q-1.8125 -1.15625 -4.078125 -1.15625q-3.390625 0 -5.625 2.328125q-2.234375 2.3125 -2.234375 6.921875q0 4.46875 2.203125 6.859375q2.21875 2.390625 5.65625 2.390625q1.625 0 3.0625 -0.609375q-1.421875 -0.921875 -3.0 -1.3125l0.734375 -2.203125zm24.71875 6.328125l0 -2.4375q-1.9375 2.8125 -5.265625 2.8125q-1.46875 0 -2.75 -0.5625q-1.265625 -0.5625 -1.890625 -1.40625q-0.609375 -0.859375 -0.859375 -2.09375q-0.171875 -0.828125 -0.171875 -2.625l0 -10.28125l2.8125 0l0 9.203125q0 2.203125 0.171875 2.96875q0.265625 1.109375 1.125 1.75q0.859375 0.625 2.125 0.625q1.265625 0 2.375 -0.640625q1.109375 -0.65625 1.5625 -1.765625q0.46875 -1.125 0.46875 -3.25l0 -8.890625l2.8125 0l0 16.59375l-2.515625 0zm18.28125 -5.34375l2.90625 0.359375q-0.6875 2.546875 -2.546875 3.953125q-1.859375 1.40625 -4.75 1.40625q-3.640625 0 -5.78125 -2.234375q-2.125 -2.25 -2.125 -6.296875q0 -4.1875 2.15625 -6.5q2.15625 -2.3125 5.59375 -2.3125q3.328125 0 5.4375 2.265625q2.109375 2.265625 2.109375 6.375q0 0.25 -0.015625 0.75l-12.375 0q0.15625 2.734375 1.546875 4.1875q1.390625 1.453125 3.46875 1.453125q1.546875 0 2.640625 -0.8125q1.09375 -0.8125 1.734375 -2.59375zm-9.234375 -4.546875l9.265625 0q-0.1875 -2.09375 -1.0625 -3.140625q-1.34375 -1.625 -3.484375 -1.625q-1.9375 0 -3.265625 1.296875q-1.3125 1.296875 -1.453125 3.46875zm15.640625 9.890625l0 -16.59375l2.53125 0l0 2.515625q0.96875 -1.765625 1.78125 -2.328125q0.828125 -0.5625 1.8125 -0.5625q1.421875 0 2.890625 0.90625l-0.96875 2.609375q-1.03125 -0.609375 -2.0625 -0.609375q-0.921875 0 -1.65625 0.5625q-0.734375 0.546875 -1.046875 1.53125q-0.46875 1.5 -0.46875 3.28125l0 8.6875l-2.8125 0zm10.5625 6.390625l-0.3125 -2.640625q0.921875 0.25 1.609375 0.25q0.9375 0 1.5 -0.3125q0.5625 -0.3125 0.921875 -0.875q0.265625 -0.421875 0.859375 -2.09375q0.078125 -0.234375 0.25 -0.6875l-6.296875 -16.625l3.03125 0l3.453125 9.609375q0.671875 1.828125 1.203125 3.84375q0.484375 -1.9375 1.15625 -3.78125l3.546875 -9.671875l2.8125 0l-6.3125 16.875q-1.015625 2.734375 -1.578125 3.765625q-0.75 1.390625 -1.71875 2.03125q-0.96875 0.65625 -2.3125 0.65625q-0.8125 0 -1.8125 -0.34375z" fill-rule="nonzero"/><path fill="#1155cc" d="m428.0527 457.12094l0 0c0 -19.11615 42.615814 -34.612854 95.18503 -34.612854c52.569275 0 95.18506 15.496704 95.18506 34.612854l0 138.45145c0 19.11615 -42.615784 34.612854 -95.18506 34.612854c-52.569214 0 -95.18503 -15.496704 -95.18503 -34.612854z" fill-rule="evenodd"/><path fill="#000000" fill-opacity="0.0" d="m618.4228 457.12094l0 0c0 19.11618 -42.615784 34.612885 -95.18506 34.612885c-52.569214 0 -95.18503 -15.496704 -95.18503 -34.612885" fill-rule="evenodd"/><path fill="#000000" fill-opacity="0.0" d="m428.0527 457.12094l0 0c0 -19.11615 42.615814 -34.612854 95.18503 -34.612854c52.569275 0 95.18506 15.496704 95.18506 34.612854l0 138.45145c0 19.11615 -42.615784 34.612854 -95.18506 34.612854c-52.569214 0 -95.18503 -15.496704 -95.18503 -34.612854z" fill-rule="evenodd"/><path stroke="#000000" stroke-width="1.0" stroke-linejoin="round" stroke-linecap="butt" d="m618.4228 457.12094l0 0c0 19.11618 -42.615784 34.612885 -95.18506 34.612885c-52.569214 0 -95.18503 -15.496704 -95.18503 -34.612885" fill-rule="evenodd"/><path stroke="#000000" stroke-width="1.0" stroke-linejoin="round" stroke-linecap="butt" d="m428.0527 457.12094l0 0c0 -19.11615 42.615814 -34.612854 95.18503 -34.612854c52.569275 0 95.18506 15.496704 95.18506 34.612854l0 138.45145c0 19.11615 -42.615784 34.612854 -95.18506 34.612854c-52.569214 0 -95.18503 -15.496704 -95.18503 -34.612854z" fill-rule="evenodd"/><path fill="#ffffff" d="m469.48163 462.57312l0 -13.359375l1.765625 0l0 13.359375l-1.765625 0zm4.6832886 0l0 -9.671875l1.46875 0l0 1.375q1.0625 -1.59375 3.078125 -1.59375q0.875 0 1.609375 0.3125q0.734375 0.3125 1.09375 0.828125q0.375 0.5 0.515625 1.203125q0.09375 0.453125 0.09375 1.59375l0 5.953125l-1.640625 0l0 -5.890625q0 -1.0 -0.203125 -1.484375q-0.1875 -0.5 -0.671875 -0.796875q-0.484375 -0.296875 -1.140625 -0.296875q-1.046875 0 -1.8125 0.671875q-0.75 0.65625 -0.75 2.515625l0 5.28125l-1.640625 0zm16.641357 0l0 -1.21875q-0.90625 1.4375 -2.703125 1.4375q-1.15625 0 -2.125 -0.640625q-0.96875 -0.640625 -1.5 -1.78125q-0.53125 -1.140625 -0.53125 -2.625q0 -1.453125 0.484375 -2.625q0.484375 -1.1875 1.4375 -1.8125q0.96875 -0.625 2.171875 -0.625q0.875 0 1.546875 0.375q0.6875 0.359375 1.109375 0.953125l0 -4.796875l1.640625 0l0 13.359375l-1.53125 0zm-5.171875 -4.828125q0 1.859375 0.78125 2.78125q0.78125 0.921875 1.84375 0.921875q1.078125 0 1.828125 -0.875q0.75 -0.890625 0.75 -2.6875q0 -1.984375 -0.765625 -2.90625q-0.765625 -0.9375 -1.890625 -0.9375q-1.078125 0 -1.8125 0.890625q-0.734375 0.890625 -0.734375 2.8125zm15.906952 1.71875l1.6875 0.203125q-0.40625 1.484375 -1.484375 2.3125q-1.078125 0.8125 -2.765625 0.8125q-2.125 0 -3.375 -1.296875q-1.234375 -1.3125 -1.234375 -3.671875q0 -2.453125 1.25 -3.796875q1.265625 -1.34375 3.265625 -1.34375q1.9375 0 3.15625 1.328125q1.234375 1.3125 1.234375 3.703125q0 0.15625 0 0.4375l-7.21875 0q0.09375 1.59375 0.90625 2.453125q0.8125 0.84375 2.015625 0.84375q0.90625 0 1.546875 -0.46875q0.640625 -0.484375 1.015625 -1.515625zm-5.390625 -2.65625l5.40625 0q-0.109375 -1.21875 -0.625 -1.828125q-0.78125 -0.953125 -2.03125 -0.953125q-1.125 0 -1.90625 0.765625q-0.765625 0.75 -0.84375 2.015625zm8.047607 5.765625l3.53125 -5.03125l-3.265625 -4.640625l2.046875 0l1.484375 2.265625q0.421875 0.640625 0.671875 1.078125q0.40625 -0.59375 0.734375 -1.0625l1.640625 -2.28125l1.9530945 0l-3.3437195 4.546875l3.5937195 5.125l-2.0155945 0l-1.984375 -3.0l-0.515625 -0.8125l-2.546875 3.8125l-1.984375 0zm17.046844 -3.109375l1.6875 0.203125q-0.40625 1.484375 -1.484375 2.3125q-1.078125 0.8125 -2.765625 0.8125q-2.125 0 -3.375 -1.296875q-1.234375 -1.3125 -1.234375 -3.671875q0 -2.453125 1.25 -3.796875q1.265625 -1.34375 3.265625 -1.34375q1.9375 0 3.15625 1.328125q1.234375 1.3125 1.234375 3.703125q0 0.15625 0 0.4375l-7.21875 0q0.09375 1.59375 0.90625 2.453125q0.8125 0.84375 2.015625 0.84375q0.90625 0 1.546875 -0.46875q0.640625 -0.484375 1.015625 -1.515625zm-5.390625 -2.65625l5.40625 0q-0.109375 -1.21875 -0.625 -1.828125q-0.78125 -0.953125 -2.03125 -0.953125q-1.125 0 -1.90625 0.765625q-0.765625 0.75 -0.84375 2.015625zm15.406982 5.765625l0 -1.21875q-0.90625 1.4375 -2.703125 1.4375q-1.15625 0 -2.125 -0.640625q-0.96875 -0.640625 -1.5 -1.78125q-0.53125 -1.140625 -0.53125 -2.625q0 -1.453125 0.484375 -2.625q0.484375 -1.1875 1.4375 -1.8125q0.96875 -0.625 2.171875 -0.625q0.875 0 1.546875 0.375q0.6875 0.359375 1.109375 0.953125l0 -4.796875l1.640625 0l0 13.359375l-1.53125 0zm-5.171875 -4.828125q0 1.859375 0.78125 2.78125q0.78125 0.921875 1.84375 0.921875q1.078125 0 1.828125 -0.875q0.75 -0.890625 0.75 -2.6875q0 -1.984375 -0.765625 -2.90625q-0.765625 -0.9375 -1.890625 -0.9375q-1.078125 0 -1.8125 0.890625q-0.734375 0.890625 -0.734375 2.8125zm14.668396 4.828125l0 -13.359375l4.609375 0q1.546875 0 2.375 0.203125q1.140625 0.25 1.953125 0.953125q1.0625 0.890625 1.578125 2.28125q0.53125 1.390625 0.53125 3.171875q0 1.515625 -0.359375 2.703125q-0.359375 1.171875 -0.921875 1.9375q-0.546875 0.765625 -1.203125 1.21875q-0.65625 0.4375 -1.59375 0.671875q-0.9375 0.21875 -2.140625 0.21875l-4.828125 0zm1.765625 -1.578125l2.859375 0q1.3125 0 2.0625 -0.234375q0.75 -0.25 1.203125 -0.703125q0.625 -0.625 0.96875 -1.6875q0.359375 -1.0625 0.359375 -2.578125q0 -2.09375 -0.6875 -3.21875q-0.6875 -1.125 -1.671875 -1.5q-0.703125 -0.28125 -2.28125 -0.28125l-2.8125 0l0 10.203125zm17.816711 0.390625q-0.921875 0.765625 -1.765625 1.09375q-0.828125 0.3125 -1.796875 0.3125q-1.59375 0 -2.453125 -0.78125q-0.859375 -0.78125 -0.859375 -1.984375q0 -0.71875 0.328125 -1.296875q0.328125 -0.59375 0.84375 -0.9375q0.53125 -0.359375 1.1875 -0.546875q0.46875 -0.125 1.453125 -0.25q1.984375 -0.234375 2.921875 -0.5625q0.015625 -0.34375 0.015625 -0.421875q0 -1.0 -0.46875 -1.421875q-0.625 -0.546875 -1.875 -0.546875q-1.15625 0 -1.703125 0.40625q-0.546875 0.40625 -0.8125 1.421875l-1.609375 -0.21875q0.21875 -1.015625 0.71875 -1.640625q0.5 -0.640625 1.453125 -0.984375q0.953125 -0.34375 2.1875 -0.34375q1.25 0 2.015625 0.296875q0.78125 0.28125 1.140625 0.734375q0.375 0.4375 0.515625 1.109375q0.078125 0.421875 0.078125 1.515625l0 2.1875q0 2.28125 0.109375 2.890625q0.109375 0.59375 0.40625 1.15625l-1.703125 0q-0.265625 -0.515625 -0.328125 -1.1875zm-0.140625 -3.671875q-0.890625 0.375 -2.671875 0.625q-1.015625 0.140625 -1.4375 0.328125q-0.421875 0.1875 -0.65625 0.53125q-0.21875 0.34375 -0.21875 0.78125q0 0.65625 0.5 1.09375q0.5 0.4375 1.453125 0.4375q0.9375 0 1.671875 -0.40625q0.75 -0.421875 1.09375 -1.140625q0.265625 -0.5625 0.265625 -1.640625l0 -0.609375zm7.7819824 3.390625l0.234375 1.453125q-0.6875 0.140625 -1.234375 0.140625q-0.890625 0 -1.390625 -0.28125q-0.484375 -0.28125 -0.6875 -0.734375q-0.203125 -0.46875 -0.203125 -1.9375l0 -5.578125l-1.203125 0l0 -1.265625l1.203125 0l0 -2.390625l1.625 -0.984375l0 3.375l1.65625 0l0 1.265625l-1.65625 0l0 5.671875q0 0.6875 0.078125 0.890625q0.09375 0.203125 0.28125 0.328125q0.203125 0.109375 0.578125 0.109375q0.265625 0 0.71875 -0.0625zm7.9176636 0.28125q-0.921875 0.765625 -1.765625 1.09375q-0.828125 0.3125 -1.796875 0.3125q-1.59375 0 -2.453125 -0.78125q-0.859375 -0.78125 -0.859375 -1.984375q0 -0.71875 0.328125 -1.296875q0.328125 -0.59375 0.84375 -0.9375q0.53125 -0.359375 1.1875 -0.546875q0.46875 -0.125 1.453125 -0.25q1.984375 -0.234375 2.921875 -0.5625q0.015625 -0.34375 0.015625 -0.421875q0 -1.0 -0.46875 -1.421875q-0.625 -0.546875 -1.875 -0.546875q-1.15625 0 -1.703125 0.40625q-0.546875 0.40625 -0.8125 1.421875l-1.609375 -0.21875q0.21875 -1.015625 0.71875 -1.640625q0.5 -0.640625 1.453125 -0.984375q0.953125 -0.34375 2.1875 -0.34375q1.25 0 2.015625 0.296875q0.78125 0.28125 1.140625 0.734375q0.375 0.4375 0.515625 1.109375q0.078125 0.421875 0.078125 1.515625l0 2.1875q0 2.28125 0.109375 2.890625q0.109375 0.59375 0.40625 1.15625l-1.703125 0q-0.265625 -0.515625 -0.328125 -1.1875zm-0.140625 -3.671875q-0.890625 0.375 -2.671875 0.625q-1.015625 0.140625 -1.4375 0.328125q-0.421875 0.1875 -0.65625 0.53125q-0.21875 0.34375 -0.21875 0.78125q0 0.65625 0.5 1.09375q0.5 0.4375 1.453125 0.4375q0.9375 0 1.671875 -0.40625q0.75 -0.421875 1.09375 -1.140625q0.265625 -0.5625 0.265625 -1.640625l0 -0.609375z" fill-rule="nonzero"/><path fill="#3c78d8" d="m428.72858 497.7102l189.7008 0l0 6.015747l-189.7008 0z" fill-rule="evenodd"/><path stroke="#000000" stroke-width="1.0" stroke-linejoin="round" stroke-linecap="butt" d="m428.72858 497.7102l189.7008 0l0 6.015747l-189.7008 0z" fill-rule="evenodd"/><path fill="#6aa84f" d="m428.72858 503.72595l189.7008 0l0 6.015747l-189.7008 0z" fill-rule="evenodd"/><path stroke="#000000" stroke-width="1.0" stroke-linejoin="round" stroke-linecap="butt" d="m428.72858 503.72595l189.7008 0l0 6.015747l-189.7008 0z" fill-rule="evenodd"/><path fill="#6aa84f" d="m428.72858 509.7417l189.7008 0l0 6.015747l-189.7008 0z" fill-rule="evenodd"/><path stroke="#000000" stroke-width="1.0" stroke-linejoin="round" stroke-linecap="butt" d="m428.72858 509.7417l189.7008 0l0 6.015747l-189.7008 0z" fill-rule="evenodd"/><path fill="#6aa84f" d="m428.72858 515.75745l189.7008 0l0 6.015747l-189.7008 0z" fill-rule="evenodd"/><path stroke="#000000" stroke-width="1.0" stroke-linejoin="round" stroke-linecap="butt" d="m428.72858 515.75745l189.7008 0l0 6.015747l-189.7008 0z" fill-rule="evenodd"/><path fill="#3c78d8" d="m428.72858 521.7732l189.7008 0l0 6.015747l-189.7008 0z" fill-rule="evenodd"/><path stroke="#000000" stroke-width="1.0" stroke-linejoin="round" stroke-linecap="butt" d="m428.72858 521.7732l189.7008 0l0 6.015747l-189.7008 0z" fill-rule="evenodd"/><path fill="#3c78d8" d="m428.72858 527.78894l189.7008 0l0 6.015747l-189.7008 0z" fill-rule="evenodd"/><path stroke="#000000" stroke-width="1.0" stroke-linejoin="round" stroke-linecap="butt" d="m428.72858 527.78894l189.7008 0l0 6.015747l-189.7008 0z" fill-rule="evenodd"/><path fill="#3c78d8" d="m428.72858 533.8047l189.7008 0l0 6.015747l-189.7008 0z" fill-rule="evenodd"/><path stroke="#000000" stroke-width="1.0" stroke-linejoin="round" stroke-linecap="butt" d="m428.72858 533.8047l189.7008 0l0 6.015747l-189.7008 0z" fill-rule="evenodd"/><path fill="#6aa84f" d="m428.72858 539.82043l189.7008 0l0 6.015747l-189.7008 0z" fill-rule="evenodd"/><path stroke="#000000" stroke-width="1.0" stroke-linejoin="round" stroke-linecap="butt" d="m428.72858 539.82043l189.7008 0l0 6.015747l-189.7008 0z" fill-rule="evenodd"/><path fill="#6aa84f" d="m428.72858 545.8362l189.7008 0l0 6.015747l-189.7008 0z" fill-rule="evenodd"/><path stroke="#000000" stroke-width="1.0" stroke-linejoin="round" stroke-linecap="butt" d="m428.72858 545.8362l189.7008 0l0 6.015747l-189.7008 0z" fill-rule="evenodd"/><path fill="#6aa84f" d="m428.72858 551.8519l189.7008 0l0 6.015747l-189.7008 0z" fill-rule="evenodd"/><path stroke="#000000" stroke-width="1.0" stroke-linejoin="round" stroke-linecap="butt" d="m428.72858 551.8519l189.7008 0l0 6.015747l-189.7008 0z" fill-rule="evenodd"/><path fill="#6aa84f" d="m428.72858 557.8677l189.7008 0l0 6.015747l-189.7008 0z" fill-rule="evenodd"/><path stroke="#000000" stroke-width="1.0" stroke-linejoin="round" stroke-linecap="butt" d="m428.72858 557.8677l189.7008 0l0 6.015747l-189.7008 0z" fill-rule="evenodd"/><path fill="#3c78d8" d="m428.72858 563.8834l189.7008 0l0 6.015747l-189.7008 0z" fill-rule="evenodd"/><path stroke="#000000" stroke-width="1.0" stroke-linejoin="round" stroke-linecap="butt" d="m428.72858 563.8834l189.7008 0l0 6.015747l-189.7008 0z" fill-rule="evenodd"/><path fill="#3c78d8" d="m428.38736 569.8992l189.70078 0l0 6.015747l-189.70078 0z" fill-rule="evenodd"/><path stroke="#000000" stroke-width="1.0" stroke-linejoin="round" stroke-linecap="butt" d="m428.38736 569.8992l189.70078 0l0 6.015747l-189.70078 0z" fill-rule="evenodd"/><path fill="#3c78d8" d="m428.38736 575.9149l189.70078 0l0 6.015747l-189.70078 0z" fill-rule="evenodd"/><path stroke="#000000" stroke-width="1.0" stroke-linejoin="round" stroke-linecap="butt" d="m428.38736 575.9149l189.70078 0l0 6.015747l-189.70078 0z" fill-rule="evenodd"/><path fill="#6aa84f" d="m428.38736 581.93066l189.70078 0l0 6.015747l-189.70078 0z" fill-rule="evenodd"/><path stroke="#000000" stroke-width="1.0" stroke-linejoin="round" stroke-linecap="butt" d="m428.38736 581.93066l189.70078 0l0 6.015747l-189.70078 0z" fill-rule="evenodd"/><path fill="#3c78d8" d="m428.38736 587.9464l189.70078 0l0 6.015747l-189.70078 0z" fill-rule="evenodd"/><path stroke="#000000" stroke-width="1.0" stroke-linejoin="round" stroke-linecap="butt" d="m428.38736 587.9464l189.70078 0l0 6.015747l-189.70078 0z" fill-rule="evenodd"/><path fill="#000000" fill-opacity="0.0" d="m618.4294 521.77185l14.488159 0" fill-rule="evenodd"/><path stroke="#000000" stroke-width="1.0" stroke-linejoin="round" stroke-linecap="butt" d="m618.4294 521.77185l14.488159 0" fill-rule="evenodd"/><path fill="#000000" fill-opacity="0.0" d="m618.4294 539.8112l14.488159 0" fill-rule="evenodd"/><path stroke="#000000" stroke-width="1.0" stroke-linejoin="round" stroke-linecap="butt" d="m618.4294 539.8112l14.488159 0" fill-rule="evenodd"/><path fill="#000000" fill-opacity="0.0" d="m618.4294 563.8821l14.488159 0" fill-rule="evenodd"/><path stroke="#000000" stroke-width="1.0" stroke-linejoin="round" stroke-linecap="butt" d="m618.4294 563.8821l14.488159 0" fill-rule="evenodd"/><path fill="#000000" fill-opacity="0.0" d="m618.4294 581.9294l14.488159 0" fill-rule="evenodd"/><path stroke="#000000" stroke-width="1.0" stroke-linejoin="round" stroke-linecap="butt" d="m618.4294 581.9294l14.488159 0" fill-rule="evenodd"/><path fill="#000000" fill-opacity="0.0" d="m618.4294 587.9451l14.488159 0" fill-rule="evenodd"/><path stroke="#000000" stroke-width="1.0" stroke-linejoin="round" stroke-linecap="butt" d="m618.4294 587.9451l14.488159 0" fill-rule="evenodd"/><path fill="#000000" fill-opacity="0.0" d="m632.7286 503.48972l0 18.48819" fill-rule="evenodd"/><path stroke="#000000" stroke-width="1.0" stroke-linejoin="round" stroke-linecap="butt" d="m632.7286 503.48972l0 18.48819" fill-rule="evenodd"/><path fill="#000000" fill-opacity="0.0" d="m618.4294 503.7325l14.488159 0" fill-rule="evenodd"/><path stroke="#000000" stroke-width="1.0" stroke-linejoin="round" stroke-linecap="butt" d="m618.4294 503.7325l14.488159 0" fill-rule="evenodd"/><path fill="#000000" fill-opacity="0.0" d="m632.7286 539.48975l0 24.598389" fill-rule="evenodd"/><path stroke="#000000" stroke-width="1.0" stroke-linejoin="round" stroke-linecap="butt" d="m632.7286 539.48975l0 24.598389" fill-rule="evenodd"/><path fill="#000000" fill-opacity="0.0" d="m632.7286 581.991l0 5.984253" fill-rule="evenodd"/><path stroke="#000000" stroke-width="1.0" stroke-linejoin="round" stroke-linecap="butt" d="m632.7286 581.991l0 5.984253" fill-rule="evenodd"/><path fill="#000000" fill-opacity="0.0" d="m632.7286 512.48975l82.99213 0" fill-rule="evenodd"/><path stroke="#000000" stroke-width="1.0" stroke-linejoin="round" stroke-linecap="butt" d="m632.7286 512.48975l82.99213 0" fill-rule="evenodd"/><path fill="#1155cc" d="m666.88605 480.4074l0 0c0 -9.370178 7.5960083 -16.966217 16.966248 -16.966217l67.86279 0l0 0c4.499756 0 8.815186 1.7875061 11.996948 4.9692993c3.1817627 3.1817627 4.9692993 7.4971924 4.9692993 11.996918l0 69.62665c0 9.370178 -7.5960693 16.966187 -16.966248 16.966187l-67.86279 0c-9.370239 0 -16.966248 -7.5960083 -16.966248 -16.966187z" fill-rule="evenodd"/><path stroke="#000000" stroke-width="1.0" stroke-linejoin="round" stroke-linecap="butt" d="m666.88605 480.4074l0 0c0 -9.370178 7.5960083 -16.966217 16.966248 -16.966217l67.86279 0l0 0c4.499756 0 8.815186 1.7875061 11.996948 4.9692993c3.1817627 3.1817627 4.9692993 7.4971924 4.9692993 11.996918l0 69.62665c0 9.370178 -7.5960693 16.966187 -16.966248 16.966187l-67.86279 0c-9.370239 0 -16.966248 -7.5960083 -16.966248 -16.966187z" fill-rule="evenodd"/><path fill="#000000" fill-opacity="0.0" d="m633.22723 551.48975l96.50397 0" fill-rule="evenodd"/><path stroke="#000000" stroke-width="1.0" stroke-linejoin="round" stroke-linecap="butt" d="m633.22723 551.48975l96.50397 0" fill-rule="evenodd"/><path fill="#1155cc" d="m682.88605 507.53363l0 0c0 -9.370178 7.5960083 -16.966217 16.966248 -16.966217l67.86279 0l0 0c4.499756 0 8.815186 1.7875061 11.996948 4.969269c3.1817627 3.1817932 4.9692993 7.497223 4.9692993 11.996948l0 69.62659c0 9.370178 -7.5960693 16.966248 -16.966248 16.966248l-67.86279 0c-9.370239 0 -16.966248 -7.5960693 -16.966248 -16.966248z" fill-rule="evenodd"/><path stroke="#000000" stroke-width="1.0" stroke-linejoin="round" stroke-linecap="butt" d="m682.88605 507.53363l0 0c0 -9.370178 7.5960083 -16.966217 16.966248 -16.966217l67.86279 0l0 0c4.499756 0 8.815186 1.7875061 11.996948 4.969269c3.1817627 3.1817932 4.9692993 7.497223 4.9692993 11.996948l0 69.62659c0 9.370178 -7.5960693 16.966248 -16.966248 16.966248l-67.86279 0c-9.370239 0 -16.966248 -7.5960693 -16.966248 -16.966248z" fill-rule="evenodd"/><path fill="#000000" fill-opacity="0.0" d="m633.22723 584.48975l113.51184 0" fill-rule="evenodd"/><path stroke="#000000" stroke-width="1.0" stroke-linejoin="round" stroke-linecap="butt" d="m633.22723 584.48975l113.51184 0" fill-rule="evenodd"/><path fill="#1155cc" d="m698.88605 534.65985l0 0c0 -9.370178 7.5960083 -16.966248 16.966248 -16.966248l67.86279 0l0 0c4.499756 0 8.815186 1.7875366 11.996948 4.9692993c3.1817627 3.1817627 4.9692993 7.4971924 4.9692993 11.996948l0 69.62659c0 9.370178 -7.5960693 16.966248 -16.966248 16.966248l-67.86279 0c-9.370239 0 -16.966248 -7.5960693 -16.966248 -16.966248z" fill-rule="evenodd"/><path stroke="#000000" stroke-width="1.0" stroke-linejoin="round" stroke-linecap="butt" d="m698.88605 534.65985l0 0c0 -9.370178 7.5960083 -16.966248 16.966248 -16.966248l67.86279 0l0 0c4.499756 0 8.815186 1.7875366 11.996948 4.9692993c3.1817627 3.1817627 4.9692993 7.4971924 4.9692993 11.996948l0 69.62659c0 9.370178 -7.5960693 16.966248 -16.966248 16.966248l-67.86279 0c-9.370239 0 -16.966248 -7.5960693 -16.966248 -16.966248z" fill-rule="evenodd"/><path fill="#ffffff" d="m723.7645 565.3931l0 -13.359375l5.921875 0q1.78125 0 2.703125 0.359375q0.9375 0.359375 1.484375 1.28125q0.5625 0.90625 0.5625 2.015625q0 1.40625 -0.921875 2.390625q-0.921875 0.96875 -2.84375 1.234375q0.703125 0.34375 1.078125 0.671875q0.765625 0.703125 1.453125 1.765625l2.328125 3.640625l-2.21875 0l-1.765625 -2.78125q-0.78125 -1.203125 -1.28125 -1.828125q-0.5 -0.640625 -0.90625 -0.890625q-0.390625 -0.265625 -0.796875 -0.359375q-0.296875 -0.078125 -0.984375 -0.078125l-2.046875 0l0 5.9375l-1.765625 0zm1.765625 -7.453125l3.796875 0q1.21875 0 1.890625 -0.25q0.6875 -0.265625 1.046875 -0.8125q0.359375 -0.546875 0.359375 -1.1875q0 -0.953125 -0.6875 -1.5625q-0.6875 -0.609375 -2.1875 -0.609375l-4.21875 0l0 4.421875zm17.785461 6.265625q-0.921875 0.765625 -1.765625 1.09375q-0.828125 0.3125 -1.796875 0.3125q-1.59375 0 -2.453125 -0.78125q-0.859375 -0.78125 -0.859375 -1.984375q0 -0.71875 0.328125 -1.296875q0.328125 -0.59375 0.84375 -0.9375q0.53125 -0.359375 1.1875 -0.546875q0.46875 -0.125 1.453125 -0.25q1.984375 -0.234375 2.921875 -0.5625q0.015625 -0.34375 0.015625 -0.421875q0 -1.0 -0.46875 -1.421875q-0.625 -0.546875 -1.875 -0.546875q-1.15625 0 -1.703125 0.40625q-0.546875 0.40625 -0.8125 1.421875l-1.609375 -0.21875q0.21875 -1.015625 0.71875 -1.640625q0.5 -0.640625 1.453125 -0.984375q0.953125 -0.34375 2.1875 -0.34375q1.25 0 2.015625 0.296875q0.78125 0.28125 1.140625 0.734375q0.375 0.4375 0.515625 1.109375q0.078125 0.421875 0.078125 1.515625l0 2.1875q0 2.28125 0.109375 2.890625q0.109375 0.59375 0.40625 1.15625l-1.703125 0q-0.265625 -0.515625 -0.328125 -1.1875zm-0.140625 -3.671875q-0.890625 0.375 -2.671875 0.625q-1.015625 0.140625 -1.4375 0.328125q-0.421875 0.1875 -0.65625 0.53125q-0.21875 0.34375 -0.21875 0.78125q0 0.65625 0.5 1.09375q0.5 0.4375 1.453125 0.4375q0.9375 0 1.671875 -0.40625q0.75 -0.421875 1.09375 -1.140625q0.265625 -0.5625 0.265625 -1.640625l0 -0.609375zm4.2037964 4.859375l0 -9.671875l1.46875 0l0 1.375q1.0625 -1.59375 3.078125 -1.59375q0.875 0 1.609375 0.3125q0.734375 0.3125 1.09375 0.828125q0.375 0.5 0.515625 1.203125q0.09375 0.453125 0.09375 1.59375l0 5.953125l-1.640625 0l0 -5.890625q0 -1.0 -0.203125 -1.484375q-0.1875 -0.5 -0.671875 -0.796875q-0.484375 -0.296875 -1.140625 -0.296875q-1.046875 0 -1.8125 0.671875q-0.75 0.65625 -0.75 2.515625l0 5.28125l-1.640625 0zm10.063232 0.796875l1.59375 0.234375q0.109375 0.75 0.5625 1.078125q0.609375 0.453125 1.671875 0.453125q1.140625 0 1.75 -0.453125q0.625 -0.453125 0.84375 -1.265625q0.125 -0.5 0.109375 -2.109375q-1.0625 1.265625 -2.671875 1.265625q-2.0 0 -3.09375 -1.4375q-1.09375 -1.4375 -1.09375 -3.453125q0 -1.390625 0.5 -2.5625q0.515625 -1.171875 1.453125 -1.796875q0.953125 -0.640625 2.25 -0.640625q1.703125 0 2.8125 1.375l0 -1.15625l1.515625 0l0 8.359375q0 2.265625 -0.46875 3.203125q-0.453125 0.9375 -1.453125 1.484375q-0.984375 0.546875 -2.453125 0.546875q-1.71875 0 -2.796875 -0.78125q-1.0625 -0.765625 -1.03125 -2.34375zm1.359375 -5.8125q0 1.90625 0.75 2.78125q0.765625 0.875 1.90625 0.875q1.125 0 1.890625 -0.859375q0.765625 -0.875 0.765625 -2.734375q0 -1.78125 -0.796875 -2.671875q-0.78125 -0.90625 -1.890625 -0.90625q-1.09375 0 -1.859375 0.890625q-0.765625 0.875 -0.765625 2.625zm15.953857 1.90625l1.6875 0.203125q-0.40625 1.484375 -1.484375 2.3125q-1.078125 0.8125 -2.765625 0.8125q-2.125 0 -3.375 -1.296875q-1.234375 -1.3125 -1.234375 -3.671875q0 -2.453125 1.25 -3.796875q1.265625 -1.34375 3.265625 -1.34375q1.9375 0 3.15625 1.328125q1.234375 1.3125 1.234375 3.703125q0 0.15625 0 0.4375l-7.21875 0q0.09375 1.59375 0.90625 2.453125q0.8125 0.84375 2.015625 0.84375q0.90625 0 1.546875 -0.46875q0.640625 -0.484375 1.015625 -1.515625zm-5.390625 -2.65625l5.40625 0q-0.109375 -1.21875 -0.625 -1.828125q-0.78125 -0.953125 -2.03125 -0.953125q-1.125 0 -1.90625 0.765625q-0.765625 0.75 -0.84375 2.015625z" fill-rule="nonzero"/><path fill="#ffffff" d="m735.94434 585.9556q1.234375 0.859375 2.265625 1.25l-0.515625 1.21875q-1.4375 -0.515625 -2.875 -1.625q-1.484375 0.828125 -3.28125 0.828125q-1.8125 0 -3.296875 -0.875q-1.46875 -0.875 -2.265625 -2.453125q-0.796875 -1.59375 -0.796875 -3.578125q0 -1.984375 0.796875 -3.59375q0.8125 -1.625 2.28125 -2.46875q1.484375 -0.859375 3.328125 -0.859375q1.84375 0 3.328125 0.890625q1.484375 0.875 2.265625 2.453125q0.78125 1.578125 0.78125 3.5625q0 1.65625 -0.5 2.96875q-0.5 1.3125 -1.515625 2.28125zm-3.890625 -2.25q1.53125 0.421875 2.515625 1.28125q1.5625 -1.421875 1.5625 -4.28125q0 -1.625 -0.546875 -2.828125q-0.546875 -1.21875 -1.609375 -1.875q-1.0625 -0.671875 -2.390625 -0.671875q-1.96875 0 -3.28125 1.359375q-1.296875 1.34375 -1.296875 4.03125q0 2.59375 1.28125 4.0q1.296875 1.390625 3.296875 1.390625q0.953125 0 1.78125 -0.359375q-0.828125 -0.53125 -1.75 -0.765625l0.4375 -1.28125zm14.402039 3.6875l0 -1.421875q-1.125 1.640625 -3.0625 1.640625q-0.859375 0 -1.609375 -0.328125q-0.734375 -0.328125 -1.09375 -0.828125q-0.359375 -0.5 -0.5 -1.21875q-0.109375 -0.46875 -0.109375 -1.53125l0 -5.984375l1.640625 0l0 5.359375q0 1.28125 0.109375 1.734375q0.15625 0.640625 0.65625 1.015625q0.5 0.375 1.234375 0.375q0.734375 0 1.375 -0.375q0.65625 -0.390625 0.921875 -1.03125q0.265625 -0.65625 0.265625 -1.890625l0 -5.1875l1.640625 0l0 9.671875l-1.46875 0zm10.672607 -3.109375l1.6875 0.203125q-0.40625 1.484375 -1.484375 2.3125q-1.078125 0.8125 -2.765625 0.8125q-2.125 0 -3.375 -1.296875q-1.234375 -1.3125 -1.234375 -3.671875q0 -2.453125 1.25 -3.796875q1.265625 -1.34375 3.265625 -1.34375q1.9375 0 3.15625 1.328125q1.234375 1.3125 1.234375 3.703125q0 0.15625 0 0.4375l-7.21875 0q0.09375 1.59375 0.90625 2.453125q0.8125 0.84375 2.015625 0.84375q0.90625 0 1.546875 -0.46875q0.640625 -0.484375 1.015625 -1.515625zm-5.390625 -2.65625l5.40625 0q-0.109375 -1.21875 -0.625 -1.828125q-0.78125 -0.953125 -2.03125 -0.953125q-1.125 0 -1.90625 0.765625q-0.765625 0.75 -0.84375 2.015625zm9.125732 5.765625l0 -9.671875l1.46875 0l0 1.46875q0.5625 -1.03125 1.03125 -1.359375q0.484375 -0.328125 1.0625 -0.328125q0.828125 0 1.6875 0.53125l-0.5625 1.515625q-0.609375 -0.359375 -1.203125 -0.359375q-0.546875 0 -0.96875 0.328125q-0.421875 0.328125 -0.609375 0.890625q-0.28125 0.875 -0.28125 1.921875l0 5.0625l-1.625 0zm6.1501465 3.71875l-0.1875 -1.53125q0.546875 0.140625 0.9375 0.140625q0.546875 0 0.875 -0.1875q0.328125 -0.171875 0.546875 -0.5q0.15625 -0.25 0.5 -1.21875q0.046875 -0.140625 0.140625 -0.40625l-3.671875 -9.6875l1.765625 0l2.015625 5.59375q0.390625 1.078125 0.703125 2.25q0.28125 -1.125 0.671875 -2.203125l2.078125 -5.640625l1.640625 0l-3.6875 9.828125q-0.59375 1.609375 -0.921875 2.203125q-0.4375 0.8125 -1.0 1.1875q-0.5625 0.375 -1.34375 0.375q-0.484375 0 -1.0625 -0.203125z" fill-rule="nonzero"/><path fill="#000000" fill-opacity="0.0" d="m428.72858 506.73383l-58.48819 0" fill-rule="evenodd"/><path stroke="#000000" stroke-width="3.0" stroke-linejoin="round" stroke-linecap="butt" d="m428.72858 506.73383l-58.48819 0" fill-rule="evenodd"/><path fill="#000000" fill-opacity="0.0" d="m428.72858 518.7653l-316.7874 0" fill-rule="evenodd"/><path stroke="#000000" stroke-width="3.0" stroke-linejoin="round" stroke-linecap="butt" d="m428.72858 518.7653l-316.7874 0" fill-rule="evenodd"/><path fill="#000000" fill-opacity="0.0" d="m428.72858 512.7496l-405.35434 0" fill-rule="evenodd"/><path stroke="#000000" stroke-width="3.0" stroke-linejoin="round" stroke-linecap="butt" d="m428.72858 512.7496l-405.35434 0" fill-rule="evenodd"/><path fill="#000000" fill-opacity="0.0" d="m428.72858 542.8283l-405.35434 0" fill-rule="evenodd"/><path stroke="#000000" stroke-width="3.0" stroke-linejoin="round" stroke-linecap="butt" d="m428.72858 542.8283l-405.35434 0" fill-rule="evenodd"/><path fill="#000000" fill-opacity="0.0" d="m428.72858 548.84406l-406.3622 0" fill-rule="evenodd"/><path stroke="#000000" stroke-width="3.0" stroke-linejoin="round" stroke-linecap="butt" d="m428.72858 548.84406l-406.3622 0" fill-rule="evenodd"/><path fill="#000000" fill-opacity="0.0" d="m428.72858 554.8598l-59.496063 0" fill-rule="evenodd"/><path stroke="#000000" stroke-width="3.0" stroke-linejoin="round" stroke-linecap="butt" d="m428.72858 554.8598l-59.496063 0" fill-rule="evenodd"/><path fill="#000000" fill-opacity="0.0" d="m428.72858 560.87555l-311.68506 0" fill-rule="evenodd"/><path stroke="#000000" stroke-width="3.0" stroke-linejoin="round" stroke-linecap="butt" d="m428.72858 560.87555l-311.68506 0" fill-rule="evenodd"/><path fill="#000000" fill-opacity="0.0" d="m428.38736 584.93854l-306.2677 0" fill-rule="evenodd"/><path stroke="#000000" stroke-width="3.0" stroke-linejoin="round" stroke-linecap="butt" d="m428.38736 584.93854l-306.2677 0" fill-rule="evenodd"/><path fill="#1155cc" d="m374.80963 432.7968l0 0c8.45694 0 15.312622 6.8556824 15.312622 15.312622l0 165.37476c0 4.061157 -1.6132812 7.9559937 -4.484955 10.827637c-2.8716736 2.871704 -6.76651 4.4849854 -10.827667 4.4849854l-61.24875 0c-8.45694 0 -15.312622 -6.855713 -15.312622 -15.312622l0 -165.37476c0 -8.45694 6.8556824 -15.312622 15.312622 -15.312622z" fill-rule="evenodd"/><path stroke="#000000" stroke-width="1.0" stroke-linejoin="round" stroke-linecap="butt" d="m374.80963 432.7968l0 0c8.45694 0 15.312622 6.8556824 15.312622 15.312622l0 165.37476c0 4.061157 -1.6132812 7.9559937 -4.484955 10.827637c-2.8716736 2.871704 -6.76651 4.4849854 -10.827667 4.4849854l-61.24875 0c-8.45694 0 -15.312622 -6.855713 -15.312622 -15.312622l0 -165.37476c0 -8.45694 6.8556824 -15.312622 15.312622 -15.312622z" fill-rule="evenodd"/><path fill="#ffffff" d="m337.26526 452.40323l13.359375 0l0 4.609375q0 1.546875 -0.203125 2.375q-0.25 1.140625 -0.953125 1.953125q-0.890625 1.0625 -2.28125 1.578125q-1.390625 0.53125 -3.171875 0.53125q-1.515625 0 -2.703125 -0.359375q-1.171875 -0.359375 -1.9375 -0.921875q-0.765625 -0.546875 -1.21875 -1.203125q-0.4375 -0.65625 -0.671875 -1.59375q-0.21875 -0.9375 -0.21875 -2.140625l0 -4.828125zm1.578125 1.765625l0 2.859375q0 1.3125 0.234375 2.0625q0.25 0.75 0.703125 1.203125q0.625 0.625 1.6875 0.96875q1.0625 0.359375 2.578125 0.359375q2.09375 0 3.21875 -0.6875q1.125 -0.6875 1.5 -1.671875q0.28125 -0.703125 0.28125 -2.28125l0 -2.8125l-10.203125 0zm9.890625 11.504211l1.890625 0l0 1.640625l-1.890625 0l0 -1.640625zm-11.46875 0l9.671875 0l0 1.640625l-9.671875 0l0 -1.640625zm2.890625 3.488556l0.25 1.625q-0.96875 0.125 -1.5 0.75q-0.515625 0.625 -0.515625 1.75q0 1.125 0.453125 1.671875q0.46875 0.546875 1.09375 0.546875q0.546875 0 0.875 -0.484375q0.21875 -0.328125 0.546875 -1.671875q0.46875 -1.8125 0.796875 -2.515625q0.328125 -0.6875 0.90625 -1.046875q0.59375 -0.359375 1.3125 -0.359375q0.640625 0 1.1875 0.296875q0.5625 0.296875 0.921875 0.8125q0.28125 0.375 0.46875 1.03125q0.203125 0.671875 0.203125 1.421875q0 1.140625 -0.328125 2.0q-0.328125 0.859375 -0.890625 1.265625q-0.5625 0.421875 -1.5 0.578125l-0.21875 -1.609375q0.75 -0.109375 1.171875 -0.640625q0.421875 -0.515625 0.421875 -1.46875q0 -1.140625 -0.375 -1.625q-0.375 -0.46875 -0.875 -0.46875q-0.3125 0 -0.578125 0.1875q-0.265625 0.203125 -0.4375 0.640625q-0.09375 0.234375 -0.421875 1.4375q-0.453125 1.75 -0.75 2.4375q-0.296875 0.6875 -0.859375 1.078125q-0.5625 0.390625 -1.40625 0.390625q-0.828125 0 -1.546875 -0.484375q-0.71875 -0.46875 -1.125 -1.375q-0.390625 -0.90625 -0.390625 -2.046875q0 -1.875 0.78125 -2.875q0.78125 -0.984375 2.328125 -1.25zm-1.421875 13.5625l-1.453125 0.234375q-0.140625 -0.6875 -0.140625 -1.234375q0 -0.890625 0.28125 -1.390625q0.28125 -0.484375 0.734375 -0.6875q0.46875 -0.203125 1.9375 -0.203125l5.578125 0l0 -1.203125l1.265625 0l0 1.203125l2.390625 0l0.984375 1.625l-3.375 0l0 1.65625l-1.265625 0l0 -1.65625l-5.671875 0q-0.6875 0 -0.890625 0.078125q-0.203125 0.09375 -0.328125 0.28125q-0.109375 0.203125 -0.109375 0.578125q0 0.265625 0.0625 0.71875zm-1.46875 1.5895691l9.671875 0l0 1.46875l-1.46875 0q1.03125 0.5625 1.359375 1.03125q0.328125 0.484375 0.328125 1.0625q0 0.828125 -0.53125 1.6875l-1.515625 -0.5625q0.359375 -0.609375 0.359375 -1.203125q0 -0.546875 -0.328125 -0.96875q-0.328125 -0.421875 -0.890625 -0.609375q-0.875 -0.28125 -1.921875 -0.28125l-5.0625 0l0 -1.625zm11.46875 6.228302l1.890625 0l0 1.640625l-1.890625 0l0 -1.640625zm-11.46875 0l9.671875 0l0 1.640625l-9.671875 0l0 -1.640625zm0 5.644806l0 -1.515625l13.359375 0l0 1.640625l-4.765625 0q1.296875 1.046875 1.296875 2.65625q0 0.890625 -0.359375 1.6875q-0.359375 0.796875 -1.015625 1.3125q-0.640625 0.515625 -1.5625 0.796875q-0.921875 0.296875 -1.96875 0.296875q-2.484375 0 -3.84375 -1.234375q-1.359375 -1.21875 -1.359375 -2.953125q0 -1.703125 1.4375 -2.6875l-1.21875 0zm4.90625 -0.015625q-1.734375 0 -2.515625 0.484375q-1.265625 0.765625 -1.265625 2.09375q0 1.078125 0.9375 1.859375q0.9375 0.78125 2.78125 0.78125q1.890625 0 2.796875 -0.75q0.90625 -0.75 0.90625 -1.828125q0 -1.0625 -0.9375 -1.859375q-0.9375 -0.78125 -2.703125 -0.78125zm-4.90625 15.219482l1.421875 0q-1.640625 -1.125 -1.640625 -3.0625q0 -0.859375 0.328125 -1.609375q0.328125 -0.734375 0.828125 -1.09375q0.5 -0.359375 1.21875 -0.5q0.46875 -0.109375 1.53125 -0.109375l5.984375 0l0 1.640625l-5.359375 0q-1.28125 0 -1.734375 0.109375q-0.640625 0.15625 -1.015625 0.65625q-0.375 0.5 -0.375 1.234375q0 0.734375 0.375 1.375q0.390625 0.65625 1.03125 0.921875q0.65625 0.265625 1.890625 0.265625l5.1875 0l0 1.6405945l-9.671875 0l0 -1.4687195zm1.46875 7.625702l-1.453125 0.234375q-0.140625 -0.6875 -0.140625 -1.234375q0 -0.890625 0.28125 -1.390625q0.28125 -0.484375 0.734375 -0.6875q0.46875 -0.203125 1.9375 -0.203125l5.578125 0l0 -1.203125l1.265625 0l0 1.203125l2.390625 0l0.984375 1.625l-3.375 0l0 1.65625l-1.265625 0l0 -1.65625l-5.671875 0q-0.6875 0 -0.890625 0.078125q-0.203125 0.09375 -0.328125 0.28125q-0.109375 0.203125 -0.109375 0.578125q0 0.265625 0.0625 0.71875zm-0.28125 7.9176636q-0.765625 -0.921875 -1.09375 -1.765625q-0.3125 -0.828125 -0.3125 -1.796875q0 -1.59375 0.78125 -2.453125q0.78125 -0.859375 1.984375 -0.859375q0.71875 0 1.296875 0.328125q0.59375 0.328125 0.9375 0.84375q0.359375 0.53125 0.546875 1.1875q0.125 0.46875 0.25 1.453125q0.234375 1.984375 0.5625 2.921875q0.34375 0.015625 0.421875 0.015625q1.0 0 1.421875 -0.46875q0.546875 -0.625 0.546875 -1.875q0 -1.15625 -0.40625 -1.703125q-0.40625 -0.546875 -1.421875 -0.8125l0.21875 -1.609375q1.015625 0.21875 1.640625 0.71875q0.640625 0.5 0.984375 1.453125q0.34375 0.953125 0.34375 2.1875q0 1.25 -0.296875 2.015625q-0.28125 0.78125 -0.734375 1.140625q-0.4375 0.375 -1.109375 0.515625q-0.421875 0.078125 -1.515625 0.078125l-2.1875 0q-2.28125 0 -2.890625 0.109375q-0.59375 0.109375 -1.15625 0.40625l0 -1.703125q0.515625 -0.265625 1.1875 -0.328125zm3.671875 -0.140625q-0.375 -0.890625 -0.625 -2.671875q-0.140625 -1.015625 -0.328125 -1.4375q-0.1875 -0.421875 -0.53125 -0.65625q-0.34375 -0.21875 -0.78125 -0.21875q-0.65625 0 -1.09375 0.5q-0.4375 0.5 -0.4375 1.453125q0 0.9375 0.40625 1.671875q0.421875 0.75 1.140625 1.09375q0.5625 0.265625 1.640625 0.265625l0.609375 0zm-4.859375 5.7038574l0 -1.515625l13.359375 0l0 1.640625l-4.765625 0q1.296875 1.046875 1.296875 2.65625q0 0.890625 -0.359375 1.6875q-0.359375 0.796875 -1.015625 1.3125q-0.640625 0.515625 -1.5625 0.796875q-0.921875 0.296875 -1.96875 0.296875q-2.484375 0 -3.84375 -1.234375q-1.359375 -1.21875 -1.359375 -2.953125q0 -1.703125 1.4375 -2.6875l-1.21875 0zm4.90625 -0.015625q-1.734375 0 -2.515625 0.484375q-1.265625 0.765625 -1.265625 2.09375q0 1.078125 0.9375 1.859375q0.9375 0.78125 2.78125 0.78125q1.890625 0 2.796875 -0.75q0.90625 -0.75 0.90625 -1.828125q0 -1.0625 -0.9375 -1.859375q-0.9375 -0.78125 -2.703125 -0.78125zm-4.90625 8.844482l13.359375 0l0 1.640625l-13.359375 0l0 -1.640625zm3.109375 10.816711l-0.203125 1.6875q-1.484375 -0.40625 -2.3125 -1.484375q-0.8125 -1.078125 -0.8125 -2.765625q0 -2.125 1.296875 -3.375q1.3125 -1.234375 3.671875 -1.234375q2.453125 0 3.796875 1.25q1.34375 1.265625 1.34375 3.265625q0 1.9375 -1.328125 3.15625q-1.3125 1.234375 -3.703125 1.234375q-0.15625 0 -0.4375 0l0 -7.21875q-1.59375 0.09375 -2.453125 0.90625q-0.84375 0.8125 -0.84375 2.015625q0 0.90625 0.46875 1.546875q0.484375 0.640625 1.515625 1.015625zm2.65625 -5.390625l0 5.40625q1.21875 -0.109375 1.828125 -0.625q0.953125 -0.78125 0.953125 -2.03125q0 -1.125 -0.765625 -1.90625q-0.75 -0.765625 -2.015625 -0.84375zm-5.765625 14.621521l13.359375 0l0 9.015625l-1.578125 0l0 -7.25l-4.140625 0l0 6.265625l-1.578125 0l0 -6.265625l-6.0625 0l0 -1.765625zm11.46875 11.09906l1.890625 0l0 1.640625l-1.890625 0l0 -1.640625zm-11.46875 0l9.671875 0l0 1.640625l-9.671875 0l0 -1.640625zm0 4.0979614l13.359375 0l0 1.640625l-13.359375 0l0 -1.640625zm1.46875 7.7698364l-1.453125 0.234375q-0.140625 -0.6875 -0.140625 -1.234375q0 -0.890625 0.28125 -1.390625q0.28125 -0.484375 0.734375 -0.6875q0.46875 -0.203125 1.9375 -0.203125l5.578125 0l0 -1.203125l1.265625 0l0 1.203125l2.390625 0l0.984375 1.625l-3.375 0l0 1.65625l-1.265625 0l0 -1.65625l-5.671875 0q-0.6875 0 -0.890625 0.078125q-0.203125 0.09375 -0.328125 0.28125q-0.109375 0.203125 -0.109375 0.578125q0 0.265625 0.0625 0.71875zm1.640625 8.230164l-0.203125 1.6875q-1.484375 -0.40625 -2.3125 -1.484375q-0.8125 -1.078125 -0.8125 -2.765625q0 -2.125 1.296875 -3.375q1.3125 -1.234375 3.671875 -1.234375q2.453125 0 3.796875 1.25q1.34375 1.265625 1.34375 3.265625q0 1.9375 -1.328125 3.15625q-1.3125 1.234375 -3.703125 1.234375q-0.15625 0 -0.4375 0l0 -7.21875q-1.59375 0.09375 -2.453125 0.90625q-0.84375 0.8125 -0.84375 2.015625q0 0.90625 0.46875 1.546875q0.484375 0.640625 1.515625 1.015625zm2.65625 -5.390625l0 5.40625q1.21875 -0.109375 1.828125 -0.625q0.953125 -0.78125 0.953125 -2.03125q0 -1.125 -0.765625 -1.90625q-0.75 -0.765625 -2.015625 -0.84375zm-5.765625 9.125732l9.671875 0l0 1.46875l-1.46875 0q1.03125 0.5625 1.359375 1.03125q0.328125 0.484375 0.328125 1.0625q0 0.828125 -0.53125 1.6875l-1.515625 -0.5625q0.359375 -0.609375 0.359375 -1.203125q0 -0.546875 -0.328125 -0.96875q-0.328125 -0.421875 -0.890625 -0.609375q-0.875 -0.28125 -1.921875 -0.28125l-5.0625 0l0 -1.625zm2.890625 5.5720215l0.25 1.625q-0.96875 0.125 -1.5 0.75q-0.515625 0.625 -0.515625 1.75q0 1.125 0.453125 1.671875q0.46875 0.546875 1.09375 0.546875q0.546875 0 0.875 -0.484375q0.21875 -0.328125 0.546875 -1.671875q0.46875 -1.8125 0.796875 -2.515625q0.328125 -0.6875 0.90625 -1.046875q0.59375 -0.359375 1.3125 -0.359375q0.640625 0 1.1875 0.296875q0.5625 0.296875 0.921875 0.8125q0.28125 0.375 0.46875 1.03125q0.203125 0.671875 0.203125 1.421875q0 1.140625 -0.328125 2.0q-0.328125 0.859375 -0.890625 1.265625q-0.5625 0.421875 -1.5 0.578125l-0.21875 -1.609375q0.75 -0.109375 1.171875 -0.640625q0.421875 -0.515625 0.421875 -1.46875q0 -1.140625 -0.375 -1.625q-0.375 -0.46875 -0.875 -0.46875q-0.3125 0 -0.578125 0.1875q-0.265625 0.203125 -0.4375 0.640625q-0.09375 0.234375 -0.421875 1.4375q-0.453125 1.75 -0.75 2.4375q-0.296875 0.6875 -0.859375 1.078125q-0.5625 0.390625 -1.40625 0.390625q-0.828125 0 -1.546875 -0.484375q-0.71875 -0.46875 -1.125 -1.375q-0.390625 -0.90625 -0.390625 -2.046875q0 -1.875 0.78125 -2.875q0.78125 -0.984375 2.328125 -1.25z" fill-rule="nonzero"/><path fill="#1155cc" d="m242.30963 432.7968l0 0c8.456924 0 15.312622 6.8556824 15.312622 15.312622l0 165.37476c0 4.061157 -1.6132812 7.9559937 -4.484955 10.827637c-2.8716736 2.871704 -6.76651 4.4849854 -10.827667 4.4849854l-61.248734 0c-8.45694 0 -15.312653 -6.855713 -15.312653 -15.312622l0 -165.37476c0 -8.45694 6.855713 -15.312622 15.312653 -15.312622z" fill-rule="evenodd"/><path stroke="#000000" stroke-width="1.0" stroke-linejoin="round" stroke-linecap="butt" d="m242.30963 432.7968l0 0c8.456924 0 15.312622 6.8556824 15.312622 15.312622l0 165.37476c0 4.061157 -1.6132812 7.9559937 -4.484955 10.827637c-2.8716736 2.871704 -6.76651 4.4849854 -10.827667 4.4849854l-61.248734 0c-8.45694 0 -15.312653 -6.855713 -15.312653 -15.312622l0 -165.37476c0 -8.45694 6.855713 -15.312622 15.312653 -15.312622z" fill-rule="evenodd"/><path fill="#ffffff" d="m204.76526 477.7826l13.359375 0l0 4.609375q0 1.546875 -0.203125 2.375q-0.25 1.140625 -0.953125 1.953125q-0.890625 1.0625 -2.28125 1.578125q-1.390625 0.53125 -3.171875 0.53125q-1.515625 0 -2.703125 -0.359375q-1.171875 -0.359375 -1.9375 -0.921875q-0.765625 -0.546875 -1.21875 -1.203125q-0.4375 -0.65625 -0.671875 -1.59375q-0.21875 -0.9375 -0.21875 -2.140625l0 -4.828125zm1.578125 1.765625l0 2.859375q0 1.3125 0.234375 2.0625q0.25 0.75 0.703125 1.203125q0.625 0.625 1.6875 0.96875q1.0625 0.359375 2.578125 0.359375q2.09375 0 3.21875 -0.6875q1.125 -0.6875 1.5 -1.671875q0.28125 -0.703125 0.28125 -2.28125l0 -2.8125l-10.203125 0zm-0.390625 17.81668q-0.765625 -0.921875 -1.09375 -1.765625q-0.3125 -0.828125 -0.3125 -1.796875q0 -1.59375 0.78125 -2.453125q0.78125 -0.859375 1.984375 -0.859375q0.71875 0 1.296875 0.328125q0.59375 0.328125 0.9375 0.84375q0.359375 0.53125 0.546875 1.1875q0.125 0.46875 0.25 1.453125q0.234375 1.984375 0.5625 2.921875q0.34375 0.015625 0.421875 0.015625q1.0 0 1.421875 -0.46875q0.546875 -0.625 0.546875 -1.875q0 -1.15625 -0.40625 -1.703125q-0.40625 -0.546875 -1.421875 -0.8125l0.21875 -1.609375q1.015625 0.21875 1.640625 0.71875q0.640625 0.5 0.984375 1.453125q0.34375 0.953125 0.34375 2.1875q0 1.25 -0.296875 2.015625q-0.28125 0.78125 -0.734375 1.140625q-0.4375 0.375 -1.109375 0.515625q-0.421875 0.078125 -1.515625 0.078125l-2.1875 0q-2.28125 0 -2.890625 0.109375q-0.59375 0.109375 -1.15625 0.40625l0 -1.703125q0.515625 -0.265625 1.1875 -0.328125zm3.671875 -0.140625q-0.375 -0.890625 -0.625 -2.671875q-0.140625 -1.015625 -0.328125 -1.4375q-0.1875 -0.421875 -0.53125 -0.65625q-0.34375 -0.21875 -0.78125 -0.21875q-0.65625 0 -1.09375 0.5q-0.4375 0.5 -0.4375 1.453125q0 0.9375 0.40625 1.671875q0.421875 0.75 1.140625 1.09375q0.5625 0.265625 1.640625 0.265625l0.609375 0zm-3.390625 7.7819824l-1.453125 0.234375q-0.140625 -0.6875 -0.140625 -1.234375q0 -0.890625 0.28125 -1.390625q0.28125 -0.484375 0.734375 -0.6875q0.46875 -0.203125 1.9375 -0.203125l5.578125 0l0 -1.203125l1.265625 0l0 1.203125l2.390625 0l0.984375 1.625l-3.375 0l0 1.65625l-1.265625 0l0 -1.65625l-5.671875 0q-0.6875 0 -0.890625 0.078125q-0.203125 0.09375 -0.328125 0.28125q-0.109375 0.203125 -0.109375 0.578125q0 0.265625 0.0625 0.71875zm-0.28125 7.917694q-0.765625 -0.921875 -1.09375 -1.7656555q-0.3125 -0.828125 -0.3125 -1.796875q0 -1.59375 0.78125 -2.453125q0.78125 -0.859375 1.984375 -0.859375q0.71875 0 1.296875 0.328125q0.59375 0.328125 0.9375 0.84375q0.359375 0.53125 0.546875 1.1875q0.125 0.46875 0.25 1.453125q0.234375 1.984375 0.5625 2.9219055q0.34375 0.015625 0.421875 0.015625q1.0 0 1.421875 -0.46875q0.546875 -0.6250305 0.546875 -1.8750305q0 -1.15625 -0.40625 -1.703125q-0.40625 -0.546875 -1.421875 -0.8125l0.21875 -1.609375q1.015625 0.21875 1.640625 0.71875q0.640625 0.5 0.984375 1.453125q0.34375 0.953125 0.34375 2.1875q0 1.25 -0.296875 2.0156555q-0.28125 0.78125 -0.734375 1.140625q-0.4375 0.375 -1.109375 0.515625q-0.421875 0.078125 -1.515625 0.078125l-2.1875 0q-2.28125 0 -2.890625 0.109375q-0.59375 0.109375 -1.15625 0.40625l0 -1.703125q0.515625 -0.265625 1.1875 -0.328125zm3.671875 -0.140625q-0.375 -0.8906555 -0.625 -2.6719055q-0.140625 -1.015625 -0.328125 -1.4375q-0.1875 -0.421875 -0.53125 -0.65625q-0.34375 -0.21875 -0.78125 -0.21875q-0.65625 0 -1.09375 0.5q-0.4375 0.5 -0.4375 1.453125q0 0.9375 0.40625 1.671875q0.421875 0.7500305 1.140625 1.0937805q0.5625 0.265625 1.640625 0.265625l0.609375 0zm-4.859375 7.0915527l13.359375 5.125l0 1.90625l-13.359375 5.46875l0 -2.015625l4.046875 -1.546875l0 -5.59375l-4.046875 -1.46875l0 -1.875zm5.484375 3.859375l0 4.53125l3.703125 -1.40625q1.6875 -0.625 2.765625 -0.9375q-1.28125 -0.265625 -2.546875 -0.71875l-3.921875 -1.46875zm-5.484375 16.115417l1.21875 0q-1.4375 -0.90625 -1.4375 -2.703125q0 -1.15625 0.640625 -2.125q0.640625 -0.96875 1.78125 -1.5q1.140625 -0.53125 2.625 -0.53125q1.453125 0 2.625 0.484375q1.1875 0.484375 1.8125 1.4375q0.625 0.96875 0.625 2.171875q0 0.875 -0.375 1.546875q-0.359375 0.6875 -0.953125 1.109375l4.796875 0l0 1.640625l-13.359375 0l0 -1.53125zm4.828125 -5.171875q-1.859375 0 -2.78125 0.78125q-0.921875 0.78125 -0.921875 1.84375q0 1.078125 0.875 1.828125q0.890625 0.75 2.6875 0.75q1.984375 0 2.90625 -0.765625q0.9375 -0.765625 0.9375 -1.890625q0 -1.078125 -0.890625 -1.8125q-0.890625 -0.734375 -2.8125 -0.734375zm-3.640625 15.594482q-0.765625 -0.921875 -1.09375 -1.765625q-0.3125 -0.828125 -0.3125 -1.796875q0 -1.59375 0.78125 -2.453125q0.78125 -0.859375 1.984375 -0.859375q0.71875 0 1.296875 0.328125q0.59375 0.328125 0.9375 0.84375q0.359375 0.53125 0.546875 1.1875q0.125 0.46875 0.25 1.453125q0.234375 1.984375 0.5625 2.921875q0.34375 0.015625 0.421875 0.015625q1.0 0 1.421875 -0.46875q0.546875 -0.625 0.546875 -1.875q0 -1.15625 -0.40625 -1.703125q-0.40625 -0.546875 -1.421875 -0.8125l0.21875 -1.609375q1.015625 0.21875 1.640625 0.71875q0.640625 0.5 0.984375 1.453125q0.34375 0.953125 0.34375 2.1875q0 1.25 -0.296875 2.015625q-0.28125 0.78125 -0.734375 1.140625q-0.4375 0.375 -1.109375 0.515625q-0.421875 0.078125 -1.515625 0.078125l-2.1875 0q-2.28125 0 -2.890625 0.109375q-0.59375 0.109375 -1.15625 0.40625l0 -1.703125q0.515625 -0.265625 1.1875 -0.328125zm3.671875 -0.140625q-0.375 -0.890625 -0.625 -2.671875q-0.140625 -1.015625 -0.328125 -1.4375q-0.1875 -0.421875 -0.53125 -0.65625q-0.34375 -0.21875 -0.78125 -0.21875q-0.65625 0 -1.09375 0.5q-0.4375 0.5 -0.4375 1.453125q0 0.9375 0.40625 1.671875q0.421875 0.75 1.140625 1.09375q0.5625 0.265625 1.640625 0.265625l0.609375 0zm-8.5625 4.2038574l13.375 0l0 1.484375l-1.25 0q0.734375 0.53125 1.09375 1.1875q0.375 0.671875 0.375 1.625q0 1.234375 -0.640625 2.171875q-0.625 0.953125 -1.796875 1.4375q-1.15625 0.484375 -2.546875 0.484375q-1.484375 0 -2.671875 -0.53125q-1.1875 -0.53125 -1.828125 -1.546875q-0.625 -1.015625 -0.625 -2.140625q0 -0.8125 0.34375 -1.46875q0.34375 -0.65625 0.875 -1.0625l-4.703125 0l0 -1.640625zm8.484375 1.484375q-1.859375 0 -2.765625 0.75q-0.890625 0.765625 -0.890625 1.828125q0 1.09375 0.921875 1.875q0.9375 0.78125 2.875 0.78125q1.84375 0 2.765625 -0.765625q0.921875 -0.75 0.921875 -1.8125q0 -1.046875 -0.984375 -1.859375q-0.96875 -0.796875 -2.84375 -0.796875zm-3.3125 12.469482l-1.453125 0.234375q-0.140625 -0.6875 -0.140625 -1.234375q0 -0.890625 0.28125 -1.390625q0.28125 -0.484375 0.734375 -0.6875q0.46875 -0.203125 1.9375 -0.203125l5.578125 0l0 -1.203125l1.265625 0l0 1.203125l2.390625 0l0.984375 1.625l-3.375 0l0 1.65625l-1.265625 0l0 -1.65625l-5.671875 0q-0.6875 0 -0.890625 0.078125q-0.203125 0.09375 -0.328125 0.28125q-0.109375 0.203125 -0.109375 0.578125q0 0.265625 0.0625 0.71875zm1.640625 8.230164l-0.203125 1.6875q-1.484375 -0.40625 -2.3125 -1.484375q-0.8125 -1.078125 -0.8125 -2.765625q0 -2.125 1.296875 -3.375q1.3125 -1.234375 3.671875 -1.234375q2.453125 0 3.796875 1.25q1.34375 1.265625 1.34375 3.265625q0 1.9375 -1.328125 3.15625q-1.3125 1.234375 -3.703125 1.234375q-0.15625 0 -0.4375 0l0 -7.21875q-1.59375 0.09375 -2.453125 0.90625q-0.84375 0.8125 -0.84375 2.015625q0 0.90625 0.46875 1.546875q0.484375 0.640625 1.515625 1.015625zm2.65625 -5.390625l0 5.40625q1.21875 -0.109375 1.828125 -0.625q0.953125 -0.78125 0.953125 -2.03125q0 -1.125 -0.765625 -1.90625q-0.75 -0.765625 -2.015625 -0.84375zm-5.765625 9.125732l9.671875 0l0 1.46875l-1.46875 0q1.03125 0.5625 1.359375 1.03125q0.328125 0.484375 0.328125 1.0625q0 0.828125 -0.53125 1.6875l-1.515625 -0.5625q0.359375 -0.609375 0.359375 -1.203125q0 -0.546875 -0.328125 -0.96875q-0.328125 -0.421875 -0.890625 -0.609375q-0.875 -0.28125 -1.921875 -0.28125l-5.0625 0l0 -1.625z" fill-rule="nonzero"/><path fill="#000000" fill-opacity="0.0" d="m24.155144 549.19574l0 -462.2047" fill-rule="evenodd"/><path stroke="#000000" stroke-width="3.0" stroke-linejoin="round" stroke-linecap="butt" d="m24.155142 549.19574l0 -444.2047" fill-rule="evenodd"/><path fill="#000000" stroke="#000000" stroke-width="3.0" stroke-linecap="butt" d="m29.11034 104.99103l-4.9551983 -13.614288l-4.9551964 13.614288z" fill-rule="evenodd"/><path fill="#000000" fill-opacity="0.0" d="m211.08 297.22775l0 86.89761" fill-rule="evenodd"/><path stroke="#000000" stroke-width="2.0" stroke-linejoin="round" stroke-linecap="butt" d="m211.08 297.22775l0 86.89761" fill-rule="evenodd"/><path fill="#000000" fill-opacity="0.0" d="m278.22726 385.2089l66.48819 0" fill-rule="evenodd"/><path stroke="#000000" stroke-width="2.0" stroke-linejoin="round" stroke-linecap="butt" d="m278.22726 385.2089l66.48819 0" fill-rule="evenodd"/><path fill="#000000" fill-opacity="0.0" d="m344.18527 432.7968l0 -48.031494" fill-rule="evenodd"/><path stroke="#000000" stroke-width="2.0" stroke-linejoin="round" stroke-linecap="butt" d="m344.18524 420.79678l0 -36.031494" fill-rule="evenodd"/><path fill="#000000" stroke="#000000" stroke-width="2.0" stroke-linecap="butt" d="m340.88177 420.79678l3.3034668 9.076202l3.3034668 -9.076202z" fill-rule="evenodd"/><path fill="#000000" fill-opacity="0.0" d="m99.68526 432.7968l0 -48.031494" fill-rule="evenodd"/><path stroke="#000000" stroke-width="2.0" stroke-linejoin="round" stroke-linecap="butt" d="m99.68526 420.79678l0 -36.031494" fill-rule="evenodd"/><path fill="#000000" stroke="#000000" stroke-width="2.0" stroke-linecap="butt" d="m96.38179 420.79678l3.3034668 9.076202l3.3034592 -9.076202z" fill-rule="evenodd"/><path fill="#000000" fill-opacity="0.0" d="m718.6682 297.22723l-0.881897 166.20474" fill-rule="evenodd"/><path stroke="#000000" stroke-width="2.0" stroke-linejoin="round" stroke-linecap="butt" d="m718.6682 297.22723l-0.8182373 154.2049" fill-rule="evenodd"/><path fill="#000000" stroke="#000000" stroke-width="2.0" stroke-linecap="butt" d="m714.5466 451.4146l3.255249 9.093597l3.3516235 -9.058563z" fill-rule="evenodd"/><path fill="#1155cc" d="m649.3296 162.54529l0 0c0 -12.765137 10.348206 -23.113327 23.113342 -23.113327l92.4505 0l0 0c6.130066 0 12.009033 2.4351501 16.343628 6.769745c4.3345947 4.3345795 6.7697144 10.213547 6.7697144 16.343582l0 111.568634c0 12.765137 -10.348206 23.113312 -23.113342 23.113312l-92.4505 0c-12.765137 0 -23.113342 -10.348175 -23.113342 -23.113312z" fill-rule="evenodd"/><path stroke="#000000" stroke-width="1.0" stroke-linejoin="round" stroke-linecap="butt" d="m649.3296 162.54529l0 0c0 -12.765137 10.348206 -23.113327 23.113342 -23.113327l92.4505 0l0 0c6.130066 0 12.009033 2.4351501 16.343628 6.769745c4.3345947 4.3345795 6.7697144 10.213547 6.7697144 16.343582l0 111.568634c0 12.765137 -10.348206 23.113312 -23.113342 23.113312l-92.4505 0c-12.765137 0 -23.113342 -10.348175 -23.113342 -23.113312z" fill-rule="evenodd"/><path fill="#ffffff" d="m697.58325 214.2496l0 -13.359375l1.765625 0l0 13.359375l-1.765625 0zm4.6833496 0l0 -9.671875l1.46875 0l0 1.375q1.0625 -1.59375 3.078125 -1.59375q0.875 0 1.609375 0.3125q0.734375 0.3125 1.09375 0.828125q0.375 0.5 0.515625 1.203125q0.09375 0.453125 0.09375 1.59375l0 5.953125l-1.640625 0l0 -5.890625q0 -1.0 -0.203125 -1.484375q-0.1875 -0.5 -0.671875 -0.796875q-0.484375 -0.296875 -1.140625 -0.296875q-1.046875 0 -1.8125 0.671875q-0.75 0.65625 -0.75 2.515625l0 5.28125l-1.640625 0zm16.641296 0l0 -1.21875q-0.90625 1.4375 -2.703125 1.4375q-1.15625 0 -2.125 -0.640625q-0.96875 -0.640625 -1.5 -1.78125q-0.53125 -1.140625 -0.53125 -2.625q0 -1.453125 0.484375 -2.625q0.484375 -1.1875 1.4375 -1.8125q0.96875 -0.625 2.171875 -0.625q0.875 0 1.546875 0.375q0.6875 0.359375 1.109375 0.953125l0 -4.796875l1.640686 0l0 13.359375l-1.531311 0zm-5.171875 -4.828125q0 1.859375 0.78125 2.78125q0.78125 0.921875 1.84375 0.921875q1.078125 0 1.828125 -0.875q0.75 -0.890625 0.75 -2.6875q0 -1.984375 -0.765625 -2.90625q-0.765625 -0.9375 -1.890625 -0.9375q-1.078125 0 -1.8125 0.890625q-0.734375 0.890625 -0.734375 2.8125zm15.906982 1.71875l1.6875 0.203125q-0.40625 1.484375 -1.484375 2.3125q-1.078125 0.8125 -2.765625 0.8125q-2.125 0 -3.375 -1.296875q-1.234375 -1.3125 -1.234375 -3.671875q0 -2.453125 1.25 -3.796875q1.265625 -1.34375 3.265625 -1.34375q1.9375 0 3.15625 1.328125q1.234375 1.3125 1.234375 3.703125q0 0.15625 0 0.4375l-7.21875 0q0.09375 1.59375 0.90625 2.453125q0.8125 0.84375 2.015625 0.84375q0.90625 0 1.546875 -0.46875q0.640625 -0.484375 1.015625 -1.515625zm-5.390625 -2.65625l5.40625 0q-0.109375 -1.21875 -0.625 -1.828125q-0.78125 -0.953125 -2.03125 -0.953125q-1.125 0 -1.90625 0.765625q-0.765625 0.75 -0.84375 2.015625zm8.047607 5.765625l3.53125 -5.03125l-3.265625 -4.640625l2.046875 0l1.484375 2.265625q0.421875 0.640625 0.671875 1.078125q0.40625 -0.59375 0.734375 -1.0625l1.640625 -2.28125l1.953125 0l-3.34375 4.546875l3.59375 5.125l-2.015625 0l-1.984375 -3.0l-0.515625 -0.8125l-2.546875 3.8125l-1.984375 0z" fill-rule="nonzero"/><path fill="#ffffff" d="m682.45886 231.5621l1.765625 0.453125q-0.5625 2.171875 -2.0 3.328125q-1.4375 1.140625 -3.53125 1.140625q-2.15625 0 -3.515625 -0.875q-1.34375 -0.890625 -2.0625 -2.546875q-0.703125 -1.671875 -0.703125 -3.59375q0 -2.078125 0.796875 -3.625q0.796875 -1.5625 2.265625 -2.359375q1.484375 -0.8125 3.25 -0.8125q2.0 0 3.359375 1.015625q1.375 1.015625 1.90625 2.875l-1.734375 0.40625q-0.46875 -1.453125 -1.359375 -2.109375q-0.875 -0.671875 -2.203125 -0.671875q-1.546875 0 -2.578125 0.734375q-1.03125 0.734375 -1.453125 1.984375q-0.421875 1.234375 -0.421875 2.5625q0 1.703125 0.5 2.96875q0.5 1.265625 1.546875 1.90625q1.046875 0.625 2.265625 0.625q1.484375 0 2.515625 -0.859375q1.03125 -0.859375 1.390625 -2.546875zm3.1292114 -0.15625q0 -2.6875 1.484375 -3.96875q1.25 -1.078125 3.046875 -1.078125q2.0 0 3.265625 1.3125q1.265625 1.296875 1.265625 3.609375q0 1.859375 -0.5625 2.9375q-0.5625 1.0625 -1.640625 1.65625q-1.0625 0.59375 -2.328125 0.59375q-2.03125 0 -3.28125 -1.296875q-1.25 -1.3125 -1.25 -3.765625zm1.6875 0q0 1.859375 0.796875 2.796875q0.8125 0.921875 2.046875 0.921875q1.21875 0 2.03125 -0.921875q0.8125 -0.9375 0.8125 -2.84375q0 -1.796875 -0.8125 -2.71875q-0.8125 -0.921875 -2.03125 -0.921875q-1.234375 0 -2.046875 0.921875q-0.796875 0.90625 -0.796875 2.765625zm9.297546 4.84375l0 -9.671875l1.46875 0l0 1.375q1.0625 -1.59375 3.078125 -1.59375q0.875 0 1.609375 0.3125q0.734375 0.3125 1.09375 0.828125q0.375 0.5 0.515625 1.203125q0.09375 0.453125 0.09375 1.59375l0 5.953125l-1.640625 0l0 -5.890625q0 -1.0 -0.203125 -1.484375q-0.1875 -0.5 -0.671875 -0.796875q-0.484375 -0.296875 -1.140625 -0.296875q-1.046875 0 -1.8125 0.671875q-0.75 0.65625 -0.75 2.515625l0 5.28125l-1.640625 0zm9.719482 -2.890625l1.625 -0.25q0.125 0.96875 0.75 1.5q0.625 0.515625 1.75 0.515625q1.125 0 1.671875 -0.453125q0.546875 -0.46875 0.546875 -1.09375q0 -0.546875 -0.484375 -0.875q-0.328125 -0.21875 -1.671875 -0.546875q-1.8125 -0.46875 -2.515625 -0.796875q-0.6875 -0.328125 -1.046875 -0.90625q-0.359375 -0.59375 -0.359375 -1.3125q0 -0.640625 0.296875 -1.1875q0.296875 -0.5625 0.8125 -0.921875q0.375 -0.28125 1.03125 -0.46875q0.671875 -0.203125 1.421875 -0.203125q1.140625 0 2.0 0.328125q0.859375 0.328125 1.265625 0.890625q0.421875 0.5625 0.578125 1.5l-1.609375 0.21875q-0.109375 -0.75 -0.640625 -1.171875q-0.515625 -0.421875 -1.46875 -0.421875q-1.140625 0 -1.625 0.375q-0.46875 0.375 -0.46875 0.875q0 0.3125 0.1875 0.578125q0.203125 0.265625 0.640625 0.4375q0.234375 0.09375 1.4375 0.421875q1.75 0.453125 2.4375 0.75q0.6875 0.296875 1.078125 0.859375q0.390625 0.5625 0.390625 1.40625q0 0.828125 -0.484375 1.546875q-0.46875 0.71875 -1.375 1.125q-0.90625 0.390625 -2.046875 0.390625q-1.875 0 -2.875 -0.78125q-0.984375 -0.78125 -1.25 -2.328125zm13.5625 1.421875l0.234375 1.453125q-0.6875 0.140625 -1.234375 0.140625q-0.890625 0 -1.390625 -0.28125q-0.484375 -0.28125 -0.6875 -0.734375q-0.203125 -0.46875 -0.203125 -1.9375l0 -5.578125l-1.203125 0l0 -1.265625l1.203125 0l0 -2.390625l1.625 -0.984375l0 3.375l1.65625 0l0 1.265625l-1.65625 0l0 5.671875q0 0.6875 0.078125 0.890625q0.09375 0.203125 0.28125 0.328125q0.203125 0.109375 0.578125 0.109375q0.265625 0 0.71875 -0.0625zm1.5895996 1.46875l0 -9.671875l1.46875 0l0 1.46875q0.5625 -1.03125 1.03125 -1.359375q0.484375 -0.328125 1.0625 -0.328125q0.828125 0 1.6875 0.53125l-0.5625 1.515625q-0.609375 -0.359375 -1.203125 -0.359375q-0.546875 0 -0.96875 0.328125q-0.421875 0.328125 -0.609375 0.890625q-0.28125 0.875 -0.28125 1.921875l0 5.0625l-1.625 0zm12.5407715 -1.1875q-0.921875 0.765625 -1.765625 1.09375q-0.828125 0.3125 -1.796875 0.3125q-1.59375 0 -2.453125 -0.78125q-0.859375 -0.78125 -0.859375 -1.984375q0 -0.71875 0.328125 -1.296875q0.328125 -0.59375 0.84375 -0.9375q0.53125 -0.359375 1.1875 -0.546875q0.46875 -0.125 1.453125 -0.25q1.984375 -0.234375 2.921875 -0.5625q0.015625 -0.34375 0.015625 -0.421875q0 -1.0 -0.46875 -1.421875q-0.625 -0.546875 -1.875 -0.546875q-1.15625 0 -1.703125 0.40625q-0.546875 0.40625 -0.8125 1.421875l-1.609375 -0.21875q0.21875 -1.015625 0.71875 -1.640625q0.5 -0.640625 1.453125 -0.984375q0.953125 -0.34375 2.1875 -0.34375q1.25 0 2.015625 0.296875q0.78125 0.28125 1.140625 0.734375q0.375 0.4375 0.515625 1.109375q0.078125 0.421875 0.078125 1.515625l0 2.1875q0 2.28125 0.109375 2.890625q0.109375 0.59375 0.40625 1.15625l-1.703125 0q-0.265625 -0.515625 -0.328125 -1.1875zm-0.140625 -3.671875q-0.890625 0.375 -2.671875 0.625q-1.015625 0.140625 -1.4375 0.328125q-0.421875 0.1875 -0.65625 0.53125q-0.21875 0.34375 -0.21875 0.78125q0 0.65625 0.5 1.09375q0.5 0.4375 1.453125 0.4375q0.9375 0 1.671875 -0.40625q0.75 -0.421875 1.09375 -1.140625q0.265625 -0.5625 0.265625 -1.640625l0 -0.609375zm4.2038574 -6.609375l0 -1.890625l1.640625 0l0 1.890625l-1.640625 0zm0 11.46875l0 -9.671875l1.640625 0l0 9.671875l-1.640625 0zm4.1448364 0l0 -9.671875l1.46875 0l0 1.375q1.0625 -1.59375 3.078125 -1.59375q0.875 0 1.609375 0.3125q0.734375 0.3125 1.09375 0.828125q0.375 0.5 0.515625 1.203125q0.09375 0.453125 0.09375 1.59375l0 5.953125l-1.640625 0l0 -5.890625q0 -1.0 -0.203125 -1.484375q-0.1875 -0.5 -0.671875 -0.796875q-0.484375 -0.296875 -1.140625 -0.296875q-1.046875 0 -1.8125 0.671875q-0.75 0.65625 -0.75 2.515625l0 5.28125l-1.640625 0zm13.953796 -1.46875l0.234375 1.453125q-0.6875 0.140625 -1.234375 0.140625q-0.890625 0 -1.390625 -0.28125q-0.484375 -0.28125 -0.6875 -0.734375q-0.203125 -0.46875 -0.203125 -1.9375l0 -5.578125l-1.203125 0l0 -1.265625l1.203125 0l0 -2.390625l1.625 -0.984375l0 3.375l1.65625 0l0 1.265625l-1.65625 0l0 5.671875q0 0.6875 0.078125 0.890625q0.09375 0.203125 0.28125 0.328125q0.203125 0.109375 0.578125 0.109375q0.265625 0 0.71875 -0.0625zm0.9489746 -1.421875l1.625 -0.25q0.125 0.96875 0.75 1.5q0.625 0.515625 1.75 0.515625q1.125 0 1.671875 -0.453125q0.546875 -0.46875 0.546875 -1.09375q0 -0.546875 -0.484375 -0.875q-0.328125 -0.21875 -1.671875 -0.546875q-1.8125 -0.46875 -2.515625 -0.796875q-0.6875 -0.328125 -1.046875 -0.90625q-0.359375 -0.59375 -0.359375 -1.3125q0 -0.640625 0.296875 -1.1875q0.296875 -0.5625 0.8125 -0.921875q0.375 -0.28125 1.03125 -0.46875q0.671875 -0.203125 1.421875 -0.203125q1.140625 0 2.0 0.328125q0.859375 0.328125 1.265625 0.890625q0.421875 0.5625 0.578125 1.5l-1.609375 0.21875q-0.109375 -0.75 -0.640625 -1.171875q-0.515625 -0.421875 -1.46875 -0.421875q-1.140625 0 -1.625 0.375q-0.46875 0.375 -0.46875 0.875q0 0.3125 0.1875 0.578125q0.203125 0.265625 0.640625 0.4375q0.234375 0.09375 1.4375 0.421875q1.75 0.453125 2.4375 0.75q0.6875 0.296875 1.078125 0.859375q0.390625 0.5625 0.390625 1.40625q0 0.828125 -0.484375 1.546875q-0.46875 0.71875 -1.375 1.125q-0.90625 0.390625 -2.046875 0.390625q-1.875 0 -2.875 -0.78125q-0.984375 -0.78125 -1.25 -2.328125z" fill-rule="nonzero"/><path fill="#000000" fill-opacity="0.0" d="m464.19315 129.22725l0 -43.46456" fill-rule="evenodd"/><path stroke="#000000" stroke-width="3.0" stroke-linejoin="round" stroke-linecap="butt" d="m464.1931 111.22725l0 -25.464561" fill-rule="evenodd"/><path fill="#000000" stroke="#000000" stroke-width="3.0" stroke-linecap="butt" d="m459.2379 111.22725l4.9552 13.614296l4.9552 -13.614296z" fill-rule="evenodd"/><path fill="#1155cc" d="m142.34799 162.54529l0 0c0 -12.765137 10.34819 -23.113327 23.113312 -23.113327l92.45053 0l0 0c6.1300354 0 12.009003 2.4351501 16.343597 6.769745c4.334564 4.3345795 6.7697144 10.213547 6.7697144 16.343582l0 111.568634c0 12.765137 -10.348175 23.113312 -23.113312 23.113312l-92.45053 0c-12.765121 0 -23.113312 -10.348175 -23.113312 -23.113312z" fill-rule="evenodd"/><path stroke="#000000" stroke-width="1.0" stroke-linejoin="round" stroke-linecap="butt" d="m142.34799 162.54529l0 0c0 -12.765137 10.34819 -23.113327 23.113312 -23.113327l92.45053 0l0 0c6.1300354 0 12.009003 2.4351501 16.343597 6.769745c4.334564 4.3345795 6.7697144 10.213547 6.7697144 16.343582l0 111.568634c0 12.765137 -10.348175 23.113312 -23.113312 23.113312l-92.45053 0c-12.765121 0 -23.113312 -10.348175 -23.113312 -23.113312z" fill-rule="evenodd"/><path fill="#ffffff" d="m187.8251 225.2496l0 -13.359375l9.015625 0l0 1.578125l-7.25 0l0 4.140625l6.265625 0l0 1.578125l-6.265625 0l0 6.0625l-1.765625 0zm11.099106 -11.46875l0 -1.890625l1.640625 0l0 1.890625l-1.640625 0zm0 11.46875l0 -9.671875l1.640625 0l0 9.671875l-1.640625 0zm4.097946 0l0 -13.359375l1.640625 0l0 13.359375l-1.640625 0zm7.769821 -1.46875l0.234375 1.453125q-0.6875 0.140625 -1.234375 0.140625q-0.890625 0 -1.390625 -0.28125q-0.484375 -0.28125 -0.6875 -0.734375q-0.203125 -0.46875 -0.203125 -1.9375l0 -5.578125l-1.203125 0l0 -1.265625l1.203125 0l0 -2.390625l1.625 -0.984375l0 3.375l1.65625 0l0 1.265625l-1.65625 0l0 5.671875q0 0.6875 0.078125 0.890625q0.09375 0.203125 0.28125 0.328125q0.203125 0.109375 0.578125 0.109375q0.265625 0 0.71875 -0.0625zm8.230164 -1.640625l1.6875 0.203125q-0.40625 1.484375 -1.484375 2.3125q-1.078125 0.8125 -2.765625 0.8125q-2.125 0 -3.3749847 -1.296875q-1.234375 -1.3125 -1.234375 -3.671875q0 -2.453125 1.25 -3.796875q1.2656097 -1.34375 3.2656097 -1.34375q1.9375 0 3.15625 1.328125q1.234375 1.3125 1.234375 3.703125q0 0.15625 0 0.4375l-7.21875 0q0.09375 1.59375 0.90625 2.453125q0.8125 0.84375 2.015625 0.84375q0.90625 0 1.546875 -0.46875q0.640625 -0.484375 1.015625 -1.515625zm-5.390625 -2.65625l5.40625 0q-0.109375 -1.21875 -0.625 -1.828125q-0.78125 -0.953125 -2.03125 -0.953125q-1.125 0 -1.90625 0.765625q-0.765625 0.75 -0.84375 2.015625zm9.125717 5.765625l0 -9.671875l1.46875 0l0 1.46875q0.5625 -1.03125 1.03125 -1.359375q0.484375 -0.328125 1.0625 -0.328125q0.828125 0 1.6875 0.53125l-0.5625 1.515625q-0.609375 -0.359375 -1.203125 -0.359375q-0.546875 0 -0.96875 0.328125q-0.421875 0.328125 -0.609375 0.890625q-0.28125 0.875 -0.28125 1.921875l0 5.0625l-1.625 0zm5.572052 -2.890625l1.625 -0.25q0.125 0.96875 0.75 1.5q0.625 0.515625 1.75 0.515625q1.125 0 1.671875 -0.453125q0.546875 -0.46875 0.546875 -1.09375q0 -0.546875 -0.484375 -0.875q-0.328125 -0.21875 -1.671875 -0.546875q-1.8125 -0.46875 -2.515625 -0.796875q-0.6875 -0.328125 -1.046875 -0.90625q-0.359375 -0.59375 -0.359375 -1.3125q0 -0.640625 0.296875 -1.1875q0.296875 -0.5625 0.8125 -0.921875q0.375 -0.28125 1.03125 -0.46875q0.671875 -0.203125 1.421875 -0.203125q1.140625 0 2.0 0.328125q0.859375 0.328125 1.265625 0.890625q0.421875 0.5625 0.578125 1.5l-1.609375 0.21875q-0.109375 -0.75 -0.640625 -1.171875q-0.515625 -0.421875 -1.46875 -0.421875q-1.140625 0 -1.625 0.375q-0.46875 0.375 -0.46875 0.875q0 0.3125 0.1875 0.578125q0.203125 0.265625 0.640625 0.4375q0.234375 0.09375 1.4375 0.421875q1.75 0.453125 2.4375 0.75q0.6875 0.296875 1.078125 0.859375q0.390625 0.5625 0.390625 1.40625q0 0.828125 -0.484375 1.546875q-0.46875 0.71875 -1.375 1.125q-0.90625 0.390625 -2.046875 0.390625q-1.875 0 -2.875 -0.78125q-0.984375 -0.78125 -1.25 -2.328125z" fill-rule="nonzero"/><path fill="#000000" fill-opacity="0.0" d="m99.73382 385.2089l177.98425 0" fill-rule="evenodd"/><path stroke="#000000" stroke-width="2.0" stroke-linejoin="round" stroke-linecap="butt" d="m99.73382 385.2089l177.98425 0" fill-rule="evenodd"/><path fill="#1155cc" d="m122.02727 432.7968l0 0c8.45694 0 15.312637 6.8556824 15.312637 15.312622l0 165.37476c0 4.061157 -1.6132812 7.9559937 -4.48497 10.827637c-2.8716736 2.871704 -6.7665024 4.4849854 -10.827667 4.4849854l-61.24873 0c-8.45694 0 -15.312645 -6.855713 -15.312645 -15.312622l0 -165.37476c0 -8.45694 6.8557053 -15.312622 15.312645 -15.312622z" fill-rule="evenodd"/><path stroke="#000000" stroke-width="1.0" stroke-linejoin="round" stroke-linecap="butt" d="m122.02727 432.7968l0 0c8.45694 0 15.312637 6.8556824 15.312637 15.312622l0 165.37476c0 4.061157 -1.6132812 7.9559937 -4.48497 10.827637c-2.8716736 2.871704 -6.7665024 4.4849854 -10.827667 4.4849854l-61.24873 0c-8.45694 0 -15.312645 -6.855713 -15.312645 -15.312622l0 -165.37476c0 -8.45694 6.8557053 -15.312622 15.312645 -15.312622z" fill-rule="evenodd"/><path fill="#ffffff" d="m89.1704 489.93253l-0.453125 1.765625q-2.171875 -0.5625 -3.328125 -2.0q-1.140625 -1.4375 -1.140625 -3.53125q0 -2.15625 0.875 -3.515625q0.890625 -1.34375 2.546875 -2.0625q1.671875 -0.703125 3.59375 -0.703125q2.078125 0 3.625 0.796875q1.5625 0.796875 2.359375 2.265625q0.8125 1.484375 0.8125 3.25q0 2.0 -1.015625 3.359375q-1.015625 1.375 -2.875 1.90625l-0.40625 -1.734375q1.453125 -0.46875 2.109375 -1.359375q0.671875 -0.875 0.671875 -2.203125q0 -1.546875 -0.734375 -2.578125q-0.734375 -1.03125 -1.984375 -1.453125q-1.234375 -0.421875 -2.5625 -0.421875q-1.703125 0 -2.96875 0.5q-1.265625 0.5 -1.90625 1.546875q-0.625 1.046875 -0.625 2.265625q0 1.484375 0.859375 2.515625q0.859375 1.03125 2.546875 1.390625zm-4.6875 3.691681l13.359375 0l0 1.640625l-13.359375 0l0 -1.640625zm11.46875 4.1917114l1.890625 0l0 1.640625l-1.890625 0l0 -1.640625zm-11.46875 0l9.671875 0l0 1.640625l-9.671875 0l0 -1.640625zm3.109375 10.769806l-0.203125 1.6875q-1.484375 -0.40625 -2.3125 -1.484375q-0.8125 -1.078125 -0.8125 -2.765625q0 -2.125 1.296875 -3.375q1.3125 -1.234375 3.671875 -1.234375q2.453125 0 3.796875 1.25q1.34375 1.265625 1.34375 3.265625q0 1.9375 -1.328125 3.15625q-1.3125 1.234375 -3.703125 1.234375q-0.15625 0 -0.4375 0l0 -7.21875q-1.59375 0.09375 -2.453125 0.90625q-0.84375 0.8125 -0.84375 2.015625q0 0.90625 0.46875 1.546875q0.484375 0.640625 1.515625 1.015625zm2.65625 -5.390625l0 5.40625q1.21875 -0.109375 1.828125 -0.625q0.953125 -0.78125 0.953125 -2.03125q0 -1.125 -0.765625 -1.90625q-0.75 -0.765625 -2.015625 -0.84375zm-5.765625 9.141327l9.671875 0l0 1.46875l-1.375 0q1.59375 1.0625 1.59375 3.078125q0 0.875 -0.3125 1.609375q-0.3125 0.734375 -0.828125 1.09375q-0.5 0.375 -1.203125 0.515625q-0.453125 0.09375 -1.59375 0.09375l-5.953125 0l0 -1.640625l5.890625 0q1.0 0 1.484375 -0.203125q0.5 -0.1875 0.796875 -0.671875q0.296875 -0.484375 0.296875 -1.140625q0 -1.046875 -0.671875 -1.8125q-0.65625 -0.75 -2.515625 -0.75l-5.28125 0l0 -1.640625zm1.46875 13.953857l-1.453125 0.234375q-0.140625 -0.6875 -0.140625 -1.234375q0 -0.890625 0.28125 -1.390625q0.28125 -0.484375 0.734375 -0.6875q0.46875 -0.203125 1.9375 -0.203125l5.578125 0l0 -1.203125l1.265625 0l0 1.203125l2.390625 0l0.984375 1.625l-3.375 0l0 1.65625l-1.265625 0l0 -1.65625l-5.671875 0q-0.6875 0 -0.890625 0.078125q-0.203125 0.09375 -0.328125 0.28125q-0.109375 0.203125 -0.109375 0.578125q0 0.265625 0.0625 0.71875zm-1.46875 7.085388l13.359375 0l0 9.015625l-1.578125 0l0 -7.25l-4.140625 0l0 6.265625l-1.578125 0l0 -6.265625l-6.0625 0l0 -1.765625zm11.46875 11.09906l1.890625 0l0 1.640625l-1.890625 0l0 -1.640625zm-11.46875 0l9.671875 0l0 1.640625l-9.671875 0l0 -1.640625zm0 4.0979614l13.359375 0l0 1.640625l-13.359375 0l0 -1.640625zm1.46875 7.7698364l-1.453125 0.234375q-0.140625 -0.6875 -0.140625 -1.234375q0 -0.890625 0.28125 -1.390625q0.28125 -0.484375 0.734375 -0.6875q0.46875 -0.203125 1.9375 -0.203125l5.578125 0l0 -1.203125l1.265625 0l0 1.203125l2.390625 0l0.984375 1.625l-3.375 0l0 1.65625l-1.265625 0l0 -1.65625l-5.671875 0q-0.6875 0 -0.890625 0.078125q-0.203125 0.09375 -0.328125 0.28125q-0.109375 0.203125 -0.109375 0.578125q0 0.265625 0.0625 0.71875zm1.640625 8.230164l-0.203125 1.6875q-1.484375 -0.40625 -2.3125 -1.484375q-0.8125 -1.078125 -0.8125 -2.765625q0 -2.125 1.296875 -3.375q1.3125 -1.234375 3.671875 -1.234375q2.453125 0 3.796875 1.25q1.34375 1.265625 1.34375 3.265625q0 1.9375 -1.328125 3.15625q-1.3125 1.234375 -3.703125 1.234375q-0.15625 0 -0.4375 0l0 -7.21875q-1.59375 0.09375 -2.453125 0.90625q-0.84375 0.8125 -0.84375 2.015625q0 0.90625 0.46875 1.546875q0.484375 0.640625 1.515625 1.015625zm2.65625 -5.390625l0 5.40625q1.21875 -0.109375 1.828125 -0.625q0.953125 -0.78125 0.953125 -2.03125q0 -1.125 -0.765625 -1.90625q-0.75 -0.765625 -2.015625 -0.84375zm-5.765625 9.125732l9.671875 0l0 1.46875l-1.46875 0q1.03125 0.5625 1.359375 1.03125q0.328125 0.484375 0.328125 1.0625q0 0.828125 -0.53125 1.6875l-1.515625 -0.5625q0.359375 -0.609375 0.359375 -1.203125q0 -0.546875 -0.328125 -0.96875q-0.328125 -0.421875 -0.890625 -0.609375q-0.875 -0.28125 -1.921875 -0.28125l-5.0625 0l0 -1.625zm2.890625 5.5720215l0.25 1.625q-0.96875 0.125 -1.5 0.75q-0.515625 0.625 -0.515625 1.75q0 1.125 0.453125 1.671875q0.46875 0.546875 1.09375 0.546875q0.546875 0 0.875 -0.484375q0.21875 -0.328125 0.546875 -1.671875q0.46875 -1.8125 0.796875 -2.515625q0.328125 -0.6875 0.90625 -1.046875q0.59375 -0.359375 1.3125 -0.359375q0.640625 0 1.1875 0.296875q0.5625 0.296875 0.921875 0.8125q0.28125 0.375 0.46875 1.03125q0.203125 0.671875 0.203125 1.421875q0 1.140625 -0.328125 2.0q-0.328125 0.859375 -0.890625 1.265625q-0.5625 0.421875 -1.5 0.578125l-0.21875 -1.609375q0.75 -0.109375 1.171875 -0.640625q0.421875 -0.515625 0.421875 -1.46875q0 -1.140625 -0.375 -1.625q-0.375 -0.46875 -0.875 -0.46875q-0.3125 0 -0.578125 0.1875q-0.265625 0.203125 -0.4375 0.640625q-0.09375 0.234375 -0.421875 1.4375q-0.453125 1.75 -0.75 2.4375q-0.296875 0.6875 -0.859375 1.078125q-0.5625 0.390625 -1.40625 0.390625q-0.828125 0 -1.546875 -0.484375q-0.71875 -0.46875 -1.125 -1.375q-0.390625 -0.90625 -0.390625 -2.046875q0 -1.875 0.78125 -2.875q0.78125 -0.984375 2.328125 -1.25z" fill-rule="nonzero"/></g></svg>