<svg version="1.1" viewBox="0.0 0.0 1200.0 340.0" fill="none" stroke="none" stroke-linecap="square" stroke-miterlimit="10" xmlns:xlink="http://www.w3.org/1999/xlink" xmlns="http://www.w3.org/2000/svg"><g clip-path="url(#p.0)"><path fill="#000000" fill-opacity="0.0" d="m1158.4949 126.32381l31.55896 0" fill-rule="evenodd"/><path stroke="#1c4587" stroke-width="3.0" stroke-linejoin="round" stroke-linecap="butt" d="m1158.4949 126.32381l31.55896 0" fill-rule="evenodd"/><path fill="#000000" fill-opacity="0.0" d="m1190.0538 125.305435l0 172.03148" fill-rule="evenodd"/><path stroke="#1c4587" stroke-width="3.0" stroke-linejoin="round" stroke-linecap="butt" d="m1190.0538 125.305435l0 172.03148" fill-rule="evenodd"/><path fill="#000000" fill-opacity="0.0" d="m1154.5677 297.14224l36.503906 0" fill-rule="evenodd"/><path stroke="#1c4587" stroke-width="3.0" stroke-linejoin="round" stroke-linecap="butt" d="m1172.5677 297.14224l18.503906 0" fill-rule="evenodd"/><path fill="#1c4587" stroke="#1c4587" stroke-width="3.0" stroke-linecap="butt" d="m1172.5677 292.18704l-13.614258 4.9552l13.614258 4.9552z" fill-rule="evenodd"/><path fill="#000000" fill-opacity="0.0" d="m1158.4949 188.42354l31.55896 0" fill-rule="evenodd"/><path stroke="#1c4587" stroke-width="3.0" stroke-linejoin="round" stroke-linecap="butt" d="m1158.4949 188.42354l31.55896 0" fill-rule="evenodd"/><path fill="#000000" fill-opacity="0.0" d="m1101.4861 220.62268l121.13379 0l0 28.94487l-121.13379 0z" fill-rule="evenodd"/><path fill="#000000" d="m1111.8767 247.54268l0 -13.359375l2.65625 0l3.15625 9.453125q0.4375 1.328125 0.640625 1.984375q0.234375 -0.734375 0.703125 -2.140625l3.203125 -9.296875l2.375 0l0 13.359375l-1.703125 0l0 -11.171875l-3.875 11.171875l-1.59375 0l-3.859375 -11.375l0 11.375l-1.703125 0zm15.6188965 0l0 -13.359375l9.65625 0l0 1.578125l-7.875 0l0 4.09375l7.375 0l0 1.5625l-7.375 0l0 4.546875l8.1875 0l0 1.578125l-9.96875 0zm12.4436035 0l0 -13.359375l5.921875 0q1.78125 0 2.703125 0.359375q0.9375 0.359375 1.484375 1.28125q0.5625 0.90625 0.5625 2.015625q0 1.40625 -0.921875 2.390625q-0.921875 0.96875 -2.84375 1.234375q0.703125 0.34375 1.078125 0.671875q0.765625 0.703125 1.453125 1.765625l2.328125 3.640625l-2.21875 0l-1.765625 -2.78125q-0.78125 -1.203125 -1.28125 -1.828125q-0.5 -0.640625 -0.90625 -0.890625q-0.390625 -0.265625 -0.796875 -0.359375q-0.296875 -0.078125 -0.984375 -0.078125l-2.046875 0l0 5.9375l-1.765625 0zm1.765625 -7.453125l3.796875 0q1.21875 0 1.890625 -0.25q0.6875 -0.265625 1.046875 -0.8125q0.359375 -0.546875 0.359375 -1.1875q0 -0.953125 -0.6875 -1.5625q-0.6875 -0.609375 -2.1875 -0.609375l-4.21875 0l0 4.421875zm17.926025 2.21875l0 -1.578125l5.65625 0l0 4.953125q-1.296875 1.046875 -2.6875 1.578125q-1.375 0.515625 -2.84375 0.515625q-1.96875 0 -3.578125 -0.84375q-1.609375 -0.84375 -2.421875 -2.4375q-0.8125 -1.59375 -0.8125 -3.5625q0 -1.953125 0.8125 -3.640625q0.8125 -1.6875 2.34375 -2.5q1.53125 -0.828125 3.515625 -0.828125q1.453125 0 2.625 0.46875q1.171875 0.46875 1.828125 1.3125q0.671875 0.828125 1.015625 2.171875l-1.59375 0.4375q-0.296875 -1.015625 -0.75 -1.59375q-0.4375 -0.59375 -1.265625 -0.9375q-0.828125 -0.34375 -1.84375 -0.34375q-1.203125 0 -2.09375 0.375q-0.890625 0.359375 -1.4375 0.96875q-0.53125 0.59375 -0.828125 1.3125q-0.515625 1.234375 -0.515625 2.6875q0 1.78125 0.609375 2.984375q0.625 1.203125 1.796875 1.796875q1.171875 0.578125 2.5 0.578125q1.140625 0 2.234375 -0.4375q1.09375 -0.453125 1.65625 -0.953125l0 -2.484375l-3.921875 0zm8.292725 5.234375l0 -13.359375l9.65625 0l0 1.578125l-7.875 0l0 4.09375l7.375 0l0 1.5625l-7.375 0l0 4.546875l8.1875 0l0 1.578125l-9.96875 0z" fill-rule="nonzero"/><path shape-rendering="crispEdges" fill="#ffffff" d="m10.625196 103.498764l248.53282 0l0 55.973755l-248.53282 0l0 -55.973755z" fill-rule="nonzero"/><path shape-rendering="crispEdges" fill="#ffffff" d="m259.15802 103.498764l198.82675 0l0 55.973755l-198.82675 0l0 -55.973755z" fill-rule="nonzero"/><path shape-rendering="crispEdges" fill="#ffffff" d="m457.98477 103.498764l281.66928 0l0 55.973755l-281.66928 0l0 -55.973755z" fill-rule="nonzero"/><path shape-rendering="crispEdges" fill="#ffffff" d="m739.65405 103.498764l248.53284 0l0 55.973755l-248.53284 0l0 -55.973755z" fill-rule="nonzero"/><path shape-rendering="crispEdges" fill="#ffffff" d="m988.1869 103.498764l171.20996 0l0 55.973755l-171.20996 0l0 -55.973755z" fill-rule="nonzero"/><path shape-rendering="crispEdges" fill="#ffffff" d="m10.625196 159.47252l248.53282 0l0 55.417328l-248.53282 0l0 -55.417328z" fill-rule="nonzero"/><path shape-rendering="crispEdges" fill="#ffffff" d="m259.15802 159.47252l198.82675 0l0 55.417328l-198.82675 0l0 -55.417328z" fill-rule="nonzero"/><path shape-rendering="crispEdges" fill="#ffffff" d="m457.98477 159.47252l281.66928 0l0 55.417328l-281.66928 0l0 -55.417328z" fill-rule="nonzero"/><path shape-rendering="crispEdges" fill="#ffffff" d="m739.65405 159.47252l248.53284 0l0 55.417328l-248.53284 0l0 -55.417328z" fill-rule="nonzero"/><path shape-rendering="crispEdges" fill="#ffffff" d="m988.1869 159.47252l171.20996 0l0 55.417328l-171.20996 0l0 -55.417328z" fill-rule="nonzero"/><path stroke="#000000" stroke-width="1.3333333333333333" stroke-linecap="butt" d="m10.625196 103.00008l0 112.38846" fill-rule="nonzero"/><path stroke="#000000" stroke-width="1.3333333333333333" stroke-linecap="butt" d="m259.15802 103.00008l0 112.38846" fill-rule="nonzero"/><path stroke="#000000" stroke-width="1.3333333333333333" stroke-linecap="butt" d="m457.98477 103.00008l0 112.38846" fill-rule="nonzero"/><path stroke="#000000" stroke-width="1.3333333333333333" stroke-linecap="butt" d="m739.65405 103.00008l0 112.38846" fill-rule="nonzero"/><path stroke="#000000" stroke-width="1.3333333333333333" stroke-linecap="butt" d="m988.1869 103.00008l0 112.38846" fill-rule="nonzero"/><path stroke="#000000" stroke-width="1.3333333333333333" stroke-linecap="butt" d="m1159.3969 103.00008l0 112.38846" fill-rule="nonzero"/><path stroke="#000000" stroke-width="1.3333333333333333" stroke-linecap="butt" d="m10.126509 103.498764l1149.769 0" fill-rule="nonzero"/><path stroke="#000000" stroke-width="1.3333333333333333" stroke-linecap="butt" d="m10.126509 159.47252l1149.769 0" fill-rule="nonzero"/><path stroke="#000000" stroke-width="1.3333333333333333" stroke-linecap="butt" d="m10.126509 214.88985l1149.769 0" fill-rule="nonzero"/><path fill="#000000" d="m50.02382 126.24564l0 2.3124924l-2.125 0l0 -1.8281174q0 -1.46875 0.34375 -2.140625q0.46875 -0.890625 1.484375 -1.34375l0.484375 0.78125q-0.609375 0.25 -0.90625 0.765625q-0.28125 0.5 -0.3125 1.453125l1.03125 0zm3.4375 0l0 2.3124924l-2.140625 0l0 -1.8281174q0 -1.46875 0.359375 -2.140625q0.46875 -0.890625 1.46875 -1.34375l0.484375 0.78125q-0.609375 0.25 -0.90625 0.765625q-0.28125 0.5 -0.3125 1.453125l1.046875 0zm14.372833 7.8124924l2.15625 0.546875q-0.671875 2.640625 -2.4375 4.03125q-1.75 1.390625 -4.28125 1.390625q-2.625 0 -4.265625 -1.0625q-1.640625 -1.078125 -2.5 -3.09375q-0.859375 -2.03125 -0.859375 -4.359375q0 -2.53125 0.96875 -4.4062424q0.96875 -1.890625 2.75 -2.875q1.796875 -0.984375 3.9375 -0.984375q2.4375 0 4.09375 1.25q1.65625 1.234375 2.3125 3.484375l-2.109375 0.49999237q-0.5625 -1.7812424 -1.640625 -2.5781174q-1.078125 -0.8125 -2.703125 -0.8125q-1.859375 0 -3.125 0.90625q-1.25 0.890625 -1.765625 2.4062424q-0.5 1.5 -0.5 3.109375q0 2.0625 0.59375 3.609375q0.609375 1.53125 1.875 2.296875q1.28125 0.765625 2.765625 0.765625q1.796875 0 3.046875 -1.03125q1.25 -1.046875 1.6875 -3.09375zm4.142868 -2.21875q0 -4.0312424 2.171875 -6.3124924q2.171875 -2.28125 5.59375 -2.28125q2.25 0 4.046875 1.078125q1.8125 1.0625 2.75 2.984375q0.953125 1.9218674 0.953125 4.3437424q0 2.46875 -1.0 4.421875q-1.0 1.953125 -2.828125 2.953125q-1.8125 1.0 -3.9375 1.0q-2.28125 0 -4.09375 -1.109375q-1.796875 -1.109375 -2.734375 -3.015625q-0.921875 -1.921875 -0.921875 -4.0625zm2.21875 0.046875q0 2.921875 1.5625 4.609375q1.578125 1.6875 3.96875 1.6875q2.421875 0 3.984375 -1.703125q1.5625 -1.703125 1.5625 -4.828125q0 -1.984375 -0.671875 -3.453125q-0.671875 -1.4843674 -1.96875 -2.2968674q-1.28125 -0.8125 -2.875 -0.8125q-2.28125 0 -3.921875 1.5625q-1.640625 1.5624924 -1.640625 5.2343674zm26.700882 -8.359367l2.140625 0l0 9.374992q0 2.4375 -0.546875 3.875q-0.546875 1.4375 -2.0 2.34375q-1.4375 0.90625 -3.78125 0.90625q-2.28125 0 -3.734375 -0.78125q-1.453125 -0.796875 -2.078125 -2.28125q-0.609375 -1.484375 -0.609375 -4.0625l0 -9.374992l2.140625 0l0 9.359367q0 2.109375 0.390625 3.109375q0.40625 1.0 1.359375 1.546875q0.953125 0.546875 2.34375 0.546875q2.359375 0 3.359375 -1.078125q1.015625 -1.078125 1.015625 -4.125l0 -9.359367zm5.689743 16.218742l0 -16.218742l2.203125 0l8.53125 12.734367l0 -12.734367l2.046875 0l0 16.218742l-2.203125 0l-8.515625 -12.749992l0 12.749992l-2.0625 0zm20.517868 0l0 -14.296867l-5.34375 0l0 -1.921875l12.859375 0l0 1.921875l-5.375 0l0 14.296867l-2.140625 0zm10.042465 4.765625l0 -21.265617l1.734375 0l0 21.265617l-1.734375 0zm5.30719 -18.687492l0 -2.296875l2.0 0l0 2.296875l-2.0 0zm0 13.921867l0 -11.749992l2.0 0l0 11.749992l-2.0 0zm5.033493 0l0 -11.749992l1.78125 0l0 1.6718674q1.296875 -1.9374924 3.75 -1.9374924q1.0625 0 1.953125 0.39061737q0.890625 0.375 1.328125 1.0q0.4375 0.609375 0.625 1.46875q0.109375 0.546875 0.109375 1.9375l0 7.21875l-2.0 0l0 -7.140625q0 -1.21875 -0.234375 -1.8125q-0.234375 -0.609375 -0.828125 -0.96875q-0.578125 -0.359375 -1.375 -0.359375q-1.28125 0 -2.203125 0.8125q-0.921875 0.796875 -0.921875 3.046875l0 6.421875l-1.984375 0zm16.944077 -1.78125l0.28125 1.765625q-0.84375 0.171875 -1.5 0.171875q-1.078125 0 -1.6875 -0.34375q-0.59375 -0.34375 -0.84375 -0.890625q-0.234375 -0.5625 -0.234375 -2.359375l0 -6.765625l-1.46875 0l0 -1.5468674l1.46875 0l0 -2.90625l1.984375 -1.203125l0 4.109375l2.0 0l0 1.5468674l-2.0 0l0 6.875q0 0.84375 0.09375 1.09375q0.109375 0.25 0.34375 0.390625q0.25 0.140625 0.6875 0.140625q0.328125 0 0.875 -0.078125zm9.982132 -2.0l2.0625 0.25q-0.484375 1.8125 -1.8125 2.8125q-1.3125 0.984375 -3.359375 0.984375q-2.578125 0 -4.09375 -1.578125q-1.5 -1.59375 -1.5 -4.46875q0 -2.953125 1.53125 -4.59375q1.53125 -1.6406174 3.953125 -1.6406174q2.359375 0 3.84375 1.6093674q1.5 1.59375 1.5 4.515625q0 0.171875 0 0.53125l-8.765625 0q0.109375 1.9375 1.09375 2.96875q0.984375 1.015625 2.453125 1.015625q1.09375 0 1.859375 -0.5625q0.78125 -0.578125 1.234375 -1.84375zm-6.53125 -3.21875l6.5625 0q-0.140625 -1.484375 -0.75 -2.21875q-0.953125 -1.15625 -2.46875 -1.15625q-1.375 0 -2.3125 0.921875q-0.9375 0.90625 -1.03125 2.453125zm11.069077 7.0l0 -11.749992l1.796875 0l0 1.7812424q0.6875 -1.25 1.265625 -1.640625q0.578125 -0.40624237 1.28125 -0.40624237q1.0 0 2.046875 0.6406174l-0.6875 1.84375q-0.734375 -0.421875 -1.46875 -0.421875q-0.640625 0 -1.171875 0.390625q-0.515625 0.390625 -0.734375 1.09375q-0.328125 1.0625 -0.328125 2.3125l0 6.15625l-2.0 0zm7.5759583 0l0 -11.749992l1.78125 0l0 1.6718674q1.296875 -1.9374924 3.75 -1.9374924q1.0625 0 1.953125 0.39061737q0.890625 0.375 1.328125 1.0q0.4375 0.609375 0.625 1.46875q0.109375 0.546875 0.109375 1.9375l0 7.21875l-2.0 0l0 -7.140625q0 -1.21875 -0.234375 -1.8125q-0.234375 -0.609375 -0.828125 -0.96875q-0.578125 -0.359375 -1.375 -0.359375q-1.28125 0 -2.203125 0.8125q-0.921875 0.796875 -0.921875 3.046875l0 6.421875l-1.984375 0zm20.256577 -1.453125q-1.109375 0.9375 -2.140625 1.328125q-1.015625 0.390625 -2.1875 0.390625q-1.9375 0 -2.984375 -0.9375q-1.03125 -0.953125 -1.03125 -2.421875q0 -0.859375 0.390625 -1.578125q0.40625 -0.71875 1.03125 -1.140625q0.640625 -0.4375 1.4375 -0.65625q0.59375 -0.15625 1.765625 -0.296875q2.421875 -0.296875 3.5625 -0.6875q0 -0.40625 0 -0.515625q0 -1.21875 -0.5625 -1.71875q-0.765625 -0.671875 -2.265625 -0.671875q-1.40625 0 -2.078125 0.5q-0.671875 0.484375 -0.984375 1.734375l-1.953125 -0.265625q0.265625 -1.25 0.875 -2.015625q0.609375 -0.78125 1.75 -1.1875q1.15625 -0.42186737 2.671875 -0.42186737q1.515625 0 2.453125 0.35936737q0.9375 0.34375 1.375 0.890625q0.453125 0.53125 0.625 1.34375q0.09375 0.515625 0.09375 1.84375l0 2.65625q0 2.78125 0.125 3.515625q0.140625 0.734375 0.515625 1.40625l-2.078125 0q-0.3125 -0.625 -0.40625 -1.453125zm-0.15625 -4.4375q-1.09375 0.4375 -3.265625 0.75q-1.21875 0.171875 -1.734375 0.390625q-0.5 0.21875 -0.78125 0.65625q-0.28125 0.421875 -0.28125 0.9375q0 0.796875 0.609375 1.328125q0.609375 0.53125 1.765625 0.53125q1.140625 0 2.03125 -0.5q0.90625 -0.5 1.328125 -1.375q0.328125 -0.671875 0.328125 -2.0l0 -0.71875zm5.0534515 5.890625l0 -16.218742l1.984375 0l0 16.218742l-1.984375 0zm4.549118 -14.078117l0 -2.3125l2.125 0l0 1.828125q0 1.484375 -0.34375 2.140625q-0.46875 0.8906174 -1.484375 1.3437424l-0.484375 -0.7812424q0.609375 -0.25 0.890625 -0.765625q0.296875 -0.53125 0.328125 -1.453125l-1.03125 0zm3.421875 0l0 -2.3125l2.140625 0l0 1.828125q0 1.484375 -0.34375 2.140625q-0.484375 0.8906174 -1.484375 1.3437424l-0.484375 -0.7812424q0.59375 -0.25 0.890625 -0.765625q0.296875 -0.53125 0.328125 -1.453125l-1.046875 0z" fill-rule="nonzero"/><path fill="#000000" d="m355.5178 134.87064l0 -2.0l6.125 0l0 2.0l-6.125 0z" fill-rule="nonzero"/><path fill="#000000" d="m551.5732 139.74564l6.21875 -16.218742l2.3125 0l6.640625 16.218742l-2.4375 0l-1.890625 -4.90625l-6.78125 0l-1.78125 4.90625l-2.28125 0zm4.671875 -6.65625l5.5 0l-1.6875 -4.5q-0.78125 -2.0468674 -1.15625 -3.3593674q-0.3125 1.5625 -0.875 3.0937424l-1.78125 4.765625zm12.158447 6.65625l0 -16.218742l3.21875 0l3.84375 11.484367q0.53125 1.609375 0.78125 2.40625q0.265625 -0.890625 0.859375 -2.609375l3.875 -11.281242l2.890625 0l0 16.218742l-2.0625 0l0 -13.578117l-4.71875 13.578117l-1.9375 0l-4.6875 -13.812492l0 13.812492l-2.0625 0zm18.591553 4.53125l-0.21875 -1.875q0.65625 0.171875 1.140625 0.171875q0.65625 0 1.046875 -0.21875q0.40625 -0.21875 0.65625 -0.625q0.1875 -0.296875 0.609375 -1.46875q0.0625 -0.171875 0.1875 -0.5l-4.46875 -11.765617l2.15625 0l2.4375 6.8124924q0.484375 1.28125 0.859375 2.71875q0.34375 -1.375 0.8125 -2.6875l2.515625 -6.8437424l1.984375 0l-4.46875 11.953117q-0.71875 1.9375 -1.109375 2.65625q-0.53125 0.984375 -1.21875 1.4375q-0.6875 0.46875 -1.640625 0.46875q-0.578125 0 -1.28125 -0.234375zm15.796875 -4.53125l0 -14.296867l-5.34375 0l0 -1.921875l12.859375 0l0 1.921875l-5.375 0l0 14.296867l-2.140625 0zm8.119934 4.53125l-0.21875 -1.875q0.65625 0.171875 1.140625 0.171875q0.65625 0 1.046875 -0.21875q0.40625 -0.21875 0.65625 -0.625q0.1875 -0.296875 0.609375 -1.46875q0.0625 -0.171875 0.1875 -0.5l-4.46875 -11.765617l2.15625 0l2.4375 6.8124924q0.484375 1.28125 0.859375 2.71875q0.34375 -1.375 0.8125 -2.6875l2.515625 -6.8437424l1.984375 0l-4.46875 11.953117q-0.71875 1.9375 -1.109375 2.65625q-0.53125 0.984375 -1.21875 1.4375q-0.6875 0.46875 -1.640625 0.46875q-0.578125 0 -1.28125 -0.234375zm11.421875 -0.03125l0 -16.249992l1.8125 0l0 1.5312424q0.640625 -0.90625 1.4375 -1.34375q0.8125 -0.45311737 1.96875 -0.45311737q1.5 0 2.640625 0.7812424q1.15625 0.765625 1.734375 2.1875q0.59375 1.40625 0.59375 3.078125q0 1.8125 -0.640625 3.265625q-0.640625 1.4375 -1.875 2.203125q-1.234375 0.765625 -2.59375 0.765625q-1.0 0 -1.796875 -0.421875q-0.78125 -0.421875 -1.296875 -1.0625l0 5.71875l-1.984375 0zm1.796875 -10.3125q0 2.265625 0.921875 3.359375q0.921875 1.078125 2.21875 1.078125q1.328125 0 2.265625 -1.125q0.953125 -1.125 0.953125 -3.46875q0 -2.25 -0.921875 -3.359375q-0.921875 -1.125 -2.203125 -1.125q-1.28125 0 -2.265625 1.1875q-0.96875 1.1875 -0.96875 3.453125zm18.834717 2.03125l2.0625 0.25q-0.484375 1.8125 -1.8125 2.8125q-1.3125 0.984375 -3.359375 0.984375q-2.578125 0 -4.09375 -1.578125q-1.5 -1.59375 -1.5 -4.46875q0 -2.953125 1.53125 -4.59375q1.53125 -1.6406174 3.953125 -1.6406174q2.359375 0 3.84375 1.6093674q1.5 1.59375 1.5 4.515625q0 0.171875 0 0.53125l-8.765625 0q0.109375 1.9375 1.09375 2.96875q0.984375 1.015625 2.453125 1.015625q1.09375 0 1.859375 -0.5625q0.78125 -0.578125 1.234375 -1.84375zm-6.53125 -3.21875l6.5625 0q-0.140625 -1.484375 -0.75 -2.21875q-0.953125 -1.15625 -2.46875 -1.15625q-1.375 0 -2.3125 0.921875q-0.9375 0.90625 -1.03125 2.453125z" fill-rule="nonzero"/><path fill="#000000" d="m841.2219 139.74564l6.21875 -16.218742l2.3125 0l6.640625 16.218742l-2.4375 0l-1.890625 -4.90625l-6.78125 0l-1.78125 4.90625l-2.28125 0zm4.671875 -6.65625l5.5 0l-1.6875 -4.5q-0.78125 -2.0468674 -1.15625 -3.3593674q-0.3125 1.5625 -0.875 3.0937424l-1.78125 4.765625zm21.236511 4.75q-0.984375 1.09375 -2.15625 1.640625q-1.15625 0.546875 -2.5 0.546875q-2.484375 0 -3.953125 -1.6875q-1.1875 -1.375 -1.1875 -3.0625q0 -1.5 0.96875 -2.703125q0.96875 -1.21875 2.890625 -2.140625q-1.09375 -1.265625 -1.453125 -2.046875q-0.359375 -0.7812424 -0.359375 -1.5156174q0 -1.46875 1.140625 -2.546875q1.140625 -1.078125 2.875 -1.078125q1.65625 0 2.71875 1.03125q1.0625 1.015625 1.0625 2.4375q0 2.3124924 -3.0625 3.9531174l2.90625 3.703125q0.5 -0.96875 0.765625 -2.265625l2.078125 0.453125q-0.53125 2.125 -1.4375 3.5q1.109375 1.46875 2.53125 2.484375l-1.34375 1.578125q-1.203125 -0.765625 -2.484375 -2.28125zm-4.046875 -8.453125q1.296875 -0.765625 1.671875 -1.34375q0.375 -0.5781174 0.375 -1.2656174q0 -0.84375 -0.53125 -1.359375q-0.515625 -0.53125 -1.296875 -0.53125q-0.8125 0 -1.34375 0.53125q-0.53125 0.515625 -0.53125 1.265625q0 0.375 0.1875 0.796875q0.1875 0.40625 0.578125 0.8749924l0.890625 1.03125zm2.796875 6.875l-3.65625 -4.53125q-1.609375 0.96875 -2.171875 1.796875q-0.5625 0.8125 -0.5625 1.625q0 0.984375 0.78125 2.046875q0.78125 1.0625 2.21875 1.0625q0.90625 0 1.859375 -0.546875q0.953125 -0.5625 1.53125 -1.453125zm7.2521973 3.484375l0 -16.218742l6.09375 0q1.859375 0 2.96875 0.5q1.125 0.484375 1.765625 1.515625q0.640625 1.015625 0.640625 2.140625q0 1.0312424 -0.578125 1.9531174q-0.5625 0.921875 -1.6875 1.484375q1.46875 0.421875 2.25 1.46875q0.796875 1.03125 0.796875 2.453125q0 1.140625 -0.484375 2.125q-0.484375 0.96875 -1.1875 1.5q-0.703125 0.53125 -1.78125 0.8125q-1.0625 0.265625 -2.609375 0.265625l-6.1875 0zm2.15625 -9.40625l3.5 0q1.421875 0 2.046875 -0.1875q0.8125 -0.234375 1.21875 -0.796875q0.421875 -0.578125 0.421875 -1.4218674q0 -0.8125 -0.390625 -1.421875q-0.375 -0.609375 -1.09375 -0.828125q-0.71875 -0.234375 -2.46875 -0.234375l-3.234375 0l0 4.8906174zm0 7.5l4.03125 0q1.046875 0 1.453125 -0.078125q0.75 -0.140625 1.25 -0.453125q0.5 -0.3125 0.8125 -0.890625q0.328125 -0.59375 0.328125 -1.375q0 -0.90625 -0.46875 -1.578125q-0.46875 -0.671875 -1.296875 -0.9375q-0.8125 -0.265625 -2.359375 -0.265625l-3.75 0l0 5.578125z" fill-rule="nonzero"/><path fill="#000000" d="m1062.129 135.49564l2.09375 -0.171875q0.234375 1.53125 1.078125 2.296875q0.84375 0.765625 2.046875 0.765625q1.4375 0 2.421875 -1.078125q1.0 -1.09375 1.0 -2.890625q0 -1.703125 -0.953125 -2.6875q-0.953125 -0.984375 -2.5 -0.984375q-0.96875 0 -1.75 0.4375q-0.765625 0.4375 -1.21875 1.140625l-1.859375 -0.25l1.5625 -8.328117l8.078125 0l0 1.90625l-6.484375 0l-0.875 4.3593674q1.46875 -1.015625 3.078125 -1.015625q2.109375 0 3.5625 1.46875q1.46875 1.46875 1.46875 3.78125q0 2.203125 -1.28125 3.8125q-1.5625 1.96875 -4.25 1.96875q-2.21875 0 -3.625 -1.234375q-1.390625 -1.25 -1.59375 -3.296875zm12.600342 -3.75q0 -2.875 0.59375 -4.6249924q0.59375 -1.75 1.75 -2.703125q1.171875 -0.953125 2.953125 -0.953125q1.296875 0 2.28125 0.53125q0.984375 0.515625 1.625 1.515625q0.640625 0.984375 1.0 2.40625q0.375 1.4218674 0.375 3.8281174q0 2.859375 -0.59375 4.609375q-0.578125 1.75 -1.75 2.71875q-1.15625 0.953125 -2.9375 0.953125q-2.34375 0 -3.6875 -1.6875q-1.609375 -2.015625 -1.609375 -6.59375zm2.046875 0q0 4.0 0.9375 5.328125q0.9375 1.3125 2.3125 1.3125q1.359375 0 2.296875 -1.328125q0.9375 -1.328125 0.9375 -5.3125q0 -3.9999924 -0.9375 -5.3124924q-0.9375 -1.328125 -2.328125 -1.328125q-1.375 0 -2.1875 1.171875q-1.03125 1.484375 -1.03125 5.4687424z" fill-rule="nonzero"/><path fill="#000000" d="m50.02382 181.94118l0 2.3125l-2.125 0l0 -1.828125q0 -1.46875 0.34375 -2.140625q0.46875 -0.890625 1.484375 -1.34375l0.484375 0.78125q-0.609375 0.25 -0.90625 0.765625q-0.28125 0.5 -0.3125 1.453125l1.03125 0zm3.4375 0l0 2.3125l-2.140625 0l0 -1.828125q0 -1.46875 0.359375 -2.140625q0.46875 -0.890625 1.46875 -1.34375l0.484375 0.78125q-0.609375 0.25 -0.90625 0.765625q-0.28125 0.5 -0.3125 1.453125l1.046875 0zm14.372833 7.8125l2.15625 0.546875q-0.671875 2.640625 -2.4375 4.03125q-1.75 1.390625 -4.28125 1.390625q-2.625 0 -4.265625 -1.0625q-1.640625 -1.078125 -2.5 -3.09375q-0.859375 -2.03125 -0.859375 -4.359375q0 -2.53125 0.96875 -4.40625q0.96875 -1.890625 2.75 -2.875q1.796875 -0.984375 3.9375 -0.984375q2.4375 0 4.09375 1.25q1.65625 1.234375 2.3125 3.484375l-2.109375 0.5q-0.5625 -1.78125 -1.640625 -2.578125q-1.078125 -0.8125 -2.703125 -0.8125q-1.859375 0 -3.125 0.90625q-1.25 0.890625 -1.765625 2.40625q-0.5 1.5 -0.5 3.109375q0 2.0625 0.59375 3.609375q0.609375 1.53125 1.875 2.296875q1.28125 0.765625 2.765625 0.765625q1.796875 0 3.046875 -1.03125q1.25 -1.046875 1.6875 -3.09375zm4.142868 -2.21875q0 -4.03125 2.171875 -6.3125q2.171875 -2.28125 5.59375 -2.28125q2.25 0 4.046875 1.078125q1.8125 1.0625 2.75 2.984375q0.953125 1.921875 0.953125 4.34375q0 2.46875 -1.0 4.421875q-1.0 1.953125 -2.828125 2.953125q-1.8125 1.0 -3.9375 1.0q-2.28125 0 -4.09375 -1.109375q-1.796875 -1.109375 -2.734375 -3.015625q-0.921875 -1.921875 -0.921875 -4.0625zm2.21875 0.046875q0 2.921875 1.5625 4.609375q1.578125 1.6875 3.96875 1.6875q2.421875 0 3.984375 -1.703125q1.5625 -1.703125 1.5625 -4.828125q0 -1.984375 -0.671875 -3.453125q-0.671875 -1.484375 -1.96875 -2.296875q-1.28125 -0.8125 -2.875 -0.8125q-2.28125 0 -3.921875 1.5625q-1.640625 1.5625 -1.640625 5.234375zm26.700882 -8.359375l2.140625 0l0 9.375q0 2.4375 -0.546875 3.875q-0.546875 1.4375 -2.0 2.34375q-1.4375 0.90625 -3.78125 0.90625q-2.28125 0 -3.734375 -0.78125q-1.453125 -0.796875 -2.078125 -2.28125q-0.609375 -1.484375 -0.609375 -4.0625l0 -9.375l2.140625 0l0 9.359375q0 2.109375 0.390625 3.109375q0.40625 1.0 1.359375 1.546875q0.953125 0.546875 2.34375 0.546875q2.359375 0 3.359375 -1.078125q1.015625 -1.078125 1.015625 -4.125l0 -9.359375zm5.689743 16.21875l0 -16.21875l2.203125 0l8.53125 12.734375l0 -12.734375l2.046875 0l0 16.21875l-2.203125 0l-8.515625 -12.75l0 12.75l-2.0625 0zm20.517868 0l0 -14.296875l-5.34375 0l0 -1.921875l12.859375 0l0 1.921875l-5.375 0l0 14.296875l-2.140625 0zm10.042465 4.765625l0 -21.265625l1.734375 0l0 21.265625l-1.734375 0zm5.30719 -18.6875l0 -2.296875l2.0 0l0 2.296875l-2.0 0zm0 13.921875l0 -11.75l2.0 0l0 11.75l-2.0 0zm5.033493 0l0 -11.75l1.78125 0l0 1.671875q1.296875 -1.9375 3.75 -1.9375q1.0625 0 1.953125 0.390625q0.890625 0.375 1.328125 1.0q0.4375 0.609375 0.625 1.46875q0.109375 0.546875 0.109375 1.9375l0 7.21875l-2.0 0l0 -7.140625q0 -1.21875 -0.234375 -1.8125q-0.234375 -0.609375 -0.828125 -0.96875q-0.578125 -0.359375 -1.375 -0.359375q-1.28125 0 -2.203125 0.8125q-0.921875 0.796875 -0.921875 3.046875l0 6.421875l-1.984375 0zm16.944077 -1.78125l0.28125 1.765625q-0.84375 0.171875 -1.5 0.171875q-1.078125 0 -1.6875 -0.34375q-0.59375 -0.34375 -0.84375 -0.890625q-0.234375 -0.5625 -0.234375 -2.359375l0 -6.765625l-1.46875 0l0 -1.546875l1.46875 0l0 -2.90625l1.984375 -1.203125l0 4.109375l2.0 0l0 1.546875l-2.0 0l0 6.875q0 0.84375 0.09375 1.09375q0.109375 0.25 0.34375 0.390625q0.25 0.140625 0.6875 0.140625q0.328125 0 0.875 -0.078125zm9.982132 -2.0l2.0625 0.25q-0.484375 1.8125 -1.8125 2.8125q-1.3125 0.984375 -3.359375 0.984375q-2.578125 0 -4.09375 -1.578125q-1.5 -1.59375 -1.5 -4.46875q0 -2.953125 1.53125 -4.59375q1.53125 -1.640625 3.953125 -1.640625q2.359375 0 3.84375 1.609375q1.5 1.59375 1.5 4.515625q0 0.171875 0 0.53125l-8.765625 0q0.109375 1.9375 1.09375 2.96875q0.984375 1.015625 2.453125 1.015625q1.09375 0 1.859375 -0.5625q0.78125 -0.578125 1.234375 -1.84375zm-6.53125 -3.21875l6.5625 0q-0.140625 -1.484375 -0.75 -2.21875q-0.953125 -1.15625 -2.46875 -1.15625q-1.375 0 -2.3125 0.921875q-0.9375 0.90625 -1.03125 2.453125zm11.069077 7.0l0 -11.75l1.796875 0l0 1.78125q0.6875 -1.25 1.265625 -1.640625q0.578125 -0.40625 1.28125 -0.40625q1.0 0 2.046875 0.640625l-0.6875 1.84375q-0.734375 -0.421875 -1.46875 -0.421875q-0.640625 0 -1.171875 0.390625q-0.515625 0.390625 -0.734375 1.09375q-0.328125 1.0625 -0.328125 2.3125l0 6.15625l-2.0 0zm7.5759583 0l0 -11.75l1.78125 0l0 1.671875q1.296875 -1.9375 3.75 -1.9375q1.0625 0 1.953125 0.390625q0.890625 0.375 1.328125 1.0q0.4375 0.609375 0.625 1.46875q0.109375 0.546875 0.109375 1.9375l0 7.21875l-2.0 0l0 -7.140625q0 -1.21875 -0.234375 -1.8125q-0.234375 -0.609375 -0.828125 -0.96875q-0.578125 -0.359375 -1.375 -0.359375q-1.28125 0 -2.203125 0.8125q-0.921875 0.796875 -0.921875 3.046875l0 6.421875l-1.984375 0zm20.256577 -1.453125q-1.109375 0.9375 -2.140625 1.328125q-1.015625 0.390625 -2.1875 0.390625q-1.9375 0 -2.984375 -0.9375q-1.03125 -0.953125 -1.03125 -2.421875q0 -0.859375 0.390625 -1.578125q0.40625 -0.71875 1.03125 -1.140625q0.640625 -0.4375 1.4375 -0.65625q0.59375 -0.15625 1.765625 -0.296875q2.421875 -0.296875 3.5625 -0.6875q0 -0.40625 0 -0.515625q0 -1.21875 -0.5625 -1.71875q-0.765625 -0.671875 -2.265625 -0.671875q-1.40625 0 -2.078125 0.5q-0.671875 0.484375 -0.984375 1.734375l-1.953125 -0.265625q0.265625 -1.25 0.875 -2.015625q0.609375 -0.78125 1.75 -1.1875q1.15625 -0.421875 2.671875 -0.421875q1.515625 0 2.453125 0.359375q0.9375 0.34375 1.375 0.890625q0.453125 0.53125 0.625 1.34375q0.09375 0.515625 0.09375 1.84375l0 2.65625q0 2.78125 0.125 3.515625q0.140625 0.734375 0.515625 1.40625l-2.078125 0q-0.3125 -0.625 -0.40625 -1.453125zm-0.15625 -4.4375q-1.09375 0.4375 -3.265625 0.75q-1.21875 0.171875 -1.734375 0.390625q-0.5 0.21875 -0.78125 0.65625q-0.28125 0.421875 -0.28125 0.9375q0 0.796875 0.609375 1.328125q0.609375 0.53125 1.765625 0.53125q1.140625 0 2.03125 -0.5q0.90625 -0.5 1.328125 -1.375q0.328125 -0.671875 0.328125 -2.0l0 -0.71875zm5.0534515 5.890625l0 -16.21875l1.984375 0l0 16.21875l-1.984375 0zm4.549118 -14.078125l0 -2.3125l2.125 0l0 1.828125q0 1.484375 -0.34375 2.140625q-0.46875 0.890625 -1.484375 1.34375l-0.484375 -0.78125q0.609375 -0.25 0.890625 -0.765625q0.296875 -0.53125 0.328125 -1.453125l-1.03125 0zm3.421875 0l0 -2.3125l2.140625 0l0 1.828125q0 1.484375 -0.34375 2.140625q-0.484375 0.890625 -1.484375 1.34375l-0.484375 -0.78125q0.59375 -0.25 0.890625 -0.765625q0.296875 -0.53125 0.328125 -1.453125l-1.046875 0z" fill-rule="nonzero"/><path fill="#000000" d="m355.5178 190.56618l0 -2.0l6.125 0l0 2.0l-6.125 0z" fill-rule="nonzero"/><path fill="#000000" d="m551.5732 195.44118l6.21875 -16.21875l2.3125 0l6.640625 16.21875l-2.4375 0l-1.890625 -4.90625l-6.78125 0l-1.78125 4.90625l-2.28125 0zm4.671875 -6.65625l5.5 0l-1.6875 -4.5q-0.78125 -2.046875 -1.15625 -3.359375q-0.3125 1.5625 -0.875 3.09375l-1.78125 4.765625zm12.158447 6.65625l0 -16.21875l3.21875 0l3.84375 11.484375q0.53125 1.609375 0.78125 2.40625q0.265625 -0.890625 0.859375 -2.609375l3.875 -11.28125l2.890625 0l0 16.21875l-2.0625 0l0 -13.578125l-4.71875 13.578125l-1.9375 0l-4.6875 -13.8125l0 13.8125l-2.0625 0zm18.591553 4.53125l-0.21875 -1.875q0.65625 0.171875 1.140625 0.171875q0.65625 0 1.046875 -0.21875q0.40625 -0.21875 0.65625 -0.625q0.1875 -0.296875 0.609375 -1.46875q0.0625 -0.171875 0.1875 -0.5l-4.46875 -11.765625l2.15625 0l2.4375 6.8125q0.484375 1.28125 0.859375 2.71875q0.34375 -1.375 0.8125 -2.6875l2.515625 -6.84375l1.984375 0l-4.46875 11.953125q-0.71875 1.9375 -1.109375 2.65625q-0.53125 0.984375 -1.21875 1.4375q-0.6875 0.46875 -1.640625 0.46875q-0.578125 0 -1.28125 -0.234375zm15.796875 -4.53125l0 -14.296875l-5.34375 0l0 -1.921875l12.859375 0l0 1.921875l-5.375 0l0 14.296875l-2.140625 0zm8.119934 4.53125l-0.21875 -1.875q0.65625 0.171875 1.140625 0.171875q0.65625 0 1.046875 -0.21875q0.40625 -0.21875 0.65625 -0.625q0.1875 -0.296875 0.609375 -1.46875q0.0625 -0.171875 0.1875 -0.5l-4.46875 -11.765625l2.15625 0l2.4375 6.8125q0.484375 1.28125 0.859375 2.71875q0.34375 -1.375 0.8125 -2.6875l2.515625 -6.84375l1.984375 0l-4.46875 11.953125q-0.71875 1.9375 -1.109375 2.65625q-0.53125 0.984375 -1.21875 1.4375q-0.6875 0.46875 -1.640625 0.46875q-0.578125 0 -1.28125 -0.234375zm11.421875 -0.03125l0 -16.25l1.8125 0l0 1.53125q0.640625 -0.90625 1.4375 -1.34375q0.8125 -0.453125 1.96875 -0.453125q1.5 0 2.640625 0.78125q1.15625 0.765625 1.734375 2.1875q0.59375 1.40625 0.59375 3.078125q0 1.8125 -0.640625 3.265625q-0.640625 1.4375 -1.875 2.203125q-1.234375 0.765625 -2.59375 0.765625q-1.0 0 -1.796875 -0.421875q-0.78125 -0.421875 -1.296875 -1.0625l0 5.71875l-1.984375 0zm1.796875 -10.3125q0 2.265625 0.921875 3.359375q0.921875 1.078125 2.21875 1.078125q1.328125 0 2.265625 -1.125q0.953125 -1.125 0.953125 -3.46875q0 -2.25 -0.921875 -3.359375q-0.921875 -1.125 -2.203125 -1.125q-1.28125 0 -2.265625 1.1875q-0.96875 1.1875 -0.96875 3.453125zm18.834717 2.03125l2.0625 0.25q-0.484375 1.8125 -1.8125 2.8125q-1.3125 0.984375 -3.359375 0.984375q-2.578125 0 -4.09375 -1.578125q-1.5 -1.59375 -1.5 -4.46875q0 -2.953125 1.53125 -4.59375q1.53125 -1.640625 3.953125 -1.640625q2.359375 0 3.84375 1.609375q1.5 1.59375 1.5 4.515625q0 0.171875 0 0.53125l-8.765625 0q0.109375 1.9375 1.09375 2.96875q0.984375 1.015625 2.453125 1.015625q1.09375 0 1.859375 -0.5625q0.78125 -0.578125 1.234375 -1.84375zm-6.53125 -3.21875l6.5625 0q-0.140625 -1.484375 -0.75 -2.21875q-0.953125 -1.15625 -2.46875 -1.15625q-1.375 0 -2.3125 0.921875q-0.9375 0.90625 -1.03125 2.453125z" fill-rule="nonzero"/><path fill="#000000" d="m840.59686 195.44118l6.21875 -16.21875l2.3125 0l6.640625 16.21875l-2.4375 0l-1.890625 -4.90625l-6.78125 0l-1.78125 4.90625l-2.28125 0zm4.671875 -6.65625l5.5 0l-1.6875 -4.5q-0.78125 -2.046875 -1.15625 -3.359375q-0.3125 1.5625 -0.875 3.09375l-1.78125 4.765625zm21.236572 4.75q-0.984375 1.09375 -2.15625 1.640625q-1.15625 0.546875 -2.5 0.546875q-2.484375 0 -3.953125 -1.6875q-1.1875 -1.375 -1.1875 -3.0625q0 -1.5 0.96875 -2.703125q0.96875 -1.21875 2.890625 -2.140625q-1.09375 -1.265625 -1.453125 -2.046875q-0.359375 -0.78125 -0.359375 -1.515625q0 -1.46875 1.140625 -2.546875q1.140625 -1.078125 2.875 -1.078125q1.65625 0 2.71875 1.03125q1.0625 1.015625 1.0625 2.4375q0 2.3125 -3.0625 3.953125l2.90625 3.703125q0.5 -0.96875 0.765625 -2.265625l2.078125 0.453125q-0.53125 2.125 -1.4375 3.5q1.109375 1.46875 2.53125 2.484375l-1.34375 1.578125q-1.203125 -0.765625 -2.484375 -2.28125zm-4.046875 -8.453125q1.296875 -0.765625 1.671875 -1.34375q0.375 -0.578125 0.375 -1.265625q0 -0.84375 -0.53125 -1.359375q-0.515625 -0.53125 -1.296875 -0.53125q-0.8125 0 -1.34375 0.53125q-0.53125 0.515625 -0.53125 1.265625q0 0.375 0.1875 0.796875q0.1875 0.40625 0.578125 0.875l0.890625 1.03125zm2.796875 6.875l-3.65625 -4.53125q-1.609375 0.96875 -2.171875 1.796875q-0.5625 0.8125 -0.5625 1.625q0 0.984375 0.78125 2.046875q0.78125 1.0625 2.21875 1.0625q0.90625 0 1.859375 -0.546875q0.953125 -0.5625 1.53125 -1.453125zm18.908386 -2.203125l2.15625 0.546875q-0.671875 2.640625 -2.4375 4.03125q-1.75 1.390625 -4.28125 1.390625q-2.625 0 -4.265625 -1.0625q-1.640625 -1.078125 -2.5 -3.09375q-0.859375 -2.03125 -0.859375 -4.359375q0 -2.53125 0.96875 -4.40625q0.96875 -1.890625 2.75 -2.875q1.796875 -0.984375 3.9375 -0.984375q2.4375 0 4.09375 1.25q1.65625 1.234375 2.3125 3.484375l-2.109375 0.5q-0.5625 -1.78125 -1.640625 -2.578125q-1.078125 -0.8125 -2.703125 -0.8125q-1.859375 0 -3.125 0.90625q-1.25 0.890625 -1.765625 2.40625q-0.5 1.5 -0.5 3.109375q0 2.0625 0.59375 3.609375q0.609375 1.53125 1.875 2.296875q1.28125 0.765625 2.765625 0.765625q1.796875 0 3.046875 -1.03125q1.25 -1.046875 1.6875 -3.09375z" fill-rule="nonzero"/><path fill="#000000" d="m1072.4572 183.19118l-1.96875 0.15625q-0.265625 -1.171875 -0.75 -1.703125q-0.8125 -0.84375 -2.0 -0.84375q-0.953125 0 -1.671875 0.53125q-0.9375 0.671875 -1.484375 2.0q-0.53125 1.3125 -0.5625 3.75q0.71875 -1.09375 1.75 -1.625q1.046875 -0.53125 2.1875 -0.53125q2.0 0 3.390625 1.46875q1.40625 1.453125 1.40625 3.78125q0 1.53125 -0.65625 2.84375q-0.65625 1.296875 -1.8125 2.0q-1.15625 0.703125 -2.609375 0.703125q-2.484375 0 -4.0625 -1.828125q-1.5625 -1.84375 -1.5625 -6.046875q0 -4.703125 1.734375 -6.828125q1.515625 -1.859375 4.078125 -1.859375q1.90625 0 3.125 1.078125q1.234375 1.0625 1.46875 2.953125zm-8.125 7.0q0 1.03125 0.4375 1.96875q0.4375 0.9375 1.21875 1.4375q0.796875 0.484375 1.65625 0.484375q1.25 0 2.15625 -1.015625q0.921875 -1.015625 0.921875 -2.765625q0 -1.6875 -0.90625 -2.65625q-0.890625 -0.96875 -2.25 -0.96875q-1.359375 0 -2.296875 0.96875q-0.9375 0.96875 -0.9375 2.546875zm10.397217 -2.75q0 -2.875 0.59375 -4.625q0.59375 -1.75 1.75 -2.703125q1.171875 -0.953125 2.953125 -0.953125q1.296875 0 2.28125 0.53125q0.984375 0.515625 1.625 1.515625q0.640625 0.984375 1.0 2.40625q0.375 1.421875 0.375 3.828125q0 2.859375 -0.59375 4.609375q-0.578125 1.75 -1.75 2.71875q-1.15625 0.953125 -2.9375 0.953125q-2.34375 0 -3.6875 -1.6875q-1.609375 -2.015625 -1.609375 -6.59375zm2.046875 0q0 4.0 0.9375 5.328125q0.9375 1.3125 2.3125 1.3125q1.359375 0 2.296875 -1.328125q0.9375 -1.328125 0.9375 -5.3125q0 -4.0 -0.9375 -5.3125q-0.9375 -1.328125 -2.328125 -1.328125q-1.375 0 -2.1875 1.171875q-1.03125 1.484375 -1.03125 5.46875z" fill-rule="nonzero"/><path shape-rendering="crispEdges" fill="#ffffff" d="m10.626509 16.464226l977.7375 0l0 39.333332l-977.7375 0l0 -39.333332z" fill-rule="nonzero"/><path shape-rendering="crispEdges" fill="#ffffff" d="m988.364 16.464226l171.03418 0l0 74.666664l-171.03418 0l0 -74.666664z" fill-rule="nonzero"/><path shape-rendering="crispEdges" fill="#ffffff" d="m10.626509 55.797558l248.30183 0l0 35.333332l-248.30183 0l0 -35.333332z" fill-rule="nonzero"/><path shape-rendering="crispEdges" fill="#ffffff" d="m258.92834 55.797558l199.05774 0l0 35.333332l-199.05774 0l0 -35.333332z" fill-rule="nonzero"/><path shape-rendering="crispEdges" fill="#ffffff" d="m457.98608 55.797558l281.6693 0l0 35.333332l-281.6693 0l0 -35.333332z" fill-rule="nonzero"/><path shape-rendering="crispEdges" fill="#ffffff" d="m739.6554 55.797558l248.70862 0l0 35.333332l-248.70862 0l0 -35.333332z" fill-rule="nonzero"/><path stroke="#000000" stroke-width="1.3333333333333333" stroke-linecap="butt" d="m10.626509 15.965538l0 75.66404" fill-rule="nonzero"/><path stroke="#000000" stroke-width="1.3333333333333333" stroke-linecap="butt" d="m258.92834 55.29887l0 36.330708" fill-rule="nonzero"/><path stroke="#000000" stroke-width="1.3333333333333333" stroke-linecap="butt" d="m457.98608 55.29887l0 36.330708" fill-rule="nonzero"/><path stroke="#000000" stroke-width="1.3333333333333333" stroke-linecap="butt" d="m739.6554 55.29887l0 36.330708" fill-rule="nonzero"/><path stroke="#000000" stroke-width="1.3333333333333333" stroke-linecap="butt" d="m988.364 15.965538l0 75.66404" fill-rule="nonzero"/><path stroke="#000000" stroke-width="1.3333333333333333" stroke-linecap="butt" d="m1159.3982 15.965538l0 75.66404" fill-rule="nonzero"/><path stroke="#000000" stroke-width="1.3333333333333333" stroke-linecap="butt" d="m10.127822 16.464226l1149.769 0" fill-rule="nonzero"/><path stroke="#000000" stroke-width="1.3333333333333333" stroke-linecap="butt" d="m10.127822 55.797558l978.7349 0" fill-rule="nonzero"/><path stroke="#000000" stroke-width="1.3333333333333333" stroke-linecap="butt" d="m10.127822 91.13089l1149.769 0" fill-rule="nonzero"/><path fill="#000000" d="m412.32944 38.70464l1.90625 -0.171875q0.140625 1.15625 0.625 1.890625q0.5 0.734375 1.546875 1.1875q1.046875 0.453125 2.34375 0.453125q1.15625 0 2.03125 -0.34375q0.890625 -0.34375 1.3125 -0.9375q0.4375 -0.609375 0.4375 -1.3125q0 -0.71875 -0.421875 -1.25q-0.40625 -0.546875 -1.359375 -0.90625q-0.609375 -0.25 -2.71875 -0.75q-2.109375 -0.5 -2.953125 -0.953125q-1.09375 -0.578125 -1.625 -1.421875q-0.53125 -0.84375 -0.53125 -1.890625q0 -1.1562481 0.65625 -2.156248q0.65625 -1.015625 1.90625 -1.53125q1.265625 -0.53125 2.8125 -0.53125q1.6875 0 2.984375 0.546875q1.296875 0.546875 1.984375 1.609375q0.703125 1.0625 0.765625 2.406248l-1.9375 0.15625q-0.15625 -1.4531231 -1.0625 -2.187498q-0.890625 -0.75 -2.65625 -0.75q-1.828125 0 -2.671875 0.671875q-0.84375 0.671875 -0.84375 1.6249981q0 0.8125 0.59375 1.34375q0.59375 0.53125 3.046875 1.09375q2.46875 0.5625 3.390625 0.96875q1.328125 0.625 1.953125 1.5625q0.640625 0.9375 0.640625 2.171875q0 1.21875 -0.703125 2.296875q-0.6875 1.078125 -2.0 1.6875q-1.296875 0.59375 -2.9375 0.59375q-2.078125 0 -3.484375 -0.609375q-1.390625 -0.609375 -2.1875 -1.8125q-0.796875 -1.21875 -0.84375 -2.75zm18.772583 3.234375l0.265625 1.65625q-0.78125 0.15625 -1.40625 0.15625q-1.03125 0 -1.59375 -0.3125q-0.5625 -0.328125 -0.796875 -0.84375q-0.21875 -0.53125 -0.21875 -2.21875l0 -6.375l-1.375 0l0 -1.453125l1.375 0l0 -2.734373l1.859375 -1.125l0 3.859373l1.890625 0l0 1.453125l-1.890625 0l0 6.46875q0 0.8125 0.09375 1.046875q0.109375 0.21875 0.328125 0.359375q0.234375 0.125 0.640625 0.125q0.3125 0 0.828125 -0.0625zm9.050629 0.3125q-1.046875 0.875 -2.015625 1.25q-0.953125 0.359375 -2.0625 0.359375q-1.8125 0 -2.796875 -0.890625q-0.984375 -0.890625 -0.984375 -2.28125q0 -0.8125 0.375 -1.484375q0.375 -0.671875 0.96875 -1.078125q0.59375 -0.40625 1.34375 -0.609375q0.5625 -0.140625 1.671875 -0.28125q2.265625 -0.265625 3.34375 -0.640625q0.015625 -0.390625 0.015625 -0.5q0 -1.140625 -0.53125 -1.609375q-0.71875 -0.640625 -2.140625 -0.640625q-1.328125 0 -1.953125 0.46875q-0.625 0.46875 -0.9375 1.640625l-1.828125 -0.25q0.25 -1.171875 0.8125 -1.890625q0.578125 -0.734375 1.65625 -1.125q1.09375 -0.390625 2.515625 -0.390625q1.421875 0 2.296875 0.34375q0.890625 0.328125 1.3125 0.828125q0.421875 0.5 0.578125 1.28125q0.09375 0.46875 0.09375 1.71875l0 2.5q0 2.625 0.125 3.3125q0.125 0.6875 0.46875 1.328125l-1.953125 0q-0.296875 -0.578125 -0.375 -1.359375zm-0.15625 -4.1875q-1.015625 0.40625 -3.0625 0.703125q-1.15625 0.171875 -1.640625 0.375q-0.46875 0.203125 -0.734375 0.609375q-0.265625 0.40625 -0.265625 0.890625q0 0.75 0.5625 1.25q0.578125 0.5 1.671875 0.5q1.078125 0 1.921875 -0.46875q0.84375 -0.484375 1.25 -1.296875q0.296875 -0.640625 0.296875 -1.875l0 -0.6875zm8.892944 3.875l0.265625 1.65625q-0.78125 0.15625 -1.40625 0.15625q-1.03125 0 -1.59375 -0.3125q-0.5625 -0.328125 -0.796875 -0.84375q-0.21875 -0.53125 -0.21875 -2.21875l0 -6.375l-1.375 0l0 -1.453125l1.375 0l0 -2.734373l1.859375 -1.125l0 3.859373l1.890625 0l0 1.453125l-1.890625 0l0 6.46875q0 0.8125 0.09375 1.046875q0.109375 0.21875 0.328125 0.359375q0.234375 0.125 0.640625 0.125q0.3125 0 0.828125 -0.0625zm1.8475037 -11.437498l0 -2.15625l1.875 0l0 2.15625l-1.875 0zm0 13.109373l0 -11.0625l1.875 0l0 11.0625l-1.875 0zm3.9728394 -3.296875l1.859375 -0.296875q0.15625 1.109375 0.859375 1.703125q0.71875 0.59375 2.0 0.59375q1.296875 0 1.921875 -0.515625q0.625 -0.53125 0.625 -1.234375q0 -0.640625 -0.5625 -1.0q-0.375 -0.25 -1.90625 -0.640625q-2.0625 -0.515625 -2.859375 -0.890625q-0.796875 -0.390625 -1.21875 -1.0625q-0.40625 -0.671875 -0.40625 -1.484375q0 -0.734375 0.328125 -1.359375q0.34375 -0.640625 0.9375 -1.0625q0.4375 -0.3125 1.1875 -0.53125q0.75 -0.234375 1.625 -0.234375q1.296875 0 2.28125 0.375q0.984375 0.375 1.453125 1.015625q0.46875 0.640625 0.640625 1.71875l-1.828125 0.25q-0.125 -0.859375 -0.734375 -1.328125q-0.59375 -0.484375 -1.6875 -0.484375q-1.28125 0 -1.84375 0.421875q-0.546875 0.421875 -0.546875 1.0q0 0.359375 0.234375 0.65625q0.21875 0.296875 0.71875 0.5q0.28125 0.109375 1.65625 0.484375q1.984375 0.53125 2.765625 0.875q0.796875 0.328125 1.234375 0.984375q0.453125 0.640625 0.453125 1.59375q0 0.9375 -0.546875 1.765625q-0.546875 0.828125 -1.578125 1.28125q-1.03125 0.453125 -2.328125 0.453125q-2.15625 0 -3.296875 -0.890625q-1.125 -0.90625 -1.4375 -2.65625zm15.5078125 1.625l0.265625 1.65625q-0.78125 0.15625 -1.40625 0.15625q-1.03125 0 -1.59375 -0.3125q-0.5625 -0.328125 -0.796875 -0.84375q-0.21875 -0.53125 -0.21875 -2.21875l0 -6.375l-1.375 0l0 -1.453125l1.375 0l0 -2.734373l1.859375 -1.125l0 3.859373l1.890625 0l0 1.453125l-1.890625 0l0 6.46875q0 0.8125 0.09375 1.046875q0.109375 0.21875 0.328125 0.359375q0.234375 0.125 0.640625 0.125q0.3125 0 0.828125 -0.0625zm1.8475037 -11.437498l0 -2.15625l1.875 0l0 2.15625l-1.875 0zm0 13.109373l0 -11.0625l1.875 0l0 11.0625l-1.875 0zm11.941559 -4.046875l1.84375 0.234375q-0.296875 1.90625 -1.546875 2.984375q-1.25 1.078125 -3.0625 1.078125q-2.265625 0 -3.65625 -1.484375q-1.375 -1.484375 -1.375 -4.25q0 -1.796875 0.59375 -3.140625q0.59375 -1.34375 1.8125 -2.015625q1.21875 -0.671875 2.640625 -0.671875q1.796875 0 2.9375 0.921875q1.15625 0.90625 1.484375 2.578125l-1.828125 0.28125q-0.265625 -1.109375 -0.921875 -1.671875q-0.65625 -0.5625 -1.59375 -0.5625q-1.421875 0 -2.3125 1.015625q-0.875 1.015625 -0.875 3.203125q0 2.234375 0.84375 3.25q0.859375 1.0 2.234375 1.0q1.109375 0 1.84375 -0.671875q0.734375 -0.671875 0.9375 -2.078125zm13.980347 4.046875l-5.921875 -15.265623l2.1875 0l3.96875 11.093748q0.484375 1.328125 0.796875 2.5q0.359375 -1.25 0.828125 -2.5l4.125 -11.093748l2.0625 0l-5.984375 15.265623l-2.0625 0zm15.2517395 -1.359375q-1.046875 0.875 -2.0156555 1.25q-0.953125 0.359375 -2.0625 0.359375q-1.8125 0 -2.796875 -0.890625q-0.984375 -0.890625 -0.984375 -2.28125q0 -0.8125 0.375 -1.484375q0.375 -0.671875 0.96875 -1.078125q0.59375 -0.40625 1.34375 -0.609375q0.5625 -0.140625 1.671875 -0.28125q2.2656555 -0.265625 3.3437805 -0.640625q0.015625 -0.390625 0.015625 -0.5q0 -1.140625 -0.53125 -1.609375q-0.7187805 -0.640625 -2.1406555 -0.640625q-1.328125 0 -1.953125 0.46875q-0.625 0.46875 -0.9375 1.640625l-1.828125 -0.25q0.25 -1.171875 0.8125 -1.890625q0.578125 -0.734375 1.65625 -1.125q1.09375 -0.390625 2.515625 -0.390625q1.4219055 0 2.2969055 0.34375q0.890625 0.328125 1.3125 0.828125q0.421875 0.5 0.578125 1.28125q0.09375 0.46875 0.09375 1.71875l0 2.5q0 2.625 0.125 3.3125q0.125 0.6875 0.46875 1.328125l-1.953125 0q-0.296875 -0.578125 -0.375 -1.359375zm-0.15625 -4.1875q-1.015625 0.40625 -3.0625305 0.703125q-1.15625 0.171875 -1.640625 0.375q-0.46875 0.203125 -0.734375 0.609375q-0.265625 0.40625 -0.265625 0.890625q0 0.75 0.5625 1.25q0.578125 0.5 1.671875 0.5q1.078125 0 1.921875 -0.46875q0.8437805 -0.484375 1.2500305 -1.296875q0.296875 -0.640625 0.296875 -1.875l0 -0.6875zm4.7523193 5.546875l0 -15.265623l1.875 0l0 15.265623l-1.875 0zm12.035339 0l0 -1.625q-1.296875 1.875 -3.515625 1.875q-0.96875 0 -1.828125 -0.375q-0.84375 -0.375 -1.265625 -0.9375q-0.40625 -0.578125 -0.5625 -1.390625q-0.125 -0.5625 -0.125 -1.75l0 -6.859375l1.875 0l0 6.140625q0 1.46875 0.125 1.96875q0.171875 0.75 0.734375 1.171875q0.578125 0.421875 1.421875 0.421875q0.84375 0 1.578125 -0.4375q0.75 -0.4375 1.046875 -1.171875q0.3125 -0.75 0.3125 -2.171875l0 -5.921875l1.875 0l0 11.0625l-1.671875 0zm12.189819 -3.5625l1.921875 0.234375q-0.453125 1.703125 -1.6875 2.640625q-1.234375 0.9375 -3.171875 0.9375q-2.421875 0 -3.84375 -1.484375q-1.421875 -1.5 -1.421875 -4.203125q0 -2.796875 1.4375 -4.328125q1.4375 -1.546875 3.734375 -1.546875q2.21875 0 3.609375 1.515625q1.40625 1.5 1.40625 4.25q0 0.15625 0 0.5l-8.25 0q0.109375 1.8125 1.03125 2.78125q0.921875 0.96875 2.3125 0.96875q1.03125 0 1.75 -0.53125q0.734375 -0.546875 1.171875 -1.734375zm-6.15625 -3.03125l6.171875 0q-0.125 -1.390625 -0.703125 -2.09375q-0.90625 -1.078125 -2.328125 -1.078125q-1.296875 0 -2.171875 0.859375q-0.875 0.859375 -0.96875 2.3125zm16.521729 6.59375l0 -15.265623l2.015625 0l0 7.562498l7.578125 -7.562498l2.75 0l-6.40625 6.187498l6.6875 9.078125l-2.671875 0l-5.4375 -7.734375l-2.5 2.4375l0 5.296875l-2.015625 0zm21.647522 -3.5625l1.921875 0.234375q-0.453125 1.703125 -1.6875 2.640625q-1.234375 0.9375 -3.171875 0.9375q-2.421875 0 -3.84375 -1.484375q-1.421875 -1.5 -1.421875 -4.203125q0 -2.796875 1.4375 -4.328125q1.4375 -1.546875 3.734375 -1.546875q2.21875 0 3.609375 1.515625q1.40625 1.5 1.40625 4.25q0 0.15625 0 0.5l-8.25 0q0.109375 1.8125 1.03125 2.78125q0.921875 0.96875 2.3125 0.96875q1.03125 0 1.75 -0.53125q0.734375 -0.546875 1.171875 -1.734375zm-6.15625 -3.03125l6.171875 0q-0.125 -1.390625 -0.703125 -2.09375q-0.90625 -1.078125 -2.328125 -1.078125q-1.296875 0 -2.171875 0.859375q-0.875 0.859375 -0.96875 2.3125zm10.361694 10.859375l-0.21875 -1.765625q0.625 0.171875 1.078125 0.171875q0.625 0 1.0 -0.21875q0.375 -0.203125 0.609375 -0.578125q0.1875 -0.28125 0.578125 -1.390625q0.046875 -0.15625 0.171875 -0.46875l-4.203125 -11.078125l2.015625 0l2.3125 6.40625q0.4375 1.21875 0.796875 2.5625q0.328125 -1.296875 0.765625 -2.515625l2.375 -6.453125l1.875 0l-4.21875 11.25q-0.671875 1.828125 -1.046875 2.515625q-0.5 0.921875 -1.15625 1.34375q-0.640625 0.4375 -1.53125 0.4375q-0.546875 0 -1.203125 -0.21875z" fill-rule="nonzero"/><path fill="#000000" d="m1008.05383 56.371307l1.90625 -0.171875q0.140625 1.15625 0.625 1.890625q0.5 0.734375 1.546875 1.1875q1.046875 0.453125 2.34375 0.453125q1.15625 0 2.03125 -0.34375q0.890625 -0.34375 1.3125 -0.9375q0.4375 -0.609375 0.4375 -1.3125q0 -0.71875 -0.421875 -1.25q-0.40625 -0.546875 -1.359375 -0.90625q-0.609375 -0.25 -2.71875 -0.75q-2.109375 -0.5 -2.953125 -0.953125q-1.09375 -0.578125 -1.625 -1.421875q-0.53125 -0.84375 -0.53125 -1.890625q0 -1.15625 0.65625 -2.15625q0.65625 -1.015625 1.90625 -1.53125q1.265625 -0.53125 2.8125 -0.53125q1.6875 0 2.984375 0.546875q1.296875 0.546875 1.984375 1.609375q0.703125 1.0625 0.765625 2.40625l-1.9375 0.15625q-0.15625 -1.453125 -1.0625 -2.1875q-0.890625 -0.75 -2.65625 -0.75q-1.828125 0 -2.671875 0.671875q-0.84375 0.671875 -0.84375 1.625q0 0.8125 0.59375 1.34375q0.59375 0.53125 3.046875 1.09375q2.46875 0.5625 3.390625 0.96875q1.328125 0.625 1.953125 1.5625q0.640625 0.9375 0.640625 2.171875q0 1.21875 -0.703125 2.296875q-0.6875 1.078125 -2.0 1.6875q-1.296875 0.59375 -2.9375 0.59375q-2.078125 0 -3.484375 -0.609375q-1.390625 -0.609375 -2.1875 -1.8125q-0.796875 -1.21875 -0.84375 -2.75zm18.772583 3.234375l0.265625 1.65625q-0.78125 0.15625 -1.40625 0.15625q-1.03125 0 -1.59375 -0.3125q-0.56256104 -0.328125 -0.79693604 -0.84375q-0.21875 -0.53125 -0.21875 -2.21875l0 -6.375l-1.375 0l0 -1.453125l1.375 0l0 -2.734375l1.859436 -1.125l0 3.859375l1.890625 0l0 1.453125l-1.890625 0l0 6.46875q0 0.8125 0.09375 1.046875q0.109375 0.21875 0.328125 0.359375q0.234375 0.125 0.640625 0.125q0.3125 0 0.828125 -0.0625zm9.050659 0.3125q-1.046875 0.875 -2.015625 1.25q-0.953125 0.359375 -2.0625 0.359375q-1.8125 0 -2.796875 -0.890625q-0.984375 -0.890625 -0.984375 -2.28125q0 -0.8125 0.375 -1.484375q0.375 -0.671875 0.96875 -1.078125q0.59375 -0.40625 1.34375 -0.609375q0.5625 -0.140625 1.671875 -0.28125q2.265625 -0.265625 3.34375 -0.640625q0.015625 -0.390625 0.015625 -0.5q0 -1.140625 -0.53125 -1.609375q-0.71875 -0.640625 -2.140625 -0.640625q-1.328125 0 -1.953125 0.46875q-0.625 0.46875 -0.9375 1.640625l-1.828125 -0.25q0.25 -1.171875 0.8125 -1.890625q0.578125 -0.734375 1.65625 -1.125q1.09375 -0.390625 2.515625 -0.390625q1.421875 0 2.296875 0.34375q0.890625 0.328125 1.3125 0.828125q0.421875 0.5 0.578125 1.28125q0.09375 0.46875 0.09375 1.71875l0 2.5q0 2.625 0.125 3.3125q0.125 0.6875 0.46875 1.328125l-1.953125 0q-0.296875 -0.578125 -0.375 -1.359375zm-0.15625 -4.1875q-1.015625 0.40625 -3.0625 0.703125q-1.15625 0.171875 -1.640625 0.375q-0.46875 0.203125 -0.734375 0.609375q-0.265625 0.40625 -0.265625 0.890625q0 0.75 0.5625 1.25q0.578125 0.5 1.671875 0.5q1.078125 0 1.921875 -0.46875q0.84375 -0.484375 1.25 -1.296875q0.296875 -0.640625 0.296875 -1.875l0 -0.6875zm8.892944 3.875l0.265625 1.65625q-0.78125 0.15625 -1.40625 0.15625q-1.03125 0 -1.59375 -0.3125q-0.5625 -0.328125 -0.796875 -0.84375q-0.21875 -0.53125 -0.21875 -2.21875l0 -6.375l-1.375 0l0 -1.453125l1.375 0l0 -2.734375l1.859375 -1.125l0 3.859375l1.890625 0l0 1.453125l-1.890625 0l0 6.46875q0 0.8125 0.09375 1.046875q0.109375 0.21875 0.328125 0.359375q0.234375 0.125 0.640625 0.125q0.3125 0 0.828125 -0.0625zm1.8474121 -11.4375l0 -2.15625l1.875 0l0 2.15625l-1.875 0zm0 13.109375l0 -11.0625l1.875 0l0 11.0625l-1.875 0zm3.9729004 -3.296875l1.859375 -0.296875q0.15625 1.109375 0.859375 1.703125q0.71875 0.59375 2.0 0.59375q1.296875 0 1.921875 -0.515625q0.625 -0.53125 0.625 -1.234375q0 -0.640625 -0.5625 -1.0q-0.375 -0.25 -1.90625 -0.640625q-2.0625 -0.515625 -2.859375 -0.890625q-0.796875 -0.390625 -1.21875 -1.0625q-0.40625 -0.671875 -0.40625 -1.484375q0 -0.734375 0.328125 -1.359375q0.34375 -0.640625 0.9375 -1.0625q0.4375 -0.3125 1.1875 -0.53125q0.75 -0.234375 1.625 -0.234375q1.296875 0 2.28125 0.375q0.984375 0.375 1.453125 1.015625q0.46875 0.640625 0.640625 1.71875l-1.828125 0.25q-0.125 -0.859375 -0.734375 -1.328125q-0.59375 -0.484375 -1.6875 -0.484375q-1.28125 0 -1.84375 0.421875q-0.546875 0.421875 -0.546875 1.0q0 0.359375 0.234375 0.65625q0.21875 0.296875 0.71875 0.5q0.28125 0.109375 1.65625 0.484375q1.984375 0.53125 2.765625 0.875q0.796875 0.328125 1.234375 0.984375q0.453125 0.640625 0.453125 1.59375q0 0.9375 -0.546875 1.765625q-0.546875 0.828125 -1.578125 1.28125q-1.03125 0.453125 -2.328125 0.453125q-2.15625 0 -3.296875 -0.890625q-1.125 -0.90625 -1.4375 -2.65625zm15.5078125 1.625l0.265625 1.65625q-0.78125 0.15625 -1.40625 0.15625q-1.03125 0 -1.59375 -0.3125q-0.5625 -0.328125 -0.796875 -0.84375q-0.21875 -0.53125 -0.21875 -2.21875l0 -6.375l-1.375 0l0 -1.453125l1.375 0l0 -2.734375l1.859375 -1.125l0 3.859375l1.890625 0l0 1.453125l-1.890625 0l0 6.46875q0 0.8125 0.09375 1.046875q0.109375 0.21875 0.328125 0.359375q0.234375 0.125 0.640625 0.125q0.3125 0 0.828125 -0.0625zm1.8475342 -11.4375l0 -2.15625l1.875 0l0 2.15625l-1.875 0zm0 13.109375l0 -11.0625l1.875 0l0 11.0625l-1.875 0zm11.941528 -4.046875l1.84375 0.234375q-0.296875 1.90625 -1.546875 2.984375q-1.25 1.078125 -3.0625 1.078125q-2.265625 0 -3.65625 -1.484375q-1.375 -1.484375 -1.375 -4.25q0 -1.796875 0.59375 -3.140625q0.59375 -1.34375 1.8125 -2.015625q1.21875 -0.671875 2.640625 -0.671875q1.796875 0 2.9375 0.921875q1.15625 0.90625 1.484375 2.578125l-1.828125 0.28125q-0.265625 -1.109375 -0.921875 -1.671875q-0.65625 -0.5625 -1.59375 -0.5625q-1.421875 0 -2.3125 1.015625q-0.875 1.015625 -0.875 3.203125q0 2.234375 0.84375 3.25q0.859375 1.0 2.234375 1.0q1.109375 0 1.84375 -0.671875q0.734375 -0.671875 0.9375 -2.078125zm13.980347 4.046875l-5.921875 -15.265625l2.1875 0l3.96875 11.09375q0.484375 1.328125 0.796875 2.5q0.359375 -1.25 0.828125 -2.5l4.125 -11.09375l2.0625 0l-5.984375 15.265625l-2.0625 0zm15.251709 -1.359375q-1.046875 0.875 -2.015625 1.25q-0.953125 0.359375 -2.0625 0.359375q-1.8125 0 -2.796875 -0.890625q-0.984375 -0.890625 -0.984375 -2.28125q0 -0.8125 0.375 -1.484375q0.375 -0.671875 0.96875 -1.078125q0.59375 -0.40625 1.34375 -0.609375q0.5625 -0.140625 1.671875 -0.28125q2.265625 -0.265625 3.34375 -0.640625q0.015625 -0.390625 0.015625 -0.5q0 -1.140625 -0.53125 -1.609375q-0.71875 -0.640625 -2.140625 -0.640625q-1.328125 0 -1.953125 0.46875q-0.625 0.46875 -0.9375 1.640625l-1.828125 -0.25q0.25 -1.171875 0.8125 -1.890625q0.578125 -0.734375 1.65625 -1.125q1.09375 -0.390625 2.515625 -0.390625q1.421875 0 2.296875 0.34375q0.890625 0.328125 1.3125 0.828125q0.421875 0.5 0.578125 1.28125q0.09375 0.46875 0.09375 1.71875l0 2.5q0 2.625 0.125 3.3125q0.125 0.6875 0.46875 1.328125l-1.953125 0q-0.296875 -0.578125 -0.375 -1.359375zm-0.15625 -4.1875q-1.015625 0.40625 -3.0625 0.703125q-1.15625 0.171875 -1.640625 0.375q-0.46875 0.203125 -0.734375 0.609375q-0.265625 0.40625 -0.265625 0.890625q0 0.75 0.5625 1.25q0.578125 0.5 1.671875 0.5q1.078125 0 1.921875 -0.46875q0.84375 -0.484375 1.25 -1.296875q0.296875 -0.640625 0.296875 -1.875l0 -0.6875zm4.7523193 5.546875l0 -15.265625l1.875 0l0 15.265625l-1.875 0zm12.035278 0l0 -1.625q-1.296875 1.875 -3.515625 1.875q-0.96875 0 -1.828125 -0.375q-0.84375 -0.375 -1.265625 -0.9375q-0.40625 -0.578125 -0.5625 -1.390625q-0.125 -0.5625 -0.125 -1.75l0 -6.859375l1.875 0l0 6.140625q0 1.46875 0.125 1.96875q0.171875 0.75 0.734375 1.171875q0.578125 0.421875 1.421875 0.421875q0.84375 0 1.578125 -0.4375q0.75 -0.4375 1.046875 -1.171875q0.3125 -0.75 0.3125 -2.171875l0 -5.921875l1.875 0l0 11.0625l-1.671875 0zm12.189819 -3.5625l1.921875 0.234375q-0.453125 1.703125 -1.6875 2.640625q-1.234375 0.9375 -3.171875 0.9375q-2.421875 0 -3.84375 -1.484375q-1.421875 -1.5 -1.421875 -4.203125q0 -2.796875 1.4375 -4.328125q1.4375 -1.546875 3.734375 -1.546875q2.21875 0 3.609375 1.515625q1.40625 1.5 1.40625 4.25q0 0.15625 0 0.5l-8.25 0q0.109375 1.8125 1.03125 2.78125q0.921875 0.96875 2.3125 0.96875q1.03125 0 1.75 -0.53125q0.734375 -0.546875 1.171875 -1.734375zm-6.15625 -3.03125l6.171875 0q-0.125 -1.390625 -0.703125 -2.09375q-0.90625 -1.078125 -2.328125 -1.078125q-1.296875 0 -2.171875 0.859375q-0.875 0.859375 -0.96875 2.3125z" fill-rule="nonzero"/><path fill="#000000" d="m58.891884 76.08735l1.65625 -0.140625q0.125 1.0 0.546875 1.640625q0.4375 0.640625 1.34375 1.046875q0.921875 0.390625 2.0625 0.390625q1.0 0 1.78125 -0.296875q0.78125 -0.296875 1.15625 -0.8125q0.375 -0.53125 0.375 -1.15625q0 -0.625 -0.375 -1.09375q-0.359375 -0.46875 -1.1875 -0.796875q-0.546875 -0.203125 -2.390625 -0.640625q-1.828125 -0.453125 -2.5625 -0.84375q-0.96875 -0.5 -1.4375 -1.234375q-0.46875 -0.75 -0.46875 -1.671875q0 -1.0 0.578125 -1.875q0.578125 -0.890625 1.671875 -1.34375q1.109375 -0.453125 2.453125 -0.453125q1.484375 0 2.609375 0.484375q1.140625 0.46875 1.75 1.40625q0.609375 0.921875 0.65625 2.09375l-1.6875 0.125q-0.140625 -1.265625 -0.9375 -1.90625q-0.78125 -0.65625 -2.3125 -0.65625q-1.609375 0 -2.34375 0.59375q-0.734375 0.59375 -0.734375 1.421875q0 0.71875 0.53125 1.171875q0.5 0.46875 2.65625 0.96875q2.15625 0.484375 2.953125 0.84375q1.171875 0.53125 1.71875 1.359375q0.5625 0.828125 0.5625 1.90625q0 1.0625 -0.609375 2.015625q-0.609375 0.9375 -1.75 1.46875q-1.140625 0.515625 -2.578125 0.515625q-1.8125 0 -3.046875 -0.53125q-1.21875 -0.53125 -1.921875 -1.59375q-0.6875 -1.0625 -0.71875 -2.40625zm16.412323 2.828125l0.234375 1.453125q-0.6875 0.140625 -1.234375 0.140625q-0.890625 0 -1.390625 -0.28125q-0.484375 -0.28125 -0.6875 -0.734375q-0.203125 -0.46875 -0.203125 -1.9375l0 -5.578125l-1.203125 0l0 -1.265625l1.203125 0l0 -2.390625l1.625 -0.984375l0 3.375l1.65625 0l0 1.265625l-1.65625 0l0 5.671875q0 0.6875 0.078125 0.890625q0.09375 0.203125 0.28125 0.328125q0.203125 0.109375 0.578125 0.109375q0.265625 0 0.71875 -0.0625zm7.917679 0.28125q-0.921875 0.765625 -1.765625 1.09375q-0.828125 0.3125 -1.796875 0.3125q-1.59375 0 -2.453125 -0.78125q-0.859375 -0.78125 -0.859375 -1.984375q0 -0.71875 0.328125 -1.296875q0.328125 -0.59375 0.84375 -0.9375q0.53125 -0.359375 1.1875 -0.546875q0.46875 -0.125 1.453125 -0.25q1.984375 -0.234375 2.921875 -0.5625q0.015625 -0.34375 0.015625 -0.421875q0 -1.0 -0.46875 -1.421875q-0.625 -0.546875 -1.875 -0.546875q-1.15625 0 -1.703125 0.40625q-0.546875 0.40625 -0.8125 1.421875l-1.609375 -0.21875q0.21875 -1.015625 0.71875 -1.640625q0.5 -0.640625 1.453125 -0.984375q0.953125 -0.34375 2.1875 -0.34375q1.25 0 2.015625 0.296875q0.78125 0.28125 1.140625 0.734375q0.375 0.4375 0.515625 1.109375q0.078125 0.421875 0.078125 1.515625l0 2.1875q0 2.28125 0.109375 2.890625q0.109375 0.59375 0.40625 1.15625l-1.703125 0q-0.265625 -0.515625 -0.328125 -1.1875zm-0.140625 -3.671875q-0.890625 0.375 -2.671875 0.625q-1.015625 0.140625 -1.4375 0.328125q-0.421875 0.1875 -0.65625 0.53125q-0.21875 0.34375 -0.21875 0.78125q0 0.65625 0.5 1.09375q0.5 0.4375 1.453125 0.4375q0.9375 0 1.671875 -0.40625q0.75 -0.421875 1.09375 -1.140625q0.265625 -0.5625 0.265625 -1.640625l0 -0.609375zm7.781967 3.390625l0.234375 1.453125q-0.6875 0.140625 -1.234375 0.140625q-0.890625 0 -1.390625 -0.28125q-0.484375 -0.28125 -0.6875 -0.734375q-0.203125 -0.46875 -0.203125 -1.9375l0 -5.578125l-1.203125 0l0 -1.265625l1.203125 0l0 -2.390625l1.625 -0.984375l0 3.375l1.65625 0l0 1.265625l-1.65625 0l0 5.671875q0 0.6875 0.078125 0.890625q0.09375 0.203125 0.28125 0.328125q0.203125 0.109375 0.578125 0.109375q0.265625 0 0.71875 -0.0625zm1.6051788 -10.0l0 -1.890625l1.640625 0l0 1.890625l-1.640625 0zm0 11.46875l0 -9.671875l1.640625 0l0 9.671875l-1.640625 0zm3.4885712 -2.890625l1.625 -0.25q0.125 0.96875 0.75 1.5q0.625 0.515625 1.75 0.515625q1.125 0 1.671875 -0.453125q0.546875 -0.46875 0.546875 -1.09375q0 -0.546875 -0.484375 -0.875q-0.328125 -0.21875 -1.671875 -0.546875q-1.8125 -0.46875 -2.515625 -0.796875q-0.6875 -0.328125 -1.046875 -0.90625q-0.359375 -0.59375 -0.359375 -1.3125q0 -0.640625 0.296875 -1.1875q0.296875 -0.5625 0.8125 -0.921875q0.375 -0.28125 1.03125 -0.46875q0.671875 -0.203125 1.421875 -0.203125q1.140625 0 2.0 0.328125q0.859375 0.328125 1.265625 0.890625q0.421875 0.5625 0.578125 1.5l-1.609375 0.21875q-0.109375 -0.75 -0.640625 -1.171875q-0.515625 -0.421875 -1.46875 -0.421875q-1.140625 0 -1.625 0.375q-0.46875 0.375 -0.46875 0.875q0 0.3125 0.1875 0.578125q0.203125 0.265625 0.640625 0.4375q0.234375 0.09375 1.4375 0.421875q1.75 0.453125 2.4375 0.75q0.6875 0.296875 1.078125 0.859375q0.390625 0.5625 0.390625 1.40625q0 0.828125 -0.484375 1.546875q-0.46875 0.71875 -1.375 1.125q-0.90625 0.390625 -2.046875 0.390625q-1.875 0 -2.875 -0.78125q-0.984375 -0.78125 -1.25 -2.328125zm13.5625 1.421875l0.234375 1.453125q-0.6875 0.140625 -1.234375 0.140625q-0.890625 0 -1.390625 -0.28125q-0.484375 -0.28125 -0.6875 -0.734375q-0.203125 -0.46875 -0.203125 -1.9375l0 -5.578125l-1.203125 0l0 -1.265625l1.203125 0l0 -2.390625l1.625 -0.984375l0 3.375l1.65625 0l0 1.265625l-1.65625 0l0 5.671875q0 0.6875 0.078125 0.890625q0.09375 0.203125 0.28125 0.328125q0.203125 0.109375 0.578125 0.109375q0.265625 0 0.71875 -0.0625zm1.6051788 -10.0l0 -1.890625l1.640625 0l0 1.890625l-1.640625 0zm0 11.46875l0 -9.671875l1.640625 0l0 9.671875l-1.640625 0zm10.457321 -3.546875l1.609375 0.21875q-0.265625 1.65625 -1.359375 2.609375q-1.078125 0.9375 -2.671875 0.9375q-1.984375 0 -3.1875 -1.296875q-1.203125 -1.296875 -1.203125 -3.71875q0 -1.578125 0.515625 -2.75q0.515625 -1.171875 1.578125 -1.75q1.0625 -0.59375 2.3125 -0.59375q1.578125 0 2.578125 0.796875q1.0 0.796875 1.28125 2.265625l-1.59375 0.234375q-0.234375 -0.96875 -0.8125 -1.453125q-0.578125 -0.5 -1.390625 -0.5q-1.234375 0 -2.015625 0.890625q-0.78125 0.890625 -0.78125 2.8125q0 1.953125 0.75 2.84375q0.75 0.875 1.953125 0.875q0.96875 0 1.609375 -0.59375q0.65625 -0.59375 0.828125 -1.828125zm17.167671 -9.8125l1.765625 0l0 7.71875q0 2.015625 -0.453125 3.203125q-0.453125 1.1875 -1.640625 1.9375q-1.1875 0.734375 -3.125 0.734375q-1.875 0 -3.078125 -0.640625q-1.1875 -0.65625 -1.703125 -1.875q-0.5 -1.234375 -0.5 -3.359375l0 -7.71875l1.765625 0l0 7.71875q0 1.734375 0.3125 2.5625q0.328125 0.8125 1.109375 1.265625q0.796875 0.453125 1.9375 0.453125q1.953125 0 2.78125 -0.890625q0.828125 -0.890625 0.828125 -3.390625l0 -7.71875zm4.5042114 13.359375l0 -9.671875l1.46875 0l0 1.375q1.0625 -1.59375 3.078125 -1.59375q0.875 0 1.609375 0.3125q0.734375 0.3125 1.09375 0.828125q0.375 0.5 0.515625 1.203125q0.09375 0.453125 0.09375 1.59375l0 5.953125l-1.640625 0l0 -5.890625q0 -1.0 -0.203125 -1.484375q-0.1875 -0.5 -0.671875 -0.796875q-0.484375 -0.296875 -1.140625 -0.296875q-1.046875 0 -1.8125 0.671875q-0.75 0.65625 -0.75 2.515625l0 5.28125l-1.640625 0zm10.375702 -11.46875l0 -1.890625l1.640625 0l0 1.890625l-1.640625 0zm0 11.46875l0 -9.671875l1.640625 0l0 9.671875l-1.640625 0zm10.301086 3.703125l0 -4.734375q-0.375 0.546875 -1.0625 0.90625q-0.6875 0.34375 -1.46875 0.34375q-1.71875 0 -2.96875 -1.375q-1.234375 -1.375 -1.234375 -3.765625q0 -1.46875 0.5 -2.625q0.515625 -1.15625 1.46875 -1.75q0.96875 -0.59375 2.109375 -0.59375q1.796875 0 2.828125 1.515625l0 -1.296875l1.46875 0l0 13.375l-1.640625 0zm-5.046875 -8.5625q0 1.859375 0.78125 2.796875q0.78125 0.9375 1.875 0.9375q1.046875 0 1.796875 -0.890625q0.765625 -0.890625 0.765625 -2.703125q0 -1.9375 -0.796875 -2.90625q-0.796875 -0.96875 -1.875 -0.96875q-1.0625 0 -1.8125 0.90625q-0.734375 0.90625 -0.734375 2.828125zm15.594452 4.859375l0 -1.421875q-1.125 1.640625 -3.0625 1.640625q-0.859375 0 -1.609375 -0.328125q-0.734375 -0.328125 -1.09375 -0.828125q-0.359375 -0.5 -0.5 -1.21875q-0.109375 -0.46875 -0.109375 -1.53125l0 -5.984375l1.640625 0l0 5.359375q0 1.28125 0.109375 1.734375q0.15625 0.640625 0.65625 1.015625q0.5 0.375 1.234375 0.375q0.734375 0 1.375 -0.375q0.65625 -0.390625 0.921875 -1.03125q0.265625 -0.65625 0.265625 -1.890625l0 -5.1875l1.640625 0l0 9.671875l-1.46875 0zm10.672607 -3.109375l1.6875 0.203125q-0.40625 1.484375 -1.484375 2.3125q-1.078125 0.8125 -2.765625 0.8125q-2.125 0 -3.375 -1.296875q-1.234375 -1.3125 -1.234375 -3.671875q0 -2.453125 1.25 -3.796875q1.265625 -1.34375 3.265625 -1.34375q1.9375 0 3.15625 1.328125q1.234375 1.3125 1.234375 3.703125q0 0.15625 0 0.4375l-7.21875 0q0.09375 1.59375 0.90625 2.453125q0.8125 0.84375 2.015625 0.84375q0.90625 0 1.546875 -0.46875q0.640625 -0.484375 1.015625 -1.515625zm-5.390625 -2.65625l5.40625 0q-0.109375 -1.21875 -0.625 -1.828125q-0.78125 -0.953125 -2.03125 -0.953125q-1.125 0 -1.90625 0.765625q-0.765625 0.75 -0.84375 2.015625zm14.824646 5.765625l0 -13.359375l1.765625 0l0 13.359375l-1.765625 0zm4.8864136 0l0 -13.359375l4.609375 0q1.546875 0 2.375 0.203125q1.140625 0.25 1.953125 0.953125q1.0625 0.890625 1.578125 2.28125q0.53125 1.390625 0.53125 3.171875q0 1.515625 -0.359375 2.703125q-0.359375 1.171875 -0.921875 1.9375q-0.546875 0.765625 -1.203125 1.21875q-0.65625 0.4375 -1.59375 0.671875q-0.9375 0.21875 -2.140625 0.21875l-4.828125 0zm1.765625 -1.578125l2.859375 0q1.3125 0 2.0625 -0.234375q0.75 -0.25 1.203125 -0.703125q0.625 -0.625 0.96875 -1.6875q0.359375 -1.0625 0.359375 -2.578125q0 -2.09375 -0.6875 -3.21875q-0.6875 -1.125 -1.671875 -1.5q-0.703125 -0.28125 -2.28125 -0.28125l-2.8125 0l0 10.203125z" fill-rule="nonzero"/><path fill="#000000" d="m346.33453 80.384224l0 -13.359375l5.015625 0q1.53125 0 2.453125 0.40625q0.921875 0.40625 1.4375 1.25q0.53125 0.84375 0.53125 1.765625q0 0.859375 -0.46875 1.625q-0.453125 0.75 -1.390625 1.203125q1.203125 0.359375 1.859375 1.21875q0.65625 0.859375 0.65625 2.015625q0 0.9375 -0.40625 1.75q-0.390625 0.796875 -0.984375 1.234375q-0.578125 0.4375 -1.453125 0.671875q-0.875 0.21875 -2.15625 0.21875l-5.09375 0zm1.78125 -7.75l2.875 0q1.1875 0 1.6875 -0.140625q0.671875 -0.203125 1.015625 -0.671875q0.34375 -0.46875 0.34375 -1.171875q0 -0.65625 -0.328125 -1.15625q-0.3125 -0.515625 -0.90625 -0.703125q-0.59375 -0.1875 -2.03125 -0.1875l-2.65625 0l0 4.03125zm0 6.171875l3.3125 0q0.859375 0 1.203125 -0.0625q0.609375 -0.109375 1.015625 -0.359375q0.421875 -0.265625 0.6875 -0.75q0.265625 -0.484375 0.265625 -1.125q0 -0.75 -0.390625 -1.296875q-0.375 -0.546875 -1.0625 -0.765625q-0.671875 -0.234375 -1.953125 -0.234375l-3.078125 0l0 4.59375zm10.537323 -9.890625l0 -1.890625l1.640625 0l0 1.890625l-1.640625 0zm0 11.46875l0 -9.671875l1.640625 0l0 9.671875l-1.640625 0zm4.1448364 0l0 -9.671875l1.46875 0l0 1.375q1.0625 -1.59375 3.078125 -1.59375q0.875 0 1.609375 0.3125q0.734375 0.3125 1.09375 0.828125q0.375 0.5 0.515625 1.203125q0.09375 0.453125 0.09375 1.59375l0 5.953125l-1.640625 0l0 -5.890625q0 -1.0 -0.203125 -1.484375q-0.1875 -0.5 -0.671875 -0.796875q-0.484375 -0.296875 -1.140625 -0.296875q-1.046875 0 -1.8125 0.671875q-0.75 0.65625 -0.75 2.515625l0 5.28125l-1.640625 0z" fill-rule="nonzero"/><path fill="#000000" d="m526.5699 76.08735l1.65625 -0.140625q0.125 1.0 0.546875 1.640625q0.4375 0.640625 1.34375 1.046875q0.921875 0.390625 2.0625 0.390625q1.0 0 1.78125 -0.296875q0.78125 -0.296875 1.15625 -0.8125q0.375 -0.53125 0.375 -1.15625q0 -0.625 -0.375 -1.09375q-0.359375 -0.46875 -1.1875 -0.796875q-0.546875 -0.203125 -2.390625 -0.640625q-1.828125 -0.453125 -2.5625 -0.84375q-0.96875 -0.5 -1.4375 -1.234375q-0.46875 -0.75 -0.46875 -1.671875q0 -1.0 0.578125 -1.875q0.578125 -0.890625 1.671875 -1.34375q1.109375 -0.453125 2.453125 -0.453125q1.484375 0 2.609375 0.484375q1.140625 0.46875 1.75 1.40625q0.609375 0.921875 0.65625 2.09375l-1.6875 0.125q-0.140625 -1.265625 -0.9375 -1.90625q-0.78125 -0.65625 -2.3125 -0.65625q-1.609375 0 -2.34375 0.59375q-0.734375 0.59375 -0.734375 1.421875q0 0.71875 0.53125 1.171875q0.5 0.46875 2.65625 0.96875q2.15625 0.484375 2.953125 0.84375q1.171875 0.53125 1.71875 1.359375q0.5625 0.828125 0.5625 1.90625q0 1.0625 -0.609375 2.015625q-0.609375 0.9375 -1.75 1.46875q-1.140625 0.515625 -2.578125 0.515625q-1.8125 0 -3.046875 -0.53125q-1.21875 -0.53125 -1.921875 -1.59375q-0.6875 -1.0625 -0.71875 -2.40625zm16.412292 2.828125l0.234375 1.453125q-0.6875 0.140625 -1.234375 0.140625q-0.890625 0 -1.390625 -0.28125q-0.484375 -0.28125 -0.6875 -0.734375q-0.203125 -0.46875 -0.203125 -1.9375l0 -5.578125l-1.203125 0l0 -1.265625l1.203125 0l0 -2.390625l1.625 -0.984375l0 3.375l1.65625 0l0 1.265625l-1.65625 0l0 5.671875q0 0.6875 0.078125 0.890625q0.09375 0.203125 0.28125 0.328125q0.203125 0.109375 0.578125 0.109375q0.265625 0 0.71875 -0.0625zm7.9177246 0.28125q-0.921875 0.765625 -1.765625 1.09375q-0.828125 0.3125 -1.796875 0.3125q-1.59375 0 -2.453125 -0.78125q-0.859375 -0.78125 -0.859375 -1.984375q0 -0.71875 0.328125 -1.296875q0.328125 -0.59375 0.84375 -0.9375q0.53125 -0.359375 1.1875 -0.546875q0.46875 -0.125 1.453125 -0.25q1.984375 -0.234375 2.921875 -0.5625q0.015625 -0.34375 0.015625 -0.421875q0 -1.0 -0.46875 -1.421875q-0.625 -0.546875 -1.875 -0.546875q-1.15625 0 -1.703125 0.40625q-0.546875 0.40625 -0.8125 1.421875l-1.609375 -0.21875q0.21875 -1.015625 0.71875 -1.640625q0.5 -0.640625 1.453125 -0.984375q0.953125 -0.34375 2.1875 -0.34375q1.25 0 2.015625 0.296875q0.78125 0.28125 1.140625 0.734375q0.375 0.4375 0.515625 1.109375q0.078125 0.421875 0.078125 1.515625l0 2.1875q0 2.28125 0.109375 2.890625q0.109375 0.59375 0.40625 1.15625l-1.703125 0q-0.265625 -0.515625 -0.328125 -1.1875zm-0.140625 -3.671875q-0.890625 0.375 -2.671875 0.625q-1.015625 0.140625 -1.4375 0.328125q-0.421875 0.1875 -0.65625 0.53125q-0.21875 0.34375 -0.21875 0.78125q0 0.65625 0.5 1.09375q0.5 0.4375 1.453125 0.4375q0.9375 0 1.671875 -0.40625q0.75 -0.421875 1.09375 -1.140625q0.265625 -0.5625 0.265625 -1.640625l0 -0.609375zm7.7819214 3.390625l0.234375 1.453125q-0.6875 0.140625 -1.234375 0.140625q-0.890625 0 -1.390625 -0.28125q-0.484375 -0.28125 -0.6875 -0.734375q-0.203125 -0.46875 -0.203125 -1.9375l0 -5.578125l-1.203125 0l0 -1.265625l1.203125 0l0 -2.390625l1.625 -0.984375l0 3.375l1.65625 0l0 1.265625l-1.65625 0l0 5.671875q0 0.6875 0.078125 0.890625q0.09375 0.203125 0.28125 0.328125q0.203125 0.109375 0.578125 0.109375q0.265625 0 0.71875 -0.0625zm1.6052246 -10.0l0 -1.890625l1.640625 0l0 1.890625l-1.640625 0zm0 11.46875l0 -9.671875l1.640625 0l0 9.671875l-1.640625 0zm3.4885254 -2.890625l1.625 -0.25q0.125 0.96875 0.75 1.5q0.625 0.515625 1.75 0.515625q1.125 0 1.671875 -0.453125q0.546875 -0.46875 0.546875 -1.09375q0 -0.546875 -0.484375 -0.875q-0.328125 -0.21875 -1.671875 -0.546875q-1.8125 -0.46875 -2.515625 -0.796875q-0.6875 -0.328125 -1.046875 -0.90625q-0.359375 -0.59375 -0.359375 -1.3125q0 -0.640625 0.296875 -1.1875q0.296875 -0.5625 0.8125 -0.921875q0.375 -0.28125 1.03125 -0.46875q0.671875 -0.203125 1.421875 -0.203125q1.140625 0 2.0 0.328125q0.859375 0.328125 1.265625 0.890625q0.421875 0.5625 0.578125 1.5l-1.609375 0.21875q-0.109375 -0.75 -0.640625 -1.171875q-0.515625 -0.421875 -1.46875 -0.421875q-1.140625 0 -1.625 0.375q-0.46875 0.375 -0.46875 0.875q0 0.3125 0.1875 0.578125q0.203125 0.265625 0.640625 0.4375q0.234375 0.09375 1.4375 0.421875q1.75 0.453125 2.4375 0.75q0.6875 0.296875 1.078125 0.859375q0.390625 0.5625 0.390625 1.40625q0 0.828125 -0.484375 1.546875q-0.46875 0.71875 -1.375 1.125q-0.90625 0.390625 -2.046875 0.390625q-1.875 0 -2.875 -0.78125q-0.984375 -0.78125 -1.25 -2.328125zm13.5625 1.421875l0.234375 1.453125q-0.6875 0.140625 -1.234375 0.140625q-0.890625 0 -1.390625 -0.28125q-0.484375 -0.28125 -0.6875 -0.734375q-0.203125 -0.46875 -0.203125 -1.9375l0 -5.578125l-1.203125 0l0 -1.265625l1.203125 0l0 -2.390625l1.625 -0.984375l0 3.375l1.65625 0l0 1.265625l-1.65625 0l0 5.671875q0 0.6875 0.078125 0.890625q0.09375 0.203125 0.28125 0.328125q0.203125 0.109375 0.578125 0.109375q0.265625 0 0.71875 -0.0625zm1.6052246 -10.0l0 -1.890625l1.640625 0l0 1.890625l-1.640625 0zm0 11.46875l0 -9.671875l1.640625 0l0 9.671875l-1.640625 0zm10.457275 -3.546875l1.609375 0.21875q-0.265625 1.65625 -1.359375 2.609375q-1.078125 0.9375 -2.671875 0.9375q-1.984375 0 -3.1875 -1.296875q-1.203125 -1.296875 -1.203125 -3.71875q0 -1.578125 0.515625 -2.75q0.515625 -1.171875 1.578125 -1.75q1.0625 -0.59375 2.3125 -0.59375q1.578125 0 2.578125 0.796875q1.0 0.796875 1.28125 2.265625l-1.59375 0.234375q-0.234375 -0.96875 -0.8125 -1.453125q-0.578125 -0.5 -1.390625 -0.5q-1.234375 0 -2.015625 0.890625q-0.78125 0.890625 -0.78125 2.8125q0 1.953125 0.75 2.84375q0.75 0.875 1.953125 0.875q0.96875 0 1.609375 -0.59375q0.65625 -0.59375 0.828125 -1.828125zm14.6521 -1.6875l0 -1.578125l5.65625 0l0 4.953125q-1.296875 1.046875 -2.6875 1.578125q-1.375 0.515625 -2.84375 0.515625q-1.96875 0 -3.578125 -0.84375q-1.609375 -0.84375 -2.421875 -2.4375q-0.8125 -1.59375 -0.8125 -3.5625q0 -1.953125 0.8125 -3.640625q0.8125 -1.6875 2.34375 -2.5q1.53125 -0.828125 3.515625 -0.828125q1.453125 0 2.625 0.46875q1.171875 0.46875 1.828125 1.3125q0.671875 0.828125 1.015625 2.171875l-1.59375 0.4375q-0.296875 -1.015625 -0.75 -1.59375q-0.4375 -0.59375 -1.265625 -0.9375q-0.828125 -0.34375 -1.84375 -0.34375q-1.203125 0 -2.09375 0.375q-0.890625 0.359375 -1.4375 0.96875q-0.53125 0.59375 -0.828125 1.3125q-0.515625 1.234375 -0.515625 2.6875q0 1.78125 0.609375 2.984375q0.625 1.203125 1.796875 1.796875q1.171875 0.578125 2.5 0.578125q1.140625 0 2.234375 -0.4375q1.09375 -0.453125 1.65625 -0.953125l0 -2.484375l-3.921875 0zm8.042664 5.234375l0 -9.671875l1.46875 0l0 1.46875q0.5625 -1.03125 1.03125 -1.359375q0.484375 -0.328125 1.0625 -0.328125q0.828125 0 1.6875 0.53125l-0.5625 1.515625q-0.609375 -0.359375 -1.203125 -0.359375q-0.546875 0 -0.96875 0.328125q-0.421875 0.328125 -0.609375 0.890625q-0.28125 0.875 -0.28125 1.921875l0 5.0625l-1.625 0zm5.6188965 -4.84375q0 -2.6875 1.484375 -3.96875q1.25 -1.078125 3.046875 -1.078125q2.0 0 3.265625 1.3125q1.265625 1.296875 1.265625 3.609375q0 1.859375 -0.5625 2.9375q-0.5625 1.0625 -1.640625 1.65625q-1.0625 0.59375 -2.328125 0.59375q-2.03125 0 -3.28125 -1.296875q-1.25 -1.3125 -1.25 -3.765625zm1.6875 0q0 1.859375 0.796875 2.796875q0.8125 0.921875 2.046875 0.921875q1.21875 0 2.03125 -0.921875q0.8125 -0.9375 0.8125 -2.84375q0 -1.796875 -0.8125 -2.71875q-0.8125 -0.921875 -2.03125 -0.921875q-1.234375 0 -2.046875 0.921875q-0.796875 0.90625 -0.796875 2.765625zm15.625732 4.84375l0 -1.421875q-1.125 1.640625 -3.0625 1.640625q-0.859375 0 -1.609375 -0.328125q-0.734375 -0.328125 -1.09375 -0.828125q-0.359375 -0.5 -0.5 -1.21875q-0.109375 -0.46875 -0.109375 -1.53125l0 -5.984375l1.640625 0l0 5.359375q0 1.28125 0.109375 1.734375q0.15625 0.640625 0.65625 1.015625q0.5 0.375 1.234375 0.375q0.734375 0 1.375 -0.375q0.65625 -0.390625 0.921875 -1.03125q0.265625 -0.65625 0.265625 -1.890625l0 -5.1875l1.640625 0l0 9.671875l-1.46875 0zm4.0476074 3.703125l0 -13.375l1.484375 0l0 1.25q0.53125 -0.734375 1.1875 -1.09375q0.671875 -0.375 1.625 -0.375q1.234375 0 2.171875 0.640625q0.953125 0.625 1.4375 1.796875q0.484375 1.15625 0.484375 2.546875q0 1.484375 -0.53125 2.671875q-0.53125 1.1875 -1.546875 1.828125q-1.015625 0.625 -2.140625 0.625q-0.8125 0 -1.46875 -0.34375q-0.65625 -0.34375 -1.0625 -0.875l0 4.703125l-1.640625 0zm1.484375 -8.484375q0 1.859375 0.75 2.765625q0.765625 0.890625 1.828125 0.890625q1.09375 0 1.875 -0.921875q0.78125 -0.9375 0.78125 -2.875q0 -1.84375 -0.765625 -2.765625q-0.75 -0.921875 -1.8125 -0.921875q-1.046875 0 -1.859375 0.984375q-0.796875 0.96875 -0.796875 2.84375zm14.574646 4.78125l0 -13.359375l1.765625 0l0 13.359375l-1.765625 0zm4.8864136 0l0 -13.359375l4.609375 0q1.546875 0 2.375 0.203125q1.140625 0.25 1.953125 0.953125q1.0625 0.890625 1.578125 2.28125q0.53125 1.390625 0.53125 3.171875q0 1.515625 -0.359375 2.703125q-0.359375 1.171875 -0.921875 1.9375q-0.546875 0.765625 -1.203125 1.21875q-0.65625 0.4375 -1.59375 0.671875q-0.9375 0.21875 -2.140625 0.21875l-4.828125 0zm1.765625 -1.578125l2.859375 0q1.3125 0 2.0625 -0.234375q0.75 -0.25 1.203125 -0.703125q0.625 -0.625 0.96875 -1.6875q0.359375 -1.0625 0.359375 -2.578125q0 -2.09375 -0.6875 -3.21875q-0.6875 -1.125 -1.671875 -1.5q-0.703125 -0.28125 -2.28125 -0.28125l-2.8125 0l0 10.203125z" fill-rule="nonzero"/><path fill="#000000" d="m835.7369 80.384224l-5.171875 -13.359375l1.921875 0l3.46875 9.703125q0.421875 1.171875 0.703125 2.1875q0.3125 -1.09375 0.71875 -2.1875l3.609375 -9.703125l1.796875 0l-5.234375 13.359375l-1.8125 0zm8.090698 -11.46875l0 -1.890625l1.640625 0l0 1.890625l-1.640625 0zm0 11.46875l0 -9.671875l1.640625 0l0 9.671875l-1.640625 0zm3.4885864 -2.890625l1.625 -0.25q0.125 0.96875 0.75 1.5q0.625 0.515625 1.75 0.515625q1.125 0 1.671875 -0.453125q0.546875 -0.46875 0.546875 -1.09375q0 -0.546875 -0.484375 -0.875q-0.328125 -0.21875 -1.671875 -0.546875q-1.8125 -0.46875 -2.515625 -0.796875q-0.6875 -0.328125 -1.046875 -0.90625q-0.359375 -0.59375 -0.359375 -1.3125q0 -0.640625 0.296875 -1.1875q0.296875 -0.5625 0.8125 -0.921875q0.375 -0.28125 1.03125 -0.46875q0.671875 -0.203125 1.421875 -0.203125q1.140625 0 2.0 0.328125q0.859375 0.328125 1.265625 0.890625q0.421875 0.5625 0.578125 1.5l-1.609375 0.21875q-0.109375 -0.75 -0.640625 -1.171875q-0.515625 -0.421875 -1.46875 -0.421875q-1.140625 0 -1.625 0.375q-0.46875 0.375 -0.46875 0.875q0 0.3125 0.1875 0.578125q0.203125 0.265625 0.640625 0.4375q0.234375 0.09375 1.4375 0.421875q1.75 0.453125 2.4375 0.75q0.6875 0.296875 1.078125 0.859375q0.390625 0.5625 0.390625 1.40625q0 0.828125 -0.484375 1.546875q-0.46875 0.71875 -1.375 1.125q-0.90625 0.390625 -2.046875 0.390625q-1.875 0 -2.875 -0.78125q-0.984375 -0.78125 -1.25 -2.328125zm9.984375 -8.578125l0 -1.890625l1.640625 0l0 1.890625l-1.640625 0zm0 11.46875l0 -9.671875l1.640625 0l0 9.671875l-1.640625 0zm5.6447754 0l-1.515625 0l0 -13.359375l1.640625 0l0 4.765625q1.046875 -1.296875 2.65625 -1.296875q0.890625 0 1.6875 0.359375q0.796875 0.359375 1.3125 1.015625q0.515625 0.640625 0.796875 1.5625q0.296875 0.921875 0.296875 1.96875q0 2.484375 -1.234375 3.84375q-1.21875 1.359375 -2.953125 1.359375q-1.703125 0 -2.6875 -1.4375l0 1.21875zm-0.015625 -4.90625q0 1.734375 0.484375 2.515625q0.765625 1.265625 2.09375 1.265625q1.078125 0 1.859375 -0.9375q0.78125 -0.9375 0.78125 -2.78125q0 -1.890625 -0.75 -2.796875q-0.75 -0.90625 -1.828125 -0.90625q-1.0625 0 -1.859375 0.9375q-0.78125 0.9375 -0.78125 2.703125zm8.891357 -6.5625l0 -1.890625l1.640625 0l0 1.890625l-1.640625 0zm0 11.46875l0 -9.671875l1.640625 0l0 9.671875l-1.640625 0zm4.0979614 0l0 -13.359375l1.640625 0l0 13.359375l-1.640625 0zm4.1917114 -11.46875l0 -1.890625l1.640625 0l0 1.890625l-1.640625 0zm0 11.46875l0 -9.671875l1.640625 0l0 9.671875l-1.640625 0zm7.7229004 -1.46875l0.234375 1.453125q-0.6875 0.140625 -1.234375 0.140625q-0.890625 0 -1.390625 -0.28125q-0.484375 -0.28125 -0.6875 -0.734375q-0.203125 -0.46875 -0.203125 -1.9375l0 -5.578125l-1.203125 0l0 -1.265625l1.203125 0l0 -2.390625l1.625 -0.984375l0 3.375l1.65625 0l0 1.265625l-1.65625 0l0 5.671875q0 0.6875 0.078125 0.890625q0.09375 0.203125 0.28125 0.328125q0.203125 0.109375 0.578125 0.109375q0.265625 0 0.71875 -0.0625zm1.5270996 5.1875l-0.1875 -1.53125q0.546875 0.140625 0.9375 0.140625q0.546875 0 0.875 -0.1875q0.328125 -0.171875 0.546875 -0.5q0.15625 -0.25 0.5 -1.21875q0.046875 -0.140625 0.140625 -0.40625l-3.671875 -9.6875l1.765625 0l2.015625 5.59375q0.390625 1.078125 0.703125 2.25q0.28125 -1.125 0.671875 -2.203125l2.078125 -5.640625l1.640625 0l-3.6875 9.828125q-0.59375 1.609375 -0.921875 2.203125q-0.4375 0.8125 -1.0 1.1875q-0.5625 0.375 -1.34375 0.375q-0.484375 0 -1.0625 -0.203125z" fill-rule="nonzero"/><path shape-rendering="crispEdges" fill="#ffffff" d="m10.625196 268.29755l248.53282 0l0 57.687683l-248.53282 0l0 -57.687683z" fill-rule="nonzero"/><path shape-rendering="crispEdges" fill="#ffffff" d="m259.15802 268.29755l198.82675 0l0 57.687683l-198.82675 0l0 -57.687683z" fill-rule="nonzero"/><path shape-rendering="crispEdges" fill="#ffffff" d="m457.98477 268.29755l281.66928 0l0 57.687683l-281.66928 0l0 -57.687683z" fill-rule="nonzero"/><path shape-rendering="crispEdges" fill="#ffffff" d="m739.65405 268.29755l248.53284 0l0 57.687683l-248.53284 0l0 -57.687683z" fill-rule="nonzero"/><path shape-rendering="crispEdges" fill="#ffffff" d="m988.1869 268.29755l171.20996 0l0 57.687683l-171.20996 0l0 -57.687683z" fill-rule="nonzero"/><path stroke="#000000" stroke-width="1.3333333333333333" stroke-linecap="butt" d="m10.625196 267.79886l0 58.68506" fill-rule="nonzero"/><path stroke="#000000" stroke-width="1.3333333333333333" stroke-linecap="butt" d="m259.15802 267.79886l0 58.68506" fill-rule="nonzero"/><path stroke="#000000" stroke-width="1.3333333333333333" stroke-linecap="butt" d="m457.98477 267.79886l0 58.68506" fill-rule="nonzero"/><path stroke="#000000" stroke-width="1.3333333333333333" stroke-linecap="butt" d="m739.65405 267.79886l0 58.68506" fill-rule="nonzero"/><path stroke="#000000" stroke-width="1.3333333333333333" stroke-linecap="butt" d="m988.1869 267.79886l0 58.68506" fill-rule="nonzero"/><path stroke="#000000" stroke-width="1.3333333333333333" stroke-linecap="butt" d="m1159.3969 267.79886l0 58.68506" fill-rule="nonzero"/><path stroke="#000000" stroke-width="1.3333333333333333" stroke-linecap="butt" d="m10.126509 268.29755l1149.769 0" fill-rule="nonzero"/><path stroke="#000000" stroke-width="1.3333333333333333" stroke-linecap="butt" d="m10.126509 325.98523l1149.769 0" fill-rule="nonzero"/><path fill="#000000" d="m50.02382 291.9014l0 2.3125l-2.125 0l0 -1.828125q0 -1.46875 0.34375 -2.140625q0.46875 -0.890625 1.484375 -1.34375l0.484375 0.78125q-0.609375 0.25 -0.90625 0.765625q-0.28125 0.5 -0.3125 1.453125l1.03125 0zm3.4375 0l0 2.3125l-2.140625 0l0 -1.828125q0 -1.46875 0.359375 -2.140625q0.46875 -0.890625 1.46875 -1.34375l0.484375 0.78125q-0.609375 0.25 -0.90625 0.765625q-0.28125 0.5 -0.3125 1.453125l1.046875 0zm14.372833 7.8125l2.15625 0.546875q-0.671875 2.640625 -2.4375 4.03125q-1.75 1.390625 -4.28125 1.390625q-2.625 0 -4.265625 -1.0625q-1.640625 -1.078125 -2.5 -3.09375q-0.859375 -2.03125 -0.859375 -4.359375q0 -2.53125 0.96875 -4.40625q0.96875 -1.890625 2.75 -2.875q1.796875 -0.984375 3.9375 -0.984375q2.4375 0 4.09375 1.25q1.65625 1.234375 2.3125 3.484375l-2.109375 0.5q-0.5625 -1.78125 -1.640625 -2.578125q-1.078125 -0.8125 -2.703125 -0.8125q-1.859375 0 -3.125 0.90625q-1.25 0.890625 -1.765625 2.40625q-0.5 1.5 -0.5 3.109375q0 2.0625 0.59375 3.609375q0.609375 1.53125 1.875 2.296875q1.28125 0.765625 2.765625 0.765625q1.796875 0 3.046875 -1.03125q1.25 -1.046875 1.6875 -3.09375zm4.142868 -2.21875q0 -4.03125 2.171875 -6.3125q2.171875 -2.28125 5.59375 -2.28125q2.25 0 4.046875 1.078125q1.8125 1.0625 2.75 2.984375q0.953125 1.921875 0.953125 4.34375q0 2.46875 -1.0 4.421875q-1.0 1.953125 -2.828125 2.953125q-1.8125 1.0 -3.9375 1.0q-2.28125 0 -4.09375 -1.109375q-1.796875 -1.109375 -2.734375 -3.015625q-0.921875 -1.921875 -0.921875 -4.0625zm2.21875 0.046875q0 2.921875 1.5625 4.609375q1.578125 1.6875 3.96875 1.6875q2.421875 0 3.984375 -1.703125q1.5625 -1.703125 1.5625 -4.828125q0 -1.984375 -0.671875 -3.453125q-0.671875 -1.484375 -1.96875 -2.296875q-1.28125 -0.8125 -2.875 -0.8125q-2.28125 0 -3.921875 1.5625q-1.640625 1.5625 -1.640625 5.234375zm26.700882 -8.359375l2.140625 0l0 9.375q0 2.4375 -0.546875 3.875q-0.546875 1.4375 -2.0 2.34375q-1.4375 0.90625 -3.78125 0.90625q-2.28125 0 -3.734375 -0.78125q-1.453125 -0.796875 -2.078125 -2.28125q-0.609375 -1.484375 -0.609375 -4.0625l0 -9.375l2.140625 0l0 9.359375q0 2.109375 0.390625 3.109375q0.40625 1.0 1.359375 1.546875q0.953125 0.546875 2.34375 0.546875q2.359375 0 3.359375 -1.078125q1.015625 -1.078125 1.015625 -4.125l0 -9.359375zm5.689743 16.21875l0 -16.21875l2.203125 0l8.53125 12.734375l0 -12.734375l2.046875 0l0 16.21875l-2.203125 0l-8.515625 -12.75l0 12.75l-2.0625 0zm20.517868 0l0 -14.296875l-5.34375 0l0 -1.921875l12.859375 0l0 1.921875l-5.375 0l0 14.296875l-2.140625 0zm10.042465 4.765625l0 -21.265625l1.734375 0l0 21.265625l-1.734375 0zm5.30719 -18.6875l0 -2.296875l2.0 0l0 2.296875l-2.0 0zm0 13.921875l0 -11.75l2.0 0l0 11.75l-2.0 0zm5.033493 0l0 -11.75l1.78125 0l0 1.671875q1.296875 -1.9375 3.75 -1.9375q1.0625 0 1.953125 0.390625q0.890625 0.375 1.328125 1.0q0.4375 0.609375 0.625 1.46875q0.109375 0.546875 0.109375 1.9375l0 7.21875l-2.0 0l0 -7.140625q0 -1.21875 -0.234375 -1.8125q-0.234375 -0.609375 -0.828125 -0.96875q-0.578125 -0.359375 -1.375 -0.359375q-1.28125 0 -2.203125 0.8125q-0.921875 0.796875 -0.921875 3.046875l0 6.421875l-1.984375 0zm16.944077 -1.78125l0.28125 1.765625q-0.84375 0.171875 -1.5 0.171875q-1.078125 0 -1.6875 -0.34375q-0.59375 -0.34375 -0.84375 -0.890625q-0.234375 -0.5625 -0.234375 -2.359375l0 -6.765625l-1.46875 0l0 -1.546875l1.46875 0l0 -2.90625l1.984375 -1.203125l0 4.109375l2.0 0l0 1.546875l-2.0 0l0 6.875q0 0.84375 0.09375 1.09375q0.109375 0.25 0.34375 0.390625q0.25 0.140625 0.6875 0.140625q0.328125 0 0.875 -0.078125zm9.982132 -2.0l2.0625 0.25q-0.484375 1.8125 -1.8125 2.8125q-1.3125 0.984375 -3.359375 0.984375q-2.578125 0 -4.09375 -1.578125q-1.5 -1.59375 -1.5 -4.46875q0 -2.953125 1.53125 -4.59375q1.53125 -1.640625 3.953125 -1.640625q2.359375 0 3.84375 1.609375q1.5 1.59375 1.5 4.515625q0 0.171875 0 0.53125l-8.765625 0q0.109375 1.9375 1.09375 2.96875q0.984375 1.015625 2.453125 1.015625q1.09375 0 1.859375 -0.5625q0.78125 -0.578125 1.234375 -1.84375zm-6.53125 -3.21875l6.5625 0q-0.140625 -1.484375 -0.75 -2.21875q-0.953125 -1.15625 -2.46875 -1.15625q-1.375 0 -2.3125 0.921875q-0.9375 0.90625 -1.03125 2.453125zm11.069077 7.0l0 -11.75l1.796875 0l0 1.78125q0.6875 -1.25 1.265625 -1.640625q0.578125 -0.40625 1.28125 -0.40625q1.0 0 2.046875 0.640625l-0.6875 1.84375q-0.734375 -0.421875 -1.46875 -0.421875q-0.640625 0 -1.171875 0.390625q-0.515625 0.390625 -0.734375 1.09375q-0.328125 1.0625 -0.328125 2.3125l0 6.15625l-2.0 0zm7.5759583 0l0 -11.75l1.78125 0l0 1.671875q1.296875 -1.9375 3.75 -1.9375q1.0625 0 1.953125 0.390625q0.890625 0.375 1.328125 1.0q0.4375 0.609375 0.625 1.46875q0.109375 0.546875 0.109375 1.9375l0 7.21875l-2.0 0l0 -7.140625q0 -1.21875 -0.234375 -1.8125q-0.234375 -0.609375 -0.828125 -0.96875q-0.578125 -0.359375 -1.375 -0.359375q-1.28125 0 -2.203125 0.8125q-0.921875 0.796875 -0.921875 3.046875l0 6.421875l-1.984375 0zm20.256577 -1.453125q-1.109375 0.9375 -2.140625 1.328125q-1.015625 0.390625 -2.1875 0.390625q-1.9375 0 -2.984375 -0.9375q-1.03125 -0.953125 -1.03125 -2.421875q0 -0.859375 0.390625 -1.578125q0.40625 -0.71875 1.03125 -1.140625q0.640625 -0.4375 1.4375 -0.65625q0.59375 -0.15625 1.765625 -0.296875q2.421875 -0.296875 3.5625 -0.6875q0 -0.40625 0 -0.515625q0 -1.21875 -0.5625 -1.71875q-0.765625 -0.671875 -2.265625 -0.671875q-1.40625 0 -2.078125 0.5q-0.671875 0.484375 -0.984375 1.734375l-1.953125 -0.265625q0.265625 -1.25 0.875 -2.015625q0.609375 -0.78125 1.75 -1.1875q1.15625 -0.421875 2.671875 -0.421875q1.515625 0 2.453125 0.359375q0.9375 0.34375 1.375 0.890625q0.453125 0.53125 0.625 1.34375q0.09375 0.515625 0.09375 1.84375l0 2.65625q0 2.78125 0.125 3.515625q0.140625 0.734375 0.515625 1.40625l-2.078125 0q-0.3125 -0.625 -0.40625 -1.453125zm-0.15625 -4.4375q-1.09375 0.4375 -3.265625 0.75q-1.21875 0.171875 -1.734375 0.390625q-0.5 0.21875 -0.78125 0.65625q-0.28125 0.421875 -0.28125 0.9375q0 0.796875 0.609375 1.328125q0.609375 0.53125 1.765625 0.53125q1.140625 0 2.03125 -0.5q0.90625 -0.5 1.328125 -1.375q0.328125 -0.671875 0.328125 -2.0l0 -0.71875zm5.0534515 5.890625l0 -16.21875l1.984375 0l0 16.21875l-1.984375 0zm4.549118 -14.078125l0 -2.3125l2.125 0l0 1.828125q0 1.484375 -0.34375 2.140625q-0.46875 0.890625 -1.484375 1.34375l-0.484375 -0.78125q0.609375 -0.25 0.890625 -0.765625q0.296875 -0.53125 0.328125 -1.453125l-1.03125 0zm3.421875 0l0 -2.3125l2.140625 0l0 1.828125q0 1.484375 -0.34375 2.140625q-0.484375 0.890625 -1.484375 1.34375l-0.484375 -0.78125q0.59375 -0.25 0.890625 -0.765625q0.296875 -0.53125 0.328125 -1.453125l-1.046875 0z" fill-rule="nonzero"/><path fill="#000000" d="m355.5178 300.5264l0 -2.0l6.125 0l0 2.0l-6.125 0z" fill-rule="nonzero"/><path fill="#000000" d="m551.5732 305.4014l6.21875 -16.21875l2.3125 0l6.640625 16.21875l-2.4375 0l-1.890625 -4.90625l-6.78125 0l-1.78125 4.90625l-2.28125 0zm4.671875 -6.65625l5.5 0l-1.6875 -4.5q-0.78125 -2.046875 -1.15625 -3.359375q-0.3125 1.5625 -0.875 3.09375l-1.78125 4.765625zm12.158447 6.65625l0 -16.21875l3.21875 0l3.84375 11.484375q0.53125 1.609375 0.78125 2.40625q0.265625 -0.890625 0.859375 -2.609375l3.875 -11.28125l2.890625 0l0 16.21875l-2.0625 0l0 -13.578125l-4.71875 13.578125l-1.9375 0l-4.6875 -13.8125l0 13.8125l-2.0625 0zm18.591553 4.53125l-0.21875 -1.875q0.65625 0.171875 1.140625 0.171875q0.65625 0 1.046875 -0.21875q0.40625 -0.21875 0.65625 -0.625q0.1875 -0.296875 0.609375 -1.46875q0.0625 -0.171875 0.1875 -0.5l-4.46875 -11.765625l2.15625 0l2.4375 6.8125q0.484375 1.28125 0.859375 2.71875q0.34375 -1.375 0.8125 -2.6875l2.515625 -6.84375l1.984375 0l-4.46875 11.953125q-0.71875 1.9375 -1.109375 2.65625q-0.53125 0.984375 -1.21875 1.4375q-0.6875 0.46875 -1.640625 0.46875q-0.578125 0 -1.28125 -0.234375zm15.796875 -4.53125l0 -14.296875l-5.34375 0l0 -1.921875l12.859375 0l0 1.921875l-5.375 0l0 14.296875l-2.140625 0zm8.119934 4.53125l-0.21875 -1.875q0.65625 0.171875 1.140625 0.171875q0.65625 0 1.046875 -0.21875q0.40625 -0.21875 0.65625 -0.625q0.1875 -0.296875 0.609375 -1.46875q0.0625 -0.171875 0.1875 -0.5l-4.46875 -11.765625l2.15625 0l2.4375 6.8125q0.484375 1.28125 0.859375 2.71875q0.34375 -1.375 0.8125 -2.6875l2.515625 -6.84375l1.984375 0l-4.46875 11.953125q-0.71875 1.9375 -1.109375 2.65625q-0.53125 0.984375 -1.21875 1.4375q-0.6875 0.46875 -1.640625 0.46875q-0.578125 0 -1.28125 -0.234375zm11.421875 -0.03125l0 -16.25l1.8125 0l0 1.53125q0.640625 -0.90625 1.4375 -1.34375q0.8125 -0.453125 1.96875 -0.453125q1.5 0 2.640625 0.78125q1.15625 0.765625 1.734375 2.1875q0.59375 1.40625 0.59375 3.078125q0 1.8125 -0.640625 3.265625q-0.640625 1.4375 -1.875 2.203125q-1.234375 0.765625 -2.59375 0.765625q-1.0 0 -1.796875 -0.421875q-0.78125 -0.421875 -1.296875 -1.0625l0 5.71875l-1.984375 0zm1.796875 -10.3125q0 2.265625 0.921875 3.359375q0.921875 1.078125 2.21875 1.078125q1.328125 0 2.265625 -1.125q0.953125 -1.125 0.953125 -3.46875q0 -2.25 -0.921875 -3.359375q-0.921875 -1.125 -2.203125 -1.125q-1.28125 0 -2.265625 1.1875q-0.96875 1.1875 -0.96875 3.453125zm18.834717 2.03125l2.0625 0.25q-0.484375 1.8125 -1.8125 2.8125q-1.3125 0.984375 -3.359375 0.984375q-2.578125 0 -4.09375 -1.578125q-1.5 -1.59375 -1.5 -4.46875q0 -2.953125 1.53125 -4.59375q1.53125 -1.640625 3.953125 -1.640625q2.359375 0 3.84375 1.609375q1.5 1.59375 1.5 4.515625q0 0.171875 0 0.53125l-8.765625 0q0.109375 1.9375 1.09375 2.96875q0.984375 1.015625 2.453125 1.015625q1.09375 0 1.859375 -0.5625q0.78125 -0.578125 1.234375 -1.84375zm-6.53125 -3.21875l6.5625 0q-0.140625 -1.484375 -0.75 -2.21875q-0.953125 -1.15625 -2.46875 -1.15625q-1.375 0 -2.3125 0.921875q-0.9375 0.90625 -1.03125 2.453125z" fill-rule="nonzero"/><path fill="#000000" d="m825.48535 305.4014l6.21875 -16.21875l2.3125 0l6.640625 16.21875l-2.4375 0l-1.890625 -4.90625l-6.78125 0l-1.78125 4.90625l-2.28125 0zm4.671875 -6.65625l5.5 0l-1.6875 -4.5q-0.78125 -2.046875 -1.15625 -3.359375q-0.3125 1.5625 -0.875 3.09375l-1.78125 4.765625zm21.236511 4.75q-0.984375 1.09375 -2.15625 1.640625q-1.15625 0.546875 -2.5 0.546875q-2.484375 0 -3.953125 -1.6875q-1.1875 -1.375 -1.1875 -3.0625q0 -1.5 0.96875 -2.703125q0.96875 -1.21875 2.890625 -2.140625q-1.09375 -1.265625 -1.453125 -2.046875q-0.359375 -0.78125 -0.359375 -1.515625q0 -1.46875 1.140625 -2.546875q1.140625 -1.078125 2.875 -1.078125q1.65625 0 2.71875 1.03125q1.0625 1.015625 1.0625 2.4375q0 2.3125 -3.0625 3.953125l2.90625 3.703125q0.5 -0.96875 0.765625 -2.265625l2.078125 0.453125q-0.53125 2.125 -1.4375 3.5q1.109375 1.46875 2.53125 2.484375l-1.34375 1.578125q-1.203125 -0.765625 -2.484375 -2.28125zm-4.046875 -8.453125q1.296875 -0.765625 1.671875 -1.34375q0.375 -0.578125 0.375 -1.265625q0 -0.84375 -0.53125 -1.359375q-0.515625 -0.53125 -1.296875 -0.53125q-0.8125 0 -1.34375 0.53125q-0.53125 0.515625 -0.53125 1.265625q0 0.375 0.1875 0.796875q0.1875 0.40625 0.578125 0.875l0.890625 1.03125zm2.796875 6.875l-3.65625 -4.53125q-1.609375 0.96875 -2.171875 1.796875q-0.5625 0.8125 -0.5625 1.625q0 0.984375 0.78125 2.046875q0.78125 1.0625 2.21875 1.0625q0.90625 0 1.859375 -0.546875q0.953125 -0.5625 1.53125 -1.453125zm7.2521973 3.484375l0 -16.21875l6.09375 0q1.859375 0 2.96875 0.5q1.125 0.484375 1.765625 1.515625q0.640625 1.015625 0.640625 2.140625q0 1.03125 -0.578125 1.953125q-0.5625 0.921875 -1.6875 1.484375q1.46875 0.421875 2.25 1.46875q0.796875 1.03125 0.796875 2.453125q0 1.140625 -0.484375 2.125q-0.484375 0.96875 -1.1875 1.5q-0.703125 0.53125 -1.78125 0.8125q-1.0625 0.265625 -2.609375 0.265625l-6.1875 0zm2.15625 -9.40625l3.5 0q1.421875 0 2.046875 -0.1875q0.8125 -0.234375 1.21875 -0.796875q0.421875 -0.578125 0.421875 -1.421875q0 -0.8125 -0.390625 -1.421875q-0.375 -0.609375 -1.09375 -0.828125q-0.71875 -0.234375 -2.46875 -0.234375l-3.234375 0l0 4.890625zm0 7.5l4.03125 0q1.046875 0 1.453125 -0.078125q0.75 -0.140625 1.25 -0.453125q0.5 -0.3125 0.8125 -0.890625q0.328125 -0.59375 0.328125 -1.375q0 -0.90625 -0.46875 -1.578125q-0.46875 -0.671875 -1.296875 -0.9375q-0.8125 -0.265625 -2.359375 -0.265625l-3.75 0l0 5.578125zm22.064636 0q-0.984375 1.09375 -2.15625 1.640625q-1.15625 0.546875 -2.5 0.546875q-2.484375 0 -3.953125 -1.6875q-1.1875 -1.375 -1.1875 -3.0625q0 -1.5 0.96875 -2.703125q0.96875 -1.21875 2.890625 -2.140625q-1.09375 -1.265625 -1.453125 -2.046875q-0.359375 -0.78125 -0.359375 -1.515625q0 -1.46875 1.140625 -2.546875q1.140625 -1.078125 2.875 -1.078125q1.65625 0 2.71875 1.03125q1.0625 1.015625 1.0625 2.4375q0 2.3125 -3.0625 3.953125l2.90625 3.703125q0.5 -0.96875 0.765625 -2.265625l2.078125 0.453125q-0.53125 2.125 -1.4375 3.5q1.109375 1.46875 2.53125 2.484375l-1.34375 1.578125q-1.203125 -0.765625 -2.484375 -2.28125zm-4.046875 -8.453125q1.296875 -0.765625 1.671875 -1.34375q0.375 -0.578125 0.375 -1.265625q0 -0.84375 -0.53125 -1.359375q-0.515625 -0.53125 -1.296875 -0.53125q-0.8125 0 -1.34375 0.53125q-0.53125 0.515625 -0.53125 1.265625q0 0.375 0.1875 0.796875q0.1875 0.40625 0.578125 0.875l0.890625 1.03125zm2.796875 6.875l-3.65625 -4.53125q-1.609375 0.96875 -2.171875 1.796875q-0.5625 0.8125 -0.5625 1.625q0 0.984375 0.78125 2.046875q0.78125 1.0625 2.21875 1.0625q0.90625 0 1.859375 -0.546875q0.953125 -0.5625 1.53125 -1.453125zm18.908447 -2.203125l2.15625 0.546875q-0.671875 2.640625 -2.4375 4.03125q-1.75 1.390625 -4.28125 1.390625q-2.625 0 -4.265625 -1.0625q-1.640625 -1.078125 -2.5 -3.09375q-0.859375 -2.03125 -0.859375 -4.359375q0 -2.53125 0.96875 -4.40625q0.96875 -1.890625 2.75 -2.875q1.796875 -0.984375 3.9375 -0.984375q2.4375 0 4.09375 1.25q1.65625 1.234375 2.3125 3.484375l-2.109375 0.5q-0.5625 -1.78125 -1.640625 -2.578125q-1.078125 -0.8125 -2.703125 -0.8125q-1.859375 0 -3.125 0.90625q-1.25 0.890625 -1.765625 2.40625q-0.5 1.5 -0.5 3.109375q0 2.0625 0.59375 3.609375q0.609375 1.53125 1.875 2.296875q1.28125 0.765625 2.765625 0.765625q1.796875 0 3.046875 -1.03125q1.25 -1.046875 1.6875 -3.09375z" fill-rule="nonzero"/><path fill="#000000" d="m1064.17 305.4014l-1.984375 0l0 -12.6875q-0.71875 0.6875 -1.890625 1.375q-1.171875 0.6875 -2.09375 1.03125l0 -1.9375q1.671875 -0.78125 2.921875 -1.890625q1.25 -1.125 1.765625 -2.171875l1.28125 0l0 16.28125zm10.917969 0l-1.984375 0l0 -12.6875q-0.71875 0.6875 -1.890625 1.375q-1.171875 0.6875 -2.09375 1.03125l0 -1.9375q1.671875 -0.78125 2.921875 -1.890625q1.25 -1.125 1.765625 -2.171875l1.28125 0l0 16.28125zm5.100342 -8.0q0 -2.875 0.59375 -4.625q0.59375 -1.75 1.75 -2.703125q1.171875 -0.953125 2.953125 -0.953125q1.296875 0 2.28125 0.53125q0.984375 0.515625 1.625 1.515625q0.640625 0.984375 1.0 2.40625q0.375 1.421875 0.375 3.828125q0 2.859375 -0.59375 4.609375q-0.578125 1.75 -1.75 2.71875q-1.15625 0.953125 -2.9375 0.953125q-2.34375 0 -3.6875 -1.6875q-1.609375 -2.015625 -1.609375 -6.59375zm2.046875 0q0 4.0 0.9375 5.328125q0.9375 1.3125 2.3125 1.3125q1.359375 0 2.296875 -1.328125q0.9375 -1.328125 0.9375 -5.3125q0 -4.0 -0.9375 -5.3125q-0.9375 -1.328125 -2.328125 -1.328125q-1.375 0 -2.1875 1.171875q-1.03125 1.484375 -1.03125 5.46875z" fill-rule="nonzero"/></g></svg>